{"glyphs":{"0":{"ha":867,"x_min":63,"x_max":797,"o":"m 498 784 q 668 744 601 784 q 766 632 734 703 q 797 469 797 562 q 741 232 797 342 q 585 55 684 121 q 366 -11 486 -11 q 196 33 264 -11 q 96 148 128 76 q 63 305 63 219 q 122 548 63 439 q 281 721 181 658 q 498 784 381 784 m 396 181 q 493 219 454 181 q 551 317 532 258 q 570 441 570 376 q 548 552 570 513 q 475 593 526 592 q 367 553 409 594 q 308 452 326 512 q 290 332 290 391 q 317 224 290 267 q 396 181 345 181 z "},"1":{"ha":703,"x_min":123,"x_max":568,"o":"m 292 543 q 250 532 269 536 q 201 524 231 528 q 151 517 165 519 l 123 651 q 265 705 189 665 q 406 788 341 744 l 568 781 l 453 0 l 211 0 l 292 543 z "},"2":{"ha":874,"x_min":35,"x_max":804,"o":"m 35 96 q 256 238 154 160 q 418 391 358 316 q 479 519 479 465 q 458 573 479 554 q 400 593 437 593 q 299 567 359 593 q 201 509 240 542 l 120 637 q 202 704 151 670 q 318 761 253 738 q 450 784 382 784 q 611 753 545 784 q 710 670 677 722 q 743 556 743 618 q 695 394 743 465 q 575 269 648 322 q 395 157 502 216 l 804 172 l 773 0 l 66 0 l 35 96 z "},"3":{"ha":792,"x_min":32,"x_max":694,"o":"m 145 -52 q 433 115 433 -52 q 421 166 433 142 q 381 207 409 190 q 311 224 354 223 l 184 199 l 203 373 q 323 401 267 380 q 414 455 380 422 q 449 526 449 487 q 425 587 449 568 q 343 607 400 607 q 257 589 305 607 q 170 539 208 571 l 103 680 q 176 727 127 703 q 289 768 224 751 q 422 784 354 784 q 558 762 496 784 q 657 695 620 740 q 694 587 694 650 q 664 470 694 526 q 579 373 635 415 q 449 309 524 332 q 577 277 522 307 q 661 202 632 248 q 690 106 690 157 q 622 -70 690 4 q 429 -182 553 -144 q 146 -221 306 -221 q 32 -213 98 -221 l 54 -45 q 145 -52 110 -52 z "},"4":{"ha":884,"x_min":1,"x_max":840,"o":"m 578 852 l 633 791 l 288 226 l 234 151 l 481 162 l 517 416 l 736 440 l 704 168 l 840 177 l 815 0 l 680 0 l 648 -254 l 425 -254 l 458 0 l 54 0 l 1 111 q 147 393 43 196 q 286 661 239 569 q 376 852 332 752 l 578 852 z "},"5":{"ha":798,"x_min":23,"x_max":732,"o":"m 102 -83 q 257 -62 178 -83 q 393 9 337 -41 q 448 136 448 58 q 419 224 448 193 q 313 256 389 256 q 230 245 276 256 q 159 220 184 234 l 74 311 l 178 773 l 576 773 l 591 784 l 732 784 l 677 587 l 359 587 l 307 387 q 369 403 328 396 q 454 410 410 410 q 642 351 570 410 q 713 163 713 292 q 636 -58 713 35 q 422 -200 559 -151 q 111 -248 286 -248 q 23 -237 56 -248 l 48 -79 q 102 -83 73 -83 z "},"6":{"ha":877,"x_min":75,"x_max":811,"o":"m 743 959 q 567 867 647 926 q 435 748 486 808 q 375 658 385 688 q 465 691 408 679 q 566 703 521 703 q 701 663 646 703 q 784 557 757 623 q 811 412 811 491 q 769 209 811 304 q 637 51 728 113 q 408 -11 547 -11 q 220 36 294 -11 q 110 163 145 82 q 75 348 75 243 q 154 672 75 515 q 372 944 232 829 q 689 1102 512 1059 l 743 959 m 427 151 q 517 189 482 151 q 568 281 553 227 q 584 389 584 336 q 550 500 584 463 q 463 536 515 536 q 378 519 418 536 q 321 481 337 501 q 304 417 311 450 q 298 357 298 384 q 315 245 298 292 q 362 175 333 199 q 427 151 392 151 z "},"7":{"ha":770,"x_min":52,"x_max":774,"o":"m 52 588 l 95 773 l 741 773 l 774 728 l 350 -237 l 148 -164 l 494 588 l 52 588 z "},"8":{"ha":943,"x_min":85,"x_max":874,"o":"m 337 522 q 250 630 281 574 q 218 753 218 686 q 260 912 218 845 q 381 1015 303 979 q 561 1050 458 1050 q 722 1022 650 1050 q 834 940 793 993 q 874 821 874 888 q 812 651 874 713 q 648 551 751 589 q 776 421 729 487 q 823 273 823 356 q 773 120 823 185 q 633 21 722 56 q 433 -14 545 -14 q 254 16 332 -14 q 130 103 175 46 q 85 237 85 159 q 156 418 85 348 q 337 522 227 488 m 664 800 q 648 859 664 834 q 606 896 632 883 q 550 909 580 909 q 469 872 497 909 q 440 773 440 835 q 470 700 440 735 q 557 620 500 665 q 635 696 606 652 q 664 800 664 740 m 459 133 q 550 166 517 133 q 584 254 584 199 q 563 320 584 288 q 511 379 541 353 q 422 451 481 405 q 342 375 371 417 q 313 270 313 334 q 334 200 313 232 q 389 151 355 169 q 459 133 423 133 z "},"9":{"ha":877,"x_min":68,"x_max":804,"o":"m 505 109 q 424 80 471 90 q 334 70 376 70 q 193 110 253 70 q 100 217 132 151 q 68 361 68 284 q 110 565 68 469 q 242 722 152 661 q 472 784 333 784 q 660 738 585 784 q 769 610 734 691 q 804 425 804 530 q 726 101 804 258 q 508 -171 648 -56 q 191 -329 368 -286 l 137 -186 q 313 -96 233 -154 q 444 20 393 -38 q 505 109 495 79 m 416 237 q 502 252 461 237 q 558 285 543 267 q 575 353 569 318 q 582 416 582 388 q 564 528 582 481 q 517 598 547 574 q 452 623 488 623 q 362 585 397 623 q 311 492 327 547 q 296 384 296 437 q 330 273 296 310 q 416 237 364 237 z "},"\u0000":{"ha":0,"x_min":0,"x_max":0,"o":""},"\r":{"ha":0,"x_min":0,"x_max":0,"o":""}," ":{"ha":329,"x_min":0,"x_max":0,"o":""},"A":{"ha":912,"x_min":-83,"x_max":878,"o":"m 615 194 l 260 194 l 181 0 l -83 -1 l 418 1038 l 724 1038 l 878 0 l 637 -1 l 615 194 m 596 357 l 545 815 l 541 896 l 514 815 l 327 357 l 596 357 z "},"Á":{"ha":912,"x_min":-83,"x_max":878,"o":"m 615 194 l 260 194 l 181 0 l -83 -1 l 418 1038 l 724 1038 l 878 0 l 637 -1 l 615 194 m 596 357 l 545 815 l 541 896 l 514 815 l 327 357 l 596 357 m 680 1366 l 822 1239 q 762 1167 805 1206 q 670 1096 720 1128 q 587 1051 621 1063 l 490 1134 l 680 1366 z "},"Ă":{"ha":912,"x_min":-83,"x_max":878,"o":"m 615 194 l 260 194 l 181 0 l -83 -1 l 418 1038 l 724 1038 l 878 0 l 637 -1 l 615 194 m 596 357 l 545 815 l 541 896 l 514 815 l 327 357 l 596 357 m 353 1308 q 356 1338 353 1319 q 361 1366 359 1356 l 489 1366 q 486 1335 486 1347 q 494 1289 486 1306 q 524 1263 503 1272 q 584 1255 545 1255 q 662 1285 638 1255 q 694 1366 686 1316 l 819 1366 q 820 1343 820 1358 q 793 1231 820 1285 q 710 1142 766 1177 q 573 1107 654 1107 q 405 1159 456 1107 q 353 1308 353 1211 z "},"Ǎ":{"ha":912,"x_min":-83,"x_max":878,"o":"m 615 194 l 260 194 l 181 0 l -83 -1 l 418 1038 l 724 1038 l 878 0 l 637 -1 l 615 194 m 596 357 l 545 815 l 541 896 l 514 815 l 327 357 l 596 357 m 562 1366 l 684 1366 l 827 1137 l 729 1084 l 605 1198 l 410 1084 l 310 1130 l 562 1366 z "},"Â":{"ha":912,"x_min":-83,"x_max":878,"o":"m 615 194 l 260 194 l 181 0 l -83 -1 l 418 1038 l 724 1038 l 878 0 l 637 -1 l 615 194 m 596 357 l 545 815 l 541 896 l 514 815 l 327 357 l 596 357 m 562 1366 l 684 1366 l 827 1137 l 729 1084 l 605 1198 l 410 1084 l 310 1130 l 562 1366 z "},"Ä":{"ha":912,"x_min":-83,"x_max":878,"o":"m 615 194 l 260 194 l 181 0 l -83 -1 l 418 1038 l 724 1038 l 878 0 l 637 -1 l 615 194 m 596 357 l 545 815 l 541 896 l 514 815 l 327 357 l 596 357 m 294 1218 q 310 1286 294 1255 q 353 1335 325 1317 q 419 1353 382 1353 q 474 1338 450 1353 q 511 1298 498 1322 q 524 1246 524 1274 q 492 1146 524 1185 q 396 1107 460 1107 q 347 1123 370 1107 q 309 1165 323 1139 q 294 1218 294 1191 m 616 1217 q 631 1286 616 1255 q 673 1335 646 1317 q 739 1353 701 1353 q 794 1338 770 1353 q 832 1298 819 1322 q 846 1246 846 1273 q 813 1146 846 1185 q 716 1107 780 1107 q 667 1123 690 1107 q 630 1164 644 1139 q 616 1217 616 1190 z "},"À":{"ha":912,"x_min":-83,"x_max":878,"o":"m 615 194 l 260 194 l 181 0 l -83 -1 l 418 1038 l 724 1038 l 878 0 l 637 -1 l 615 194 m 596 357 l 545 815 l 541 896 l 514 815 l 327 357 l 596 357 m 455 1366 l 644 1134 l 547 1051 q 464 1096 513 1063 q 372 1167 415 1128 q 313 1239 330 1206 l 455 1366 z "},"Ā":{"ha":912,"x_min":-83,"x_max":878,"o":"m 615 194 l 260 194 l 181 0 l -83 -1 l 418 1038 l 724 1038 l 878 0 l 637 -1 l 615 194 m 596 357 l 545 815 l 541 896 l 514 815 l 327 357 l 596 357 m 777 1299 l 764 1158 l 372 1158 l 386 1299 l 777 1299 z "},"Ą":{"ha":920,"x_min":-75,"x_max":886,"o":"m 726 -188 q 777 -177 753 -188 q 830 -144 800 -167 l 858 -262 q 762 -326 817 -305 q 635 -346 708 -346 q 559 -328 592 -346 q 508 -280 526 -310 q 490 -214 490 -250 q 521 -126 490 -170 q 595 -50 552 -83 q 676 -1 639 -17 l 645 -1 l 623 194 l 269 194 l 189 0 l -75 -1 l 427 1038 l 732 1038 l 886 0 l 848 0 q 729 -68 777 -29 q 681 -139 681 -107 q 693 -177 681 -166 q 726 -188 705 -188 m 604 357 l 553 815 l 549 896 l 522 815 l 335 357 l 604 357 z "},"Å":{"ha":912,"x_min":-83,"x_max":878,"o":"m 615 194 l 260 194 l 181 0 l -83 -1 l 416 1031 q 362 1085 381 1053 q 343 1160 343 1118 q 385 1280 343 1234 q 487 1346 426 1326 q 608 1366 547 1366 q 759 1326 702 1366 q 815 1208 815 1286 q 789 1107 815 1150 q 719 1038 764 1065 l 724 1038 l 878 0 l 637 -1 l 615 194 m 591 1274 q 510 1250 545 1274 q 476 1176 476 1226 q 490 1134 476 1153 q 525 1103 503 1114 q 570 1092 547 1092 q 650 1114 618 1092 q 683 1189 683 1136 q 670 1232 683 1213 q 636 1263 657 1252 q 591 1274 614 1274 m 596 357 l 545 815 l 541 896 l 514 815 l 327 357 l 596 357 z "},"Ã":{"ha":912,"x_min":-83,"x_max":911,"o":"m 615 194 l 260 194 l 181 0 l -83 -1 l 418 1038 l 724 1038 l 878 0 l 637 -1 l 615 194 m 596 357 l 545 815 l 541 896 l 514 815 l 327 357 l 596 357 m 298 1209 q 349 1271 313 1240 q 427 1322 385 1302 q 506 1343 470 1343 q 559 1335 536 1343 q 599 1315 583 1326 q 636 1286 615 1304 q 676 1255 660 1265 q 715 1245 693 1245 q 762 1256 742 1245 q 797 1280 783 1266 q 831 1320 810 1295 l 911 1221 q 864 1156 898 1189 q 788 1101 831 1123 q 708 1080 746 1080 q 649 1087 674 1080 q 607 1106 624 1095 q 570 1135 591 1118 q 526 1167 545 1157 q 480 1177 508 1177 q 423 1161 450 1177 q 370 1117 397 1144 l 298 1209 z "},"Æ":{"ha":1345,"x_min":-82,"x_max":1346,"o":"m 940 852 l 907 624 l 1192 627 l 1167 440 l 882 446 l 844 183 l 1274 190 l 1249 0 l 578 0 l 606 201 l 291 201 l 184 0 l -82 0 l 435 901 l 271 922 l 290 1038 l 1346 1038 l 1321 851 l 940 852 m 631 371 l 701 861 l 647 867 l 382 371 l 631 371 z "},"Ǽ":{"ha":1354,"x_min":-74,"x_max":1354,"o":"m 921 1366 l 1063 1239 q 1004 1167 1046 1206 q 912 1096 961 1128 q 829 1051 863 1063 l 732 1134 l 921 1366 m 948 852 l 916 624 l 1200 627 l 1175 440 l 890 446 l 852 183 l 1282 190 l 1257 0 l 586 0 l 614 201 l 299 201 l 192 0 l -74 0 l 444 901 l 279 922 l 298 1038 l 1354 1038 l 1329 851 l 948 852 m 639 371 l 709 861 l 655 867 l 390 371 l 639 371 z "},"B":{"ha":917,"x_min":49,"x_max":878,"o":"m 673 545 q 813 470 764 526 q 863 332 863 414 q 732 72 863 155 q 361 -11 601 -11 q 254 -5 332 -11 q 154 0 178 0 l 49 0 l 197 1038 l 309 1038 q 369 1040 334 1038 q 416 1042 404 1042 q 533 1048 493 1048 q 878 812 878 1048 q 826 637 878 709 q 673 545 774 566 m 438 613 q 582 654 534 613 q 630 785 630 696 q 595 861 630 841 q 490 882 559 882 q 415 880 445 882 l 377 615 q 438 613 408 613 m 395 158 q 510 172 464 158 q 582 221 555 185 q 608 321 608 256 q 589 401 608 372 q 531 442 570 430 q 426 454 492 454 q 353 451 385 454 l 312 163 q 395 158 344 158 z "},"Ḃ":{"ha":935,"x_min":57,"x_max":886,"o":"m 448 1204 q 466 1272 448 1241 q 516 1321 484 1303 q 591 1339 549 1339 q 656 1325 629 1339 q 699 1286 684 1311 q 714 1233 714 1262 q 697 1162 714 1194 q 647 1112 680 1131 q 566 1093 614 1093 q 506 1108 533 1093 q 464 1148 479 1122 q 448 1204 448 1173 m 681 545 q 821 470 772 526 q 871 332 871 414 q 740 72 871 155 q 369 -11 609 -11 q 262 -5 340 -11 q 162 0 186 0 l 57 0 l 205 1038 l 317 1038 q 377 1040 342 1038 q 424 1042 412 1042 q 541 1048 501 1048 q 886 812 886 1048 q 834 637 886 709 q 681 545 782 566 m 446 613 q 590 654 542 613 q 638 785 638 696 q 603 861 638 841 q 498 882 568 882 q 423 880 453 882 l 385 615 q 446 613 416 613 m 403 158 q 518 172 472 158 q 590 221 564 185 q 616 321 616 256 q 597 401 616 372 q 539 442 578 430 q 434 454 500 454 q 361 451 393 454 l 320 163 q 403 158 352 158 z "},"C":{"ha":808,"x_min":56,"x_max":846,"o":"m 607 1048 q 723 1037 675 1048 q 810 1010 771 1026 l 846 1001 l 777 774 q 697 824 745 802 q 582 846 648 846 q 422 786 486 846 q 330 630 359 726 q 301 424 301 534 q 345 242 301 300 q 488 184 389 184 q 607 203 548 184 q 696 245 665 222 l 728 76 q 664 41 709 62 q 554 5 618 21 q 424 -11 491 -11 q 208 50 290 -11 q 91 208 126 111 q 56 423 56 305 q 126 735 56 592 q 322 964 197 879 q 607 1048 448 1048 z "},"Ć":{"ha":808,"x_min":56,"x_max":847,"o":"m 607 1048 q 723 1037 675 1048 q 810 1010 771 1026 l 846 1001 l 777 774 q 697 824 745 802 q 582 846 648 846 q 422 786 486 846 q 330 630 359 726 q 301 424 301 534 q 345 242 301 300 q 488 184 389 184 q 607 203 548 184 q 696 245 665 222 l 728 76 q 664 41 709 62 q 554 5 618 21 q 424 -11 491 -11 q 208 50 290 -11 q 91 208 126 111 q 56 423 56 305 q 126 735 56 592 q 322 964 197 879 q 607 1048 448 1048 m 705 1366 l 847 1239 q 787 1167 830 1206 q 695 1096 745 1128 q 612 1051 646 1063 l 515 1134 l 705 1366 z "},"Č":{"ha":808,"x_min":56,"x_max":877,"o":"m 607 1048 q 723 1037 675 1048 q 810 1010 771 1026 l 846 1001 l 777 774 q 697 824 745 802 q 582 846 648 846 q 422 786 486 846 q 330 630 359 726 q 301 424 301 534 q 345 242 301 300 q 488 184 389 184 q 607 203 548 184 q 696 245 665 222 l 728 76 q 664 41 709 62 q 554 5 618 21 q 424 -11 491 -11 q 208 50 290 -11 q 91 208 126 111 q 56 423 56 305 q 126 735 56 592 q 322 964 197 879 q 607 1048 448 1048 m 458 1366 l 582 1246 l 777 1366 l 877 1320 l 625 1084 l 503 1084 l 359 1313 l 458 1366 z "},"Ç":{"ha":808,"x_min":56,"x_max":846,"o":"m 582 846 q 422 786 486 846 q 330 630 359 726 q 301 424 301 534 q 345 242 301 300 q 488 184 389 184 q 607 203 548 184 q 696 245 665 222 l 728 76 q 677 48 713 64 q 593 16 642 31 q 489 -7 543 0 q 509 -84 500 -39 q 517 -160 517 -129 q 469 -275 517 -233 q 313 -318 420 -318 q 222 -310 283 -318 q 151 -294 161 -302 l 175 -157 q 199 -164 184 -161 q 229 -168 214 -168 q 318 -150 287 -168 q 352 -83 349 -132 q 353 -47 353 -58 q 351 -5 353 -23 q 178 74 244 11 q 84 227 113 136 q 56 423 56 317 q 126 735 56 592 q 322 964 197 879 q 607 1048 448 1048 q 723 1037 675 1048 q 810 1010 771 1026 l 846 1001 l 777 774 q 697 824 745 802 q 582 846 648 846 z "},"Ĉ":{"ha":808,"x_min":56,"x_max":852,"o":"m 607 1048 q 723 1037 675 1048 q 810 1010 771 1026 l 846 1001 l 777 774 q 697 824 745 802 q 582 846 648 846 q 422 786 486 846 q 330 630 359 726 q 301 424 301 534 q 345 242 301 300 q 488 184 389 184 q 607 203 548 184 q 696 245 665 222 l 728 76 q 664 41 709 62 q 554 5 618 21 q 424 -11 491 -11 q 208 50 290 -11 q 91 208 126 111 q 56 423 56 305 q 126 735 56 592 q 322 964 197 879 q 607 1048 448 1048 m 587 1366 l 709 1366 l 852 1137 l 754 1084 l 630 1198 l 435 1084 l 335 1130 l 587 1366 z "},"Ċ":{"ha":817,"x_min":64,"x_max":854,"o":"m 475 1204 q 493 1272 475 1241 q 543 1321 511 1303 q 617 1339 575 1339 q 683 1325 655 1339 q 726 1286 711 1311 q 741 1233 741 1262 q 724 1162 741 1194 q 673 1112 707 1131 q 593 1093 640 1093 q 533 1108 559 1093 q 490 1148 506 1122 q 475 1204 475 1173 m 615 1048 q 731 1037 684 1048 q 818 1010 779 1026 l 854 1001 l 785 774 q 705 824 753 802 q 590 846 656 846 q 431 786 494 846 q 338 630 368 726 q 309 424 309 534 q 353 242 309 300 q 496 184 397 184 q 615 203 556 184 q 705 245 673 222 l 736 76 q 672 41 718 62 q 563 5 626 21 q 432 -11 499 -11 q 216 50 298 -11 q 99 208 134 111 q 64 423 64 305 q 135 735 64 592 q 331 964 205 879 q 615 1048 456 1048 z "},"D":{"ha":965,"x_min":49,"x_max":960,"o":"m 566 1048 q 865 939 771 1048 q 960 632 960 829 q 896 312 960 458 q 702 77 831 165 q 386 -11 572 -11 q 288 -6 355 -11 l 272 -5 q 146 0 188 0 l 49 0 l 197 1038 l 303 1038 q 429 1043 330 1038 q 566 1048 534 1048 m 420 165 q 582 228 516 165 q 681 397 648 290 q 713 635 713 503 q 692 780 713 728 q 629 851 671 831 q 516 871 587 871 q 463 869 493 871 q 412 863 432 867 l 315 180 q 420 165 357 165 z "},"Ǳ":{"ha":1750,"x_min":49,"x_max":1817,"o":"m 566 1048 q 865 939 771 1048 q 960 632 960 829 q 896 312 960 458 q 702 77 831 165 q 386 -11 572 -11 q 288 -6 355 -11 l 272 -5 q 146 0 188 0 l 49 0 l 197 1038 l 303 1038 q 429 1043 330 1038 q 566 1048 534 1048 m 420 165 q 582 228 516 165 q 681 397 648 290 q 713 635 713 503 q 692 780 713 728 q 629 851 671 831 q 516 871 587 871 q 463 869 493 871 q 412 863 432 867 l 315 180 q 420 165 357 165 m 1444 806 l 1507 851 l 1109 844 l 1140 1038 l 1802 1038 l 1817 979 l 1314 241 l 1257 191 l 1676 198 l 1645 0 l 937 0 l 919 60 l 1444 806 z "},"Ǆ":{"ha":1750,"x_min":49,"x_max":1817,"o":"m 566 1048 q 865 939 771 1048 q 960 632 960 829 q 896 312 960 458 q 702 77 831 165 q 386 -11 572 -11 q 288 -6 355 -11 l 272 -5 q 146 0 188 0 l 49 0 l 197 1038 l 303 1038 q 429 1043 330 1038 q 566 1048 534 1048 m 420 165 q 582 228 516 165 q 681 397 648 290 q 713 635 713 503 q 692 780 713 728 q 629 851 671 831 q 516 871 587 871 q 463 869 493 871 q 412 863 432 867 l 315 180 q 420 165 357 165 m 1444 806 l 1507 851 l 1109 844 l 1140 1038 l 1802 1038 l 1817 979 l 1314 241 l 1257 191 l 1676 198 l 1645 0 l 937 0 l 919 60 l 1444 806 m 1350 1366 l 1474 1246 l 1669 1366 l 1769 1320 l 1518 1084 l 1396 1084 l 1252 1313 l 1350 1366 z "},"Ð":{"ha":975,"x_min":20,"x_max":968,"o":"m 574 1050 q 874 940 780 1050 q 968 633 968 830 q 904 313 968 460 q 711 79 840 167 q 395 -9 581 -9 q 297 -5 363 -9 l 281 -4 q 155 1 197 1 l 58 1 l 123 456 l 20 456 l 37 627 l 147 627 l 206 1039 l 312 1039 q 438 1044 339 1039 q 574 1050 543 1050 m 429 166 q 591 229 525 166 q 689 398 657 292 q 722 637 722 505 q 701 781 722 730 q 638 852 680 832 q 525 873 595 873 q 471 870 502 873 q 421 864 441 868 l 387 627 l 587 627 l 569 456 l 363 456 l 323 181 q 429 166 366 166 z "},"Ď":{"ha":973,"x_min":57,"x_max":968,"o":"m 479 1366 l 603 1246 l 798 1366 l 898 1320 l 646 1084 l 524 1084 l 380 1313 l 479 1366 m 574 1048 q 873 939 779 1048 q 968 632 968 829 q 904 312 968 458 q 710 77 840 165 q 394 -11 581 -11 q 296 -6 363 -11 l 280 -5 q 155 0 196 0 l 57 0 l 205 1038 l 311 1038 q 437 1043 338 1038 q 574 1048 542 1048 m 428 165 q 590 228 524 165 q 689 397 656 290 q 721 635 721 503 q 700 780 721 728 q 637 851 680 831 q 524 871 595 871 q 471 869 501 871 q 420 863 440 867 l 323 180 q 428 165 366 165 z "},"Đ":{"ha":975,"x_min":20,"x_max":968,"o":"m 574 1050 q 874 940 780 1050 q 968 633 968 830 q 904 313 968 460 q 711 79 840 167 q 395 -9 581 -9 q 297 -5 363 -9 l 281 -4 q 155 1 197 1 l 58 1 l 123 456 l 20 456 l 37 627 l 147 627 l 206 1039 l 312 1039 q 438 1044 339 1039 q 574 1050 543 1050 m 429 166 q 591 229 525 166 q 689 398 657 292 q 722 637 722 505 q 701 781 722 730 q 638 852 680 832 q 525 873 595 873 q 471 870 502 873 q 421 864 441 868 l 387 627 l 587 627 l 569 456 l 363 456 l 323 181 q 429 166 366 166 z "},"Ḋ":{"ha":973,"x_min":57,"x_max":968,"o":"m 474 1204 q 492 1272 474 1241 q 542 1321 510 1303 q 616 1339 574 1339 q 682 1325 654 1339 q 725 1286 710 1311 q 740 1233 740 1262 q 723 1162 740 1194 q 673 1112 706 1131 q 592 1093 640 1093 q 532 1108 559 1093 q 490 1148 505 1122 q 474 1204 474 1173 m 574 1048 q 873 939 779 1048 q 968 632 968 829 q 904 312 968 458 q 710 77 840 165 q 394 -11 581 -11 q 296 -6 363 -11 l 280 -5 q 155 0 196 0 l 57 0 l 205 1038 l 311 1038 q 437 1043 338 1038 q 574 1048 542 1048 m 428 165 q 590 228 524 165 q 689 397 656 290 q 721 635 721 503 q 700 780 721 728 q 637 851 680 831 q 524 871 595 871 q 471 869 501 871 q 420 863 440 867 l 323 180 q 428 165 366 165 z "},"ǲ":{"ha":1632,"x_min":49,"x_max":1662,"o":"m 566 1048 q 865 939 771 1048 q 960 632 960 829 q 896 312 960 458 q 702 77 831 165 q 386 -11 572 -11 q 288 -6 355 -11 l 272 -5 q 146 0 188 0 l 49 0 l 197 1038 l 303 1038 q 429 1043 330 1038 q 566 1048 534 1048 m 420 165 q 582 228 516 165 q 681 397 648 290 q 713 635 713 503 q 692 780 713 728 q 629 851 671 831 q 516 871 587 871 q 463 869 493 871 q 412 863 432 867 l 315 180 q 420 165 357 165 m 1263 184 l 1572 184 l 1553 0 l 958 0 l 935 31 l 1310 566 l 1345 592 l 1055 592 l 1080 773 l 1638 773 l 1662 743 l 1292 205 l 1263 184 z "},"ǅ":{"ha":1632,"x_min":49,"x_max":1711,"o":"m 566 1048 q 865 939 771 1048 q 960 632 960 829 q 896 312 960 458 q 702 77 831 165 q 386 -11 572 -11 q 288 -6 355 -11 l 272 -5 q 146 0 188 0 l 49 0 l 197 1038 l 303 1038 q 429 1043 330 1038 q 566 1048 534 1048 m 420 165 q 582 228 516 165 q 681 397 648 290 q 713 635 713 503 q 692 780 713 728 q 629 851 671 831 q 516 871 587 871 q 463 869 493 871 q 412 863 432 867 l 315 180 q 420 165 357 165 m 1263 184 l 1572 184 l 1553 0 l 958 0 l 935 31 l 1310 566 l 1345 592 l 1055 592 l 1080 773 l 1638 773 l 1662 743 l 1292 205 l 1263 184 m 1279 1153 l 1423 1024 l 1611 1152 l 1711 1107 l 1459 853 l 1337 853 l 1194 1107 l 1279 1153 z "},"E":{"ha":817,"x_min":49,"x_max":817,"o":"m 817 1038 l 792 851 l 411 852 l 378 624 l 663 627 l 638 440 l 353 446 l 315 183 l 745 190 l 720 0 l 49 0 l 197 1038 l 817 1038 z "},"É":{"ha":817,"x_min":49,"x_max":817,"o":"m 637 1366 l 780 1239 q 720 1167 763 1206 q 628 1096 677 1128 q 545 1051 579 1063 l 448 1134 l 637 1366 m 817 1038 l 792 851 l 411 852 l 378 624 l 663 627 l 638 440 l 353 446 l 315 183 l 745 190 l 720 0 l 49 0 l 197 1038 l 817 1038 z "},"Ĕ":{"ha":817,"x_min":49,"x_max":817,"o":"m 311 1308 q 314 1338 311 1319 q 319 1366 317 1356 l 447 1366 q 444 1335 444 1347 q 452 1289 444 1306 q 481 1263 460 1272 q 542 1255 503 1255 q 620 1285 596 1255 q 652 1366 644 1316 l 777 1366 q 778 1343 778 1358 q 751 1231 778 1285 q 668 1142 724 1177 q 531 1107 612 1107 q 363 1159 414 1107 q 311 1308 311 1211 m 817 1038 l 792 851 l 411 852 l 378 624 l 663 627 l 638 440 l 353 446 l 315 183 l 745 190 l 720 0 l 49 0 l 197 1038 l 817 1038 z "},"Ě":{"ha":817,"x_min":49,"x_max":817,"o":"m 391 1366 l 515 1246 l 709 1366 l 810 1320 l 558 1084 l 436 1084 l 292 1313 l 391 1366 m 817 1038 l 792 851 l 411 852 l 378 624 l 663 627 l 638 440 l 353 446 l 315 183 l 745 190 l 720 0 l 49 0 l 197 1038 l 817 1038 z "},"Ê":{"ha":817,"x_min":49,"x_max":817,"o":"m 817 1038 l 792 851 l 411 852 l 378 624 l 663 627 l 638 440 l 353 446 l 315 183 l 745 190 l 720 0 l 49 0 l 197 1038 l 817 1038 m 519 1366 l 642 1366 l 785 1137 l 687 1084 l 563 1198 l 368 1084 l 268 1130 l 519 1366 z "},"Ë":{"ha":817,"x_min":49,"x_max":817,"o":"m 252 1218 q 268 1286 252 1255 q 311 1335 283 1317 q 377 1353 340 1353 q 432 1338 408 1353 q 469 1298 456 1322 q 482 1246 482 1274 q 450 1146 482 1185 q 354 1107 418 1107 q 304 1123 328 1107 q 267 1165 281 1139 q 252 1218 252 1191 m 574 1217 q 589 1286 574 1255 q 631 1335 604 1317 q 696 1353 659 1353 q 752 1338 728 1353 q 790 1298 777 1322 q 804 1246 804 1273 q 771 1146 804 1185 q 674 1107 738 1107 q 625 1123 648 1107 q 588 1164 602 1139 q 574 1217 574 1190 m 817 1038 l 792 851 l 411 852 l 378 624 l 663 627 l 638 440 l 353 446 l 315 183 l 745 190 l 720 0 l 49 0 l 197 1038 l 817 1038 z "},"Ė":{"ha":817,"x_min":49,"x_max":817,"o":"m 399 1204 q 417 1272 399 1241 q 468 1321 435 1303 q 542 1339 500 1339 q 608 1325 580 1339 q 650 1286 635 1311 q 665 1233 665 1262 q 648 1162 665 1194 q 598 1112 631 1131 q 517 1093 565 1093 q 457 1108 484 1093 q 415 1148 431 1122 q 399 1204 399 1173 m 817 1038 l 792 851 l 411 852 l 378 624 l 663 627 l 638 440 l 353 446 l 315 183 l 745 190 l 720 0 l 49 0 l 197 1038 l 817 1038 z "},"È":{"ha":817,"x_min":49,"x_max":817,"o":"m 413 1366 l 602 1134 l 505 1051 q 422 1096 471 1063 q 330 1167 373 1128 q 271 1239 288 1206 l 413 1366 m 817 1038 l 792 851 l 411 852 l 378 624 l 663 627 l 638 440 l 353 446 l 315 183 l 745 190 l 720 0 l 49 0 l 197 1038 l 817 1038 z "},"Ē":{"ha":817,"x_min":49,"x_max":817,"o":"m 735 1299 l 722 1158 l 330 1158 l 344 1299 l 735 1299 m 817 1038 l 792 851 l 411 852 l 378 624 l 663 627 l 638 440 l 353 446 l 315 183 l 745 190 l 720 0 l 49 0 l 197 1038 l 817 1038 z "},"Ę":{"ha":825,"x_min":57,"x_max":825,"o":"m 419 852 l 387 624 l 671 627 l 646 440 l 361 446 l 323 183 l 753 190 l 728 1 l 732 0 q 613 -68 661 -29 q 566 -139 566 -107 q 577 -177 566 -166 q 611 -188 589 -188 q 662 -177 638 -188 q 715 -144 685 -167 l 743 -262 q 647 -326 701 -305 q 519 -346 593 -346 q 444 -328 477 -346 q 393 -280 411 -310 q 375 -214 375 -250 q 406 -125 375 -169 q 481 -49 437 -82 q 562 0 525 -16 l 57 0 l 205 1038 l 825 1038 l 800 851 l 419 852 z "},"F":{"ha":732,"x_min":49,"x_max":779,"o":"m 779 1038 l 750 851 l 411 854 l 375 602 l 665 606 l 641 408 l 348 413 l 289 0 l 49 0 l 197 1038 l 779 1038 z "},"Ḟ":{"ha":732,"x_min":49,"x_max":779,"o":"m 368 1204 q 386 1272 368 1241 q 436 1321 404 1303 q 511 1339 469 1339 q 576 1325 549 1339 q 619 1286 604 1311 q 634 1233 634 1262 q 617 1162 634 1194 q 567 1112 600 1131 q 486 1093 534 1093 q 426 1108 453 1093 q 384 1148 399 1122 q 368 1204 368 1173 m 779 1038 l 750 851 l 411 854 l 375 602 l 665 606 l 641 408 l 348 413 l 289 0 l 49 0 l 197 1038 l 779 1038 z "},"G":{"ha":968,"x_min":50,"x_max":914,"o":"m 515 576 l 905 576 l 833 54 q 759 38 802 50 q 611 3 681 16 q 459 -11 541 -11 q 222 50 313 -11 q 90 205 130 110 q 50 412 50 301 q 123 743 50 597 q 322 968 196 888 q 600 1048 448 1048 q 743 1038 684 1048 q 850 1010 801 1027 l 914 988 l 864 770 q 803 804 844 785 q 707 838 762 823 q 594 852 652 852 q 419 788 487 852 q 323 627 352 724 q 294 423 294 529 q 344 234 294 299 q 495 169 394 169 q 567 174 527 169 q 630 191 606 180 l 661 387 l 492 387 l 515 576 z "},"Ǵ":{"ha":968,"x_min":50,"x_max":914,"o":"m 515 576 l 905 576 l 833 54 q 759 38 802 50 q 611 3 681 16 q 459 -11 541 -11 q 222 50 313 -11 q 90 205 130 110 q 50 412 50 301 q 123 743 50 597 q 322 968 196 888 q 600 1048 448 1048 q 743 1038 684 1048 q 850 1010 801 1027 l 914 988 l 864 770 q 803 804 844 785 q 707 838 762 823 q 594 852 652 852 q 419 788 487 852 q 323 627 352 724 q 294 423 294 529 q 344 234 294 299 q 495 169 394 169 q 567 174 527 169 q 630 191 606 180 l 661 387 l 492 387 l 515 576 m 744 1366 l 886 1239 q 827 1167 869 1206 q 735 1096 784 1128 q 652 1051 686 1063 l 555 1134 l 744 1366 z "},"Ğ":{"ha":976,"x_min":58,"x_max":922,"o":"m 426 1308 q 429 1338 426 1319 q 434 1366 431 1356 l 562 1366 q 559 1335 559 1347 q 567 1289 559 1306 q 596 1263 575 1272 q 656 1255 617 1255 q 735 1285 711 1255 q 767 1366 759 1316 l 892 1366 q 892 1343 892 1358 q 866 1231 892 1285 q 783 1142 839 1177 q 646 1107 727 1107 q 477 1159 529 1107 q 426 1308 426 1211 m 523 576 l 913 576 l 841 54 q 767 38 810 50 q 619 3 689 16 q 467 -11 549 -11 q 230 50 321 -11 q 98 205 138 110 q 58 412 58 301 q 131 743 58 597 q 330 968 204 888 q 608 1048 456 1048 q 751 1038 692 1048 q 858 1010 809 1027 l 922 988 l 872 770 q 811 804 852 785 q 715 838 770 823 q 602 852 660 852 q 428 788 495 852 q 331 627 360 724 q 302 423 302 529 q 352 234 302 299 q 503 169 402 169 q 575 174 535 169 q 638 191 614 180 l 669 387 l 500 387 l 523 576 z "},"Ǧ":{"ha":968,"x_min":50,"x_max":916,"o":"m 515 576 l 905 576 l 833 54 q 759 38 802 50 q 611 3 681 16 q 459 -11 541 -11 q 222 50 313 -11 q 90 205 130 110 q 50 412 50 301 q 123 743 50 597 q 322 968 196 888 q 600 1048 448 1048 q 743 1038 684 1048 q 850 1010 801 1027 l 914 988 l 864 770 q 803 804 844 785 q 707 838 762 823 q 594 852 652 852 q 419 788 487 852 q 323 627 352 724 q 294 423 294 529 q 344 234 294 299 q 495 169 394 169 q 567 174 527 169 q 630 191 606 180 l 661 387 l 492 387 l 515 576 m 497 1366 l 621 1246 l 816 1366 l 916 1320 l 665 1084 l 543 1084 l 399 1313 l 497 1366 z "},"Ĝ":{"ha":968,"x_min":50,"x_max":914,"o":"m 515 576 l 905 576 l 833 54 q 759 38 802 50 q 611 3 681 16 q 459 -11 541 -11 q 222 50 313 -11 q 90 205 130 110 q 50 412 50 301 q 123 743 50 597 q 322 968 196 888 q 600 1048 448 1048 q 743 1038 684 1048 q 850 1010 801 1027 l 914 988 l 864 770 q 803 804 844 785 q 707 838 762 823 q 594 852 652 852 q 419 788 487 852 q 323 627 352 724 q 294 423 294 529 q 344 234 294 299 q 495 169 394 169 q 567 174 527 169 q 630 191 606 180 l 661 387 l 492 387 l 515 576 m 626 1366 l 748 1366 l 892 1137 l 793 1084 l 669 1198 l 475 1084 l 374 1130 l 626 1366 z "},"Ģ":{"ha":976,"x_min":58,"x_max":922,"o":"m 406 -96 l 511 -25 q 567 -52 542 -31 q 605 -103 591 -73 q 619 -169 619 -134 q 596 -270 619 -224 q 536 -344 572 -315 q 464 -380 500 -373 l 395 -332 l 397 -315 q 429 -282 414 -305 q 444 -227 444 -260 q 431 -181 444 -201 q 398 -159 418 -161 l 406 -96 m 523 576 l 913 576 l 841 54 q 767 38 810 50 q 619 3 689 16 q 467 -11 549 -11 q 230 50 321 -11 q 98 205 138 110 q 58 412 58 301 q 131 743 58 597 q 330 968 204 888 q 608 1048 456 1048 q 751 1038 692 1048 q 858 1010 809 1027 l 922 988 l 872 770 q 811 804 852 785 q 715 838 770 823 q 602 852 660 852 q 428 788 495 852 q 331 627 360 724 q 302 423 302 529 q 352 234 302 299 q 503 169 402 169 q 575 174 535 169 q 638 191 614 180 l 669 387 l 500 387 l 523 576 z "},"Ġ":{"ha":976,"x_min":58,"x_max":922,"o":"m 514 1204 q 532 1272 514 1241 q 582 1321 550 1303 q 656 1339 614 1339 q 722 1325 694 1339 q 765 1286 750 1311 q 780 1233 780 1262 q 763 1162 780 1194 q 713 1112 746 1131 q 632 1093 680 1093 q 572 1108 599 1093 q 530 1148 545 1122 q 514 1204 514 1173 m 523 576 l 913 576 l 841 54 q 767 38 810 50 q 619 3 689 16 q 467 -11 549 -11 q 230 50 321 -11 q 98 205 138 110 q 58 412 58 301 q 131 743 58 597 q 330 968 204 888 q 608 1048 456 1048 q 751 1038 692 1048 q 858 1010 809 1027 l 922 988 l 872 770 q 811 804 852 785 q 715 838 770 823 q 602 852 660 852 q 428 788 495 852 q 331 627 360 724 q 302 423 302 529 q 352 234 302 299 q 503 169 402 169 q 575 174 535 169 q 638 191 614 180 l 669 387 l 500 387 l 523 576 z "},"Ḡ":{"ha":968,"x_min":50,"x_max":914,"o":"m 515 576 l 905 576 l 833 54 q 759 38 802 50 q 611 3 681 16 q 459 -11 541 -11 q 222 50 313 -11 q 90 205 130 110 q 50 412 50 301 q 123 743 50 597 q 322 968 196 888 q 600 1048 448 1048 q 743 1038 684 1048 q 850 1010 801 1027 l 914 988 l 864 770 q 803 804 844 785 q 707 838 762 823 q 594 852 652 852 q 419 788 487 852 q 323 627 352 724 q 294 423 294 529 q 344 234 294 299 q 495 169 394 169 q 567 174 527 169 q 630 191 606 180 l 661 387 l 492 387 l 515 576 m 842 1299 l 828 1158 l 437 1158 l 450 1299 l 842 1299 z "},"H":{"ha":1017,"x_min":41,"x_max":999,"o":"m 999 1038 l 850 0 l 608 0 l 668 422 l 341 422 l 281 0 l 41 0 l 189 1038 l 429 1038 l 365 587 l 692 587 l 756 1038 l 999 1038 z "},"Ħ":{"ha":1025,"x_min":-1,"x_max":1112,"o":"m 1094 622 l 956 622 l 867 0 l 624 0 l 667 299 l 340 299 l 297 0 l 57 0 l 146 622 l -1 622 l 16 792 l 170 792 l 205 1038 l 446 1038 l 410 792 l 737 792 l 772 1038 l 1015 1038 l 980 792 l 1112 792 l 1094 622 m 713 622 l 386 622 l 364 469 l 691 469 l 713 622 z "},"Ĥ":{"ha":1017,"x_min":41,"x_max":999,"o":"m 999 1038 l 850 0 l 608 0 l 668 422 l 341 422 l 281 0 l 41 0 l 189 1038 l 429 1038 l 365 587 l 692 587 l 756 1038 l 999 1038 m 593 1366 l 715 1366 l 859 1137 l 760 1084 l 636 1198 l 441 1084 l 341 1130 l 593 1366 z "},"I":{"ha":479,"x_min":66,"x_max":455,"o":"m 455 1038 l 307 0 l 66 0 l 215 1038 l 455 1038 z "},"Ĳ":{"ha":951,"x_min":66,"x_max":931,"o":"m 455 1038 l 307 0 l 66 0 l 215 1038 l 455 1038 m 931 1038 q 890 757 913 914 q 857 528 867 600 q 806 176 821 274 q 784 51 791 78 q 636 -175 745 -109 q 387 -242 527 -242 l 357 -162 q 453 -114 412 -149 q 517 -34 493 -79 q 549 58 541 11 q 597 343 574 183 q 652 753 621 504 q 690 1038 680 970 l 931 1038 z "},"Í":{"ha":479,"x_min":66,"x_max":604,"o":"m 455 1038 l 307 0 l 66 0 l 215 1038 l 455 1038 m 462 1366 l 604 1239 q 545 1167 587 1206 q 453 1096 502 1128 q 370 1051 404 1063 l 273 1134 l 462 1366 z "},"Ĭ":{"ha":479,"x_min":66,"x_max":602,"o":"m 455 1038 l 307 0 l 66 0 l 215 1038 l 455 1038 m 136 1308 q 138 1338 136 1319 q 144 1366 141 1356 l 271 1366 q 269 1335 269 1347 q 277 1289 269 1306 q 306 1263 285 1272 q 366 1255 327 1255 q 445 1285 420 1255 q 477 1366 469 1316 l 602 1366 q 602 1343 602 1358 q 575 1231 602 1285 q 493 1142 549 1177 q 355 1107 437 1107 q 187 1159 239 1107 q 136 1308 136 1211 z "},"Ǐ":{"ha":479,"x_min":66,"x_max":634,"o":"m 455 1038 l 307 0 l 66 0 l 215 1038 l 455 1038 m 215 1366 l 339 1246 l 534 1366 l 634 1320 l 382 1084 l 260 1084 l 117 1313 l 215 1366 z "},"Î":{"ha":479,"x_min":66,"x_max":610,"o":"m 455 1038 l 307 0 l 66 0 l 215 1038 l 455 1038 m 344 1366 l 466 1366 l 610 1137 l 511 1084 l 387 1198 l 193 1084 l 92 1130 l 344 1366 z "},"Ï":{"ha":479,"x_min":66,"x_max":628,"o":"m 455 1038 l 307 0 l 66 0 l 215 1038 l 455 1038 m 77 1218 q 92 1286 77 1255 q 136 1335 107 1317 q 201 1353 164 1353 q 256 1338 232 1353 q 293 1298 280 1322 q 307 1246 307 1274 q 274 1146 307 1185 q 178 1107 242 1107 q 129 1123 153 1107 q 91 1165 105 1139 q 77 1218 77 1191 m 398 1217 q 413 1286 398 1255 q 456 1335 428 1317 q 521 1353 484 1353 q 576 1338 552 1353 q 614 1298 601 1322 q 628 1246 628 1273 q 595 1146 628 1185 q 498 1107 562 1107 q 449 1123 472 1107 q 412 1164 426 1139 q 398 1217 398 1190 z "},"İ":{"ha":479,"x_min":66,"x_max":490,"o":"m 455 1038 l 307 0 l 66 0 l 215 1038 l 455 1038 m 224 1204 q 242 1272 224 1241 q 292 1321 260 1303 q 366 1339 324 1339 q 432 1325 404 1339 q 475 1286 460 1311 q 490 1233 490 1262 q 473 1162 490 1194 q 422 1112 456 1131 q 342 1093 389 1093 q 282 1108 309 1093 q 239 1148 255 1122 q 224 1204 224 1173 z "},"Ì":{"ha":479,"x_min":66,"x_max":455,"o":"m 455 1038 l 307 0 l 66 0 l 215 1038 l 455 1038 m 237 1366 l 427 1134 l 330 1051 q 247 1096 296 1063 q 155 1167 197 1128 q 95 1239 112 1206 l 237 1366 z "},"Ī":{"ha":479,"x_min":66,"x_max":559,"o":"m 455 1038 l 307 0 l 66 0 l 215 1038 l 455 1038 m 559 1299 l 546 1158 l 155 1158 l 168 1299 l 559 1299 z "},"Į":{"ha":479,"x_min":-113,"x_max":455,"o":"m 245 0 q 126 -68 174 -29 q 78 -139 78 -107 q 90 -177 78 -166 q 123 -188 102 -188 q 174 -177 151 -188 q 227 -144 197 -167 l 255 -262 q 159 -326 214 -305 q 32 -346 105 -346 q -44 -328 -11 -346 q -95 -280 -77 -310 q -113 -214 -113 -250 q -81 -125 -113 -169 q -6 -49 -50 -82 q 75 0 37 -16 l 66 0 l 215 1038 l 455 1038 l 307 0 l 245 0 z "},"Ĩ":{"ha":479,"x_min":66,"x_max":694,"o":"m 455 1038 l 307 0 l 66 0 l 215 1038 l 455 1038 m 81 1209 q 131 1271 96 1240 q 210 1322 167 1302 q 288 1343 252 1343 q 342 1335 319 1343 q 381 1315 365 1326 q 418 1286 397 1304 q 459 1255 442 1265 q 498 1245 475 1245 q 545 1256 524 1245 q 579 1280 565 1266 q 613 1320 593 1295 l 694 1221 q 647 1156 680 1189 q 571 1101 613 1123 q 490 1080 528 1080 q 431 1087 456 1080 q 390 1106 406 1095 q 353 1135 373 1118 q 309 1167 327 1157 q 262 1177 290 1177 q 205 1161 232 1177 q 153 1117 179 1144 l 81 1209 z "},"J":{"ha":473,"x_min":-122,"x_max":452,"o":"m 452 1038 q 411 757 434 914 q 378 528 389 600 q 328 176 342 274 q 305 51 313 78 q 157 -175 266 -109 q -92 -242 48 -242 l -122 -162 q -26 -114 -66 -149 q 38 -34 14 -79 q 70 58 62 11 q 119 343 96 183 q 174 753 142 504 q 211 1038 201 970 l 452 1038 z "},"Ĵ":{"ha":473,"x_min":-122,"x_max":595,"o":"m 452 1038 q 411 757 434 914 q 378 528 389 600 q 328 176 342 274 q 305 51 313 78 q 157 -175 266 -109 q -92 -242 48 -242 l -122 -162 q -26 -114 -66 -149 q 38 -34 14 -79 q 70 58 62 11 q 119 343 96 183 q 174 753 142 504 q 211 1038 201 970 l 452 1038 m 329 1366 l 451 1366 l 595 1137 l 496 1084 l 372 1198 l 178 1084 l 77 1130 l 329 1366 z "},"K":{"ha":907,"x_min":49,"x_max":1004,"o":"m 593 581 q 705 360 625 520 l 769 233 q 898 -1 844 85 l 615 1 q 520 208 602 20 l 435 406 l 330 290 l 289 0 l 49 0 l 197 1038 l 437 1038 l 373 589 l 730 1038 l 1004 1038 l 593 581 z "},"Ķ":{"ha":915,"x_min":57,"x_max":1012,"o":"m 336 -94 l 441 -24 q 497 -51 472 -30 q 535 -102 522 -71 q 549 -168 549 -132 q 526 -268 549 -222 q 467 -343 503 -314 q 394 -378 431 -372 l 326 -331 l 328 -313 q 359 -281 344 -304 q 374 -226 374 -258 q 361 -180 374 -200 q 328 -157 348 -159 l 336 -94 m 601 581 q 713 360 633 520 l 777 233 q 906 -1 852 85 l 623 1 q 528 208 610 20 l 443 406 l 338 290 l 297 0 l 57 0 l 205 1038 l 446 1038 l 381 589 l 738 1038 l 1012 1038 l 601 581 z "},"L":{"ha":724,"x_min":49,"x_max":652,"o":"m 437 1038 l 315 188 l 652 195 l 624 0 l 49 0 l 197 1038 l 437 1038 z "},"Ǉ":{"ha":1197,"x_min":49,"x_max":1177,"o":"m 437 1038 l 315 188 l 652 195 l 624 0 l 49 0 l 197 1038 l 437 1038 m 1177 1038 q 1136 757 1158 914 q 1103 528 1113 600 q 1052 176 1067 274 q 1029 51 1037 78 q 881 -175 990 -109 q 632 -242 772 -242 l 602 -162 q 698 -114 658 -149 q 762 -34 739 -79 q 794 58 786 11 q 843 343 820 183 q 898 753 866 504 q 935 1038 926 970 l 1177 1038 z "},"Ĺ":{"ha":732,"x_min":57,"x_max":661,"o":"m 475 1367 l 617 1240 q 557 1169 600 1208 q 466 1097 515 1130 q 382 1053 416 1065 l 286 1135 l 475 1367 m 446 1038 l 323 188 l 661 195 l 632 0 l 57 0 l 205 1038 l 446 1038 z "},"Ľ":{"ha":732,"x_min":49,"x_max":777,"o":"m 437 1038 l 315 188 l 652 195 l 624 0 l 49 0 l 197 1038 l 437 1038 m 571 719 q 591 808 583 751 q 599 923 599 865 q 583 1059 599 1035 l 595 1088 l 751 1120 q 770 1072 764 1107 q 777 992 777 1036 q 751 820 777 907 q 677 683 724 732 l 575 702 l 571 719 z "},"Ļ":{"ha":732,"x_min":57,"x_max":661,"o":"m 208 -94 l 314 -24 q 369 -51 345 -30 q 408 -102 394 -71 q 422 -168 422 -132 q 398 -268 422 -222 q 339 -343 375 -314 q 267 -378 303 -372 l 198 -331 l 200 -313 q 232 -281 216 -304 q 247 -226 247 -258 q 234 -180 247 -200 q 201 -157 220 -159 l 208 -94 m 446 1038 l 323 188 l 661 195 l 632 0 l 57 0 l 205 1038 l 446 1038 z "},"Ŀ":{"ha":798,"x_min":49,"x_max":795,"o":"m 437 1038 l 315 188 l 652 195 l 624 0 l 49 0 l 197 1038 l 437 1038 m 686 755 q 769 727 743 755 q 795 654 795 699 q 778 577 795 610 q 727 525 760 543 q 651 507 694 507 q 574 535 602 507 q 545 610 545 564 q 563 682 545 648 q 612 735 580 715 q 686 755 644 755 z "},"ǈ":{"ha":1175,"x_min":49,"x_max":1181,"o":"m 437 1038 l 315 188 l 652 195 l 624 0 l 49 0 l 197 1038 l 437 1038 m 1128 773 l 1021 0 q 952 -195 1005 -114 q 824 -317 900 -275 q 661 -358 747 -358 q 586 -352 619 -358 q 538 -335 553 -347 l 598 -212 q 624 -218 607 -218 q 712 -184 681 -218 q 758 -98 744 -150 q 785 44 771 -47 l 884 773 l 1128 773 m 918 1002 q 936 1071 918 1039 q 987 1121 954 1103 q 1061 1140 1019 1140 q 1123 1125 1096 1140 q 1165 1085 1150 1110 q 1181 1030 1181 1060 q 1164 959 1181 991 q 1114 909 1147 928 q 1033 890 1080 890 q 977 905 1003 890 q 934 946 950 920 q 918 1002 918 971 z "},"Ł":{"ha":732,"x_min":-21,"x_max":667,"o":"m 323 189 l 661 197 l 632 1 l 57 1 l 109 366 l 18 334 l -21 459 l 130 512 l 205 1039 l 446 1039 l 382 601 l 629 687 l 667 556 l 361 452 l 323 189 z "},"M":{"ha":1348,"x_min":-21,"x_max":1286,"o":"m 612 1038 l 659 323 l 663 171 l 695 323 l 936 1038 l 1286 1038 l 1270 0 l 1031 0 l 1091 772 l 1109 931 l 1059 772 l 763 -2 l 499 -12 l 418 772 l 416 931 l 384 772 l 216 0 l -21 0 l 263 1038 l 612 1038 z "},"Ṁ":{"ha":1348,"x_min":-21,"x_max":1286,"o":"m 644 1204 q 662 1272 644 1241 q 712 1321 680 1303 q 787 1339 745 1339 q 852 1325 825 1339 q 895 1286 880 1311 q 910 1233 910 1262 q 893 1162 910 1194 q 843 1112 876 1131 q 762 1093 810 1093 q 702 1108 729 1093 q 660 1148 675 1122 q 644 1204 644 1173 m 612 1038 l 659 323 l 663 171 l 695 323 l 936 1038 l 1286 1038 l 1270 0 l 1031 0 l 1091 772 l 1109 931 l 1059 772 l 763 -2 l 499 -12 l 418 772 l 416 931 l 384 772 l 216 0 l -21 0 l 263 1038 l 612 1038 z "},"N":{"ha":1017,"x_min":49,"x_max":1007,"o":"m 406 1038 l 647 500 l 701 324 l 709 500 l 775 1038 l 1007 1038 l 859 0 l 657 0 l 421 565 l 354 751 l 356 565 l 278 0 l 49 0 l 197 1038 l 406 1038 z "},"Ǌ":{"ha":1490,"x_min":49,"x_max":1470,"o":"m 406 1038 l 647 500 l 701 324 l 709 500 l 775 1038 l 1007 1038 l 859 0 l 657 0 l 421 565 l 354 751 l 356 565 l 278 0 l 49 0 l 197 1038 l 406 1038 m 1470 1038 q 1429 757 1451 914 q 1396 528 1406 600 q 1345 176 1360 274 q 1322 51 1330 78 q 1174 -175 1283 -109 q 925 -242 1065 -242 l 895 -162 q 991 -114 951 -149 q 1055 -34 1031 -79 q 1087 58 1079 11 q 1136 343 1113 183 q 1191 753 1159 504 q 1228 1038 1219 970 l 1470 1038 z "},"Ń":{"ha":1025,"x_min":57,"x_max":1015,"o":"m 703 1366 l 846 1239 q 786 1167 829 1206 q 694 1096 743 1128 q 611 1051 645 1063 l 514 1134 l 703 1366 m 414 1038 l 655 500 l 709 324 l 718 500 l 783 1038 l 1015 1038 l 867 0 l 665 0 l 429 565 l 362 751 l 364 565 l 286 0 l 57 0 l 205 1038 l 414 1038 z "},"Ň":{"ha":1025,"x_min":57,"x_max":1015,"o":"m 470 1366 l 594 1246 l 789 1366 l 889 1320 l 637 1084 l 515 1084 l 372 1313 l 470 1366 m 414 1038 l 655 500 l 709 324 l 718 500 l 783 1038 l 1015 1038 l 867 0 l 665 0 l 429 565 l 362 751 l 364 565 l 286 0 l 57 0 l 205 1038 l 414 1038 z "},"Ņ":{"ha":1025,"x_min":57,"x_max":1015,"o":"m 374 -96 l 480 -25 q 535 -52 511 -31 q 574 -103 560 -73 q 588 -169 588 -134 q 565 -270 588 -224 q 505 -344 541 -315 q 433 -380 469 -373 l 364 -332 l 366 -315 q 398 -282 382 -305 q 413 -227 413 -260 q 400 -181 413 -201 q 367 -159 387 -161 l 374 -96 m 414 1038 l 655 500 l 709 324 l 718 500 l 783 1038 l 1015 1038 l 867 0 l 665 0 l 429 565 l 362 751 l 364 565 l 286 0 l 57 0 l 205 1038 l 414 1038 z "},"Ṅ":{"ha":1017,"x_min":49,"x_max":1007,"o":"m 406 1038 l 647 500 l 701 324 l 709 500 l 775 1038 l 1007 1038 l 859 0 l 657 0 l 421 565 l 354 751 l 356 565 l 278 0 l 49 0 l 197 1038 l 406 1038 m 471 1204 q 489 1272 471 1241 q 539 1321 507 1303 q 613 1339 571 1339 q 679 1325 651 1339 q 722 1286 707 1311 q 736 1233 736 1262 q 720 1162 736 1194 q 669 1112 703 1131 q 589 1093 636 1093 q 529 1108 555 1093 q 486 1148 502 1122 q 471 1204 471 1173 z "},"Ŋ":{"ha":1025,"x_min":57,"x_max":1015,"o":"m 1015 1038 l 867 0 q 805 -130 854 -68 q 670 -232 755 -191 q 471 -281 585 -273 l 433 -194 q 555 -130 510 -163 q 622 -59 600 -98 q 652 32 644 -21 l 429 565 l 362 751 l 364 565 l 286 0 l 57 0 l 205 1038 l 414 1038 l 655 500 l 709 324 l 718 500 l 783 1038 l 1015 1038 z "},"ǋ":{"ha":1468,"x_min":49,"x_max":1474,"o":"m 406 1038 l 647 500 l 701 324 l 709 500 l 775 1038 l 1007 1038 l 859 0 l 657 0 l 421 565 l 354 751 l 356 565 l 278 0 l 49 0 l 197 1038 l 406 1038 m 1421 773 l 1314 0 q 1245 -195 1298 -114 q 1117 -317 1193 -275 q 954 -358 1040 -358 q 879 -352 912 -358 q 831 -335 846 -347 l 891 -212 q 917 -218 900 -218 q 1005 -184 974 -218 q 1050 -98 1037 -150 q 1078 44 1064 -47 l 1177 773 l 1421 773 m 1211 1002 q 1229 1071 1211 1039 q 1280 1121 1247 1103 q 1354 1140 1312 1140 q 1416 1125 1389 1140 q 1458 1085 1443 1110 q 1474 1030 1474 1060 q 1457 959 1474 991 q 1407 909 1440 928 q 1326 890 1373 890 q 1270 905 1296 890 q 1227 946 1243 920 q 1211 1002 1211 971 z "},"Ñ":{"ha":1025,"x_min":57,"x_max":1015,"o":"m 336 1209 q 386 1271 351 1240 q 465 1322 422 1302 q 543 1343 507 1343 q 597 1335 574 1343 q 636 1315 620 1326 q 673 1286 652 1304 q 714 1255 697 1265 q 753 1245 730 1245 q 800 1256 779 1245 q 834 1280 820 1266 q 868 1320 848 1295 l 949 1221 q 902 1156 935 1189 q 826 1101 868 1123 q 745 1080 783 1080 q 686 1087 711 1080 q 645 1106 661 1095 q 608 1135 628 1118 q 564 1167 582 1157 q 517 1177 545 1177 q 460 1161 487 1177 q 408 1117 434 1144 l 336 1209 m 414 1038 l 655 500 l 709 324 l 718 500 l 783 1038 l 1015 1038 l 867 0 l 665 0 l 429 565 l 362 751 l 364 565 l 286 0 l 57 0 l 205 1038 l 414 1038 z "},"O":{"ha":945,"x_min":45,"x_max":925,"o":"m 45 392 q 107 721 45 571 q 285 960 169 871 q 557 1048 401 1048 q 759 994 675 1048 q 883 847 842 940 q 925 642 925 755 q 864 314 925 463 q 687 77 802 165 q 419 -11 572 -11 q 214 43 298 -11 q 87 188 130 96 q 45 392 45 279 m 678 634 q 662 773 678 722 q 613 846 645 825 q 531 868 581 868 q 405 798 459 868 q 321 619 350 727 q 292 404 292 511 q 308 264 292 316 q 357 191 325 213 q 438 170 389 170 q 565 239 510 170 q 649 416 619 309 q 678 634 678 524 z "},"Ó":{"ha":945,"x_min":45,"x_max":925,"o":"m 711 1366 l 853 1239 q 793 1167 836 1206 q 702 1096 751 1128 q 618 1051 652 1063 l 522 1134 l 711 1366 m 45 392 q 107 721 45 571 q 285 960 169 871 q 557 1048 401 1048 q 759 994 675 1048 q 883 847 842 940 q 925 642 925 755 q 864 314 925 463 q 687 77 802 165 q 419 -11 572 -11 q 214 43 298 -11 q 87 188 130 96 q 45 392 45 279 m 678 634 q 662 773 678 722 q 613 846 645 825 q 531 868 581 868 q 405 798 459 868 q 321 619 350 727 q 292 404 292 511 q 308 264 292 316 q 357 191 325 213 q 438 170 389 170 q 565 239 510 170 q 649 416 619 309 q 678 634 678 524 z "},"Ŏ":{"ha":945,"x_min":45,"x_max":925,"o":"m 385 1308 q 387 1338 385 1319 q 393 1366 390 1356 l 520 1366 q 517 1335 517 1347 q 526 1289 517 1306 q 555 1263 534 1272 q 615 1255 576 1255 q 693 1285 669 1255 q 726 1366 718 1316 l 850 1366 q 851 1343 851 1358 q 824 1231 851 1285 q 742 1142 798 1177 q 604 1107 686 1107 q 436 1159 488 1107 q 385 1308 385 1211 m 45 392 q 107 721 45 571 q 285 960 169 871 q 557 1048 401 1048 q 759 994 675 1048 q 883 847 842 940 q 925 642 925 755 q 864 314 925 463 q 687 77 802 165 q 419 -11 572 -11 q 214 43 298 -11 q 87 188 130 96 q 45 392 45 279 m 678 634 q 662 773 678 722 q 613 846 645 825 q 531 868 581 868 q 405 798 459 868 q 321 619 350 727 q 292 404 292 511 q 308 264 292 316 q 357 191 325 213 q 438 170 389 170 q 565 239 510 170 q 649 416 619 309 q 678 634 678 524 z "},"Ǒ":{"ha":945,"x_min":45,"x_max":925,"o":"m 45 392 q 107 721 45 571 q 285 960 169 871 q 557 1048 401 1048 q 759 994 675 1048 q 883 847 842 940 q 925 642 925 755 q 864 314 925 463 q 687 77 802 165 q 419 -11 572 -11 q 214 43 298 -11 q 87 188 130 96 q 45 392 45 279 m 678 634 q 662 773 678 722 q 613 846 645 825 q 531 868 581 868 q 405 798 459 868 q 321 619 350 727 q 292 404 292 511 q 308 264 292 316 q 357 191 325 213 q 438 170 389 170 q 565 239 510 170 q 649 416 619 309 q 678 634 678 524 m 464 1366 l 588 1246 l 783 1366 l 883 1320 l 631 1084 l 509 1084 l 366 1313 l 464 1366 z "},"Ô":{"ha":945,"x_min":45,"x_max":925,"o":"m 45 392 q 107 721 45 571 q 285 960 169 871 q 557 1048 401 1048 q 759 994 675 1048 q 883 847 842 940 q 925 642 925 755 q 864 314 925 463 q 687 77 802 165 q 419 -11 572 -11 q 214 43 298 -11 q 87 188 130 96 q 45 392 45 279 m 678 634 q 662 773 678 722 q 613 846 645 825 q 531 868 581 868 q 405 798 459 868 q 321 619 350 727 q 292 404 292 511 q 308 264 292 316 q 357 191 325 213 q 438 170 389 170 q 565 239 510 170 q 649 416 619 309 q 678 634 678 524 m 593 1366 l 715 1366 l 859 1137 l 760 1084 l 636 1198 l 441 1084 l 341 1130 l 593 1366 z "},"Ö":{"ha":945,"x_min":45,"x_max":925,"o":"m 326 1218 q 341 1286 326 1255 q 385 1335 356 1317 q 450 1353 413 1353 q 505 1338 481 1353 q 542 1298 529 1322 q 555 1246 555 1274 q 523 1146 555 1185 q 427 1107 491 1107 q 378 1123 401 1107 q 340 1165 354 1139 q 326 1218 326 1191 m 647 1217 q 662 1286 647 1255 q 705 1335 677 1317 q 770 1353 732 1353 q 825 1338 801 1353 q 863 1298 850 1322 q 877 1246 877 1273 q 844 1146 877 1185 q 747 1107 811 1107 q 698 1123 721 1107 q 661 1164 675 1139 q 647 1217 647 1190 m 45 392 q 107 721 45 571 q 285 960 169 871 q 557 1048 401 1048 q 759 994 675 1048 q 883 847 842 940 q 925 642 925 755 q 864 314 925 463 q 687 77 802 165 q 419 -11 572 -11 q 214 43 298 -11 q 87 188 130 96 q 45 392 45 279 m 678 634 q 662 773 678 722 q 613 846 645 825 q 531 868 581 868 q 405 798 459 868 q 321 619 350 727 q 292 404 292 511 q 308 264 292 316 q 357 191 325 213 q 438 170 389 170 q 565 239 510 170 q 649 416 619 309 q 678 634 678 524 z "},"Ò":{"ha":945,"x_min":45,"x_max":925,"o":"m 486 1366 l 675 1134 l 578 1051 q 495 1096 545 1063 q 404 1167 446 1128 q 344 1239 361 1206 l 486 1366 m 45 392 q 107 721 45 571 q 285 960 169 871 q 557 1048 401 1048 q 759 994 675 1048 q 883 847 842 940 q 925 642 925 755 q 864 314 925 463 q 687 77 802 165 q 419 -11 572 -11 q 214 43 298 -11 q 87 188 130 96 q 45 392 45 279 m 678 634 q 662 773 678 722 q 613 846 645 825 q 531 868 581 868 q 405 798 459 868 q 321 619 350 727 q 292 404 292 511 q 308 264 292 316 q 357 191 325 213 q 438 170 389 170 q 565 239 510 170 q 649 416 619 309 q 678 634 678 524 z "},"Ő":{"ha":945,"x_min":45,"x_max":976,"o":"m 45 392 q 107 721 45 571 q 285 960 169 871 q 557 1048 401 1048 q 759 994 675 1048 q 883 847 842 940 q 925 642 925 755 q 864 314 925 463 q 687 77 802 165 q 419 -11 572 -11 q 214 43 298 -11 q 87 188 130 96 q 45 392 45 279 m 678 634 q 662 773 678 722 q 613 846 645 825 q 531 868 581 868 q 405 798 459 868 q 321 619 350 727 q 292 404 292 511 q 308 264 292 316 q 357 191 325 213 q 438 170 389 170 q 565 239 510 170 q 649 416 619 309 q 678 634 678 524 m 518 1366 l 642 1269 q 585 1186 625 1231 q 495 1105 544 1141 q 409 1057 447 1069 l 326 1116 l 518 1366 m 854 1366 l 976 1268 q 912 1183 951 1227 q 826 1104 872 1139 q 741 1057 781 1069 l 661 1116 l 854 1366 z "},"Ō":{"ha":945,"x_min":45,"x_max":925,"o":"m 808 1299 l 795 1158 l 404 1158 l 417 1299 l 808 1299 m 45 392 q 107 721 45 571 q 285 960 169 871 q 557 1048 401 1048 q 759 994 675 1048 q 883 847 842 940 q 925 642 925 755 q 864 314 925 463 q 687 77 802 165 q 419 -11 572 -11 q 214 43 298 -11 q 87 188 130 96 q 45 392 45 279 m 678 634 q 662 773 678 722 q 613 846 645 825 q 531 868 581 868 q 405 798 459 868 q 321 619 350 727 q 292 404 292 511 q 308 264 292 316 q 357 191 325 213 q 438 170 389 170 q 565 239 510 170 q 649 416 619 309 q 678 634 678 524 z "},"Ø":{"ha":945,"x_min":45,"x_max":925,"o":"m 802 962 q 894 823 863 906 q 925 643 925 741 q 864 315 925 465 q 687 78 802 166 q 419 -9 572 -9 q 233 33 314 -9 l 156 -90 l 96 -56 l 176 71 q 78 209 111 125 q 45 393 45 293 q 107 722 45 572 q 285 961 169 872 q 557 1050 401 1050 q 747 1002 667 1050 l 821 1133 l 882 1099 l 802 962 m 531 869 q 405 799 459 869 q 321 621 350 728 q 292 406 292 513 q 308 268 292 320 l 629 834 q 531 869 595 869 m 438 171 q 565 240 510 171 q 649 417 619 310 q 678 635 678 525 q 666 761 678 712 l 347 201 q 438 171 379 171 z "},"Ǿ":{"ha":945,"x_min":45,"x_max":925,"o":"m 802 962 q 894 823 863 906 q 925 643 925 741 q 864 315 925 465 q 687 78 802 166 q 419 -9 572 -9 q 233 33 314 -9 l 156 -90 l 96 -56 l 176 71 q 78 209 111 125 q 45 393 45 293 q 107 722 45 572 q 285 961 169 872 q 557 1050 401 1050 q 747 1002 667 1050 l 821 1133 l 882 1099 l 802 962 m 531 869 q 405 799 459 869 q 321 621 350 728 q 292 406 292 513 q 308 268 292 320 l 629 834 q 531 869 595 869 m 438 171 q 565 240 510 171 q 649 417 619 310 q 678 635 678 525 q 666 761 678 712 l 347 201 q 438 171 379 171 m 635 1366 l 778 1239 q 718 1167 761 1206 q 626 1096 675 1128 q 543 1051 577 1063 l 446 1134 l 635 1366 z "},"Õ":{"ha":945,"x_min":45,"x_max":943,"o":"m 330 1209 q 380 1271 345 1240 q 458 1322 416 1302 q 537 1343 501 1343 q 591 1335 568 1343 q 630 1315 614 1326 q 667 1286 646 1304 q 708 1255 691 1265 q 747 1245 724 1245 q 793 1256 773 1245 q 828 1280 814 1266 q 862 1320 842 1295 l 943 1221 q 896 1156 929 1189 q 820 1101 862 1123 q 739 1080 777 1080 q 680 1087 705 1080 q 638 1106 655 1095 q 602 1135 622 1118 q 557 1167 576 1157 q 511 1177 539 1177 q 454 1161 481 1177 q 401 1117 428 1144 l 330 1209 m 45 392 q 107 721 45 571 q 285 960 169 871 q 557 1048 401 1048 q 759 994 675 1048 q 883 847 842 940 q 925 642 925 755 q 864 314 925 463 q 687 77 802 165 q 419 -11 572 -11 q 214 43 298 -11 q 87 188 130 96 q 45 392 45 279 m 678 634 q 662 773 678 722 q 613 846 645 825 q 531 868 581 868 q 405 798 459 868 q 321 619 350 727 q 292 404 292 511 q 308 264 292 316 q 357 191 325 213 q 438 170 389 170 q 565 239 510 170 q 649 416 619 309 q 678 634 678 524 z "},"Œ":{"ha":1499,"x_min":45,"x_max":1500,"o":"m 1094 852 l 1061 624 l 1345 627 l 1321 440 l 1036 446 l 998 183 l 1428 190 l 1402 0 l 732 0 l 751 135 q 602 27 686 65 q 419 -11 519 -11 q 214 43 298 -11 q 87 188 130 96 q 45 392 45 279 q 107 721 45 571 q 285 960 169 871 q 557 1048 401 1048 q 736 1007 660 1048 q 859 891 813 966 l 880 1038 l 1500 1038 l 1475 851 l 1094 852 m 438 170 q 565 239 510 170 q 649 416 619 309 q 678 634 678 524 q 662 773 678 722 q 613 846 645 825 q 531 868 581 868 q 405 798 459 868 q 321 619 350 727 q 292 404 292 511 q 308 264 292 316 q 357 191 325 213 q 438 170 389 170 z "},"P":{"ha":880,"x_min":49,"x_max":890,"o":"m 302 1038 q 385 1042 321 1038 q 526 1048 468 1048 q 797 973 703 1048 q 890 749 890 897 q 838 537 890 632 q 685 386 786 441 q 446 330 585 330 l 361 331 q 336 332 349 332 l 289 0 l 49 0 l 197 1038 l 302 1038 m 450 510 q 597 567 546 510 q 654 730 648 623 l 654 746 q 615 848 654 814 q 482 882 575 882 q 414 875 454 882 l 362 518 q 399 512 374 515 q 450 510 425 510 z "},"Ṗ":{"ha":888,"x_min":57,"x_max":899,"o":"m 439 1204 q 457 1272 439 1241 q 508 1321 475 1303 q 582 1339 540 1339 q 648 1325 620 1339 q 690 1286 675 1311 q 705 1233 705 1262 q 688 1162 705 1194 q 638 1112 671 1131 q 557 1093 605 1093 q 497 1108 524 1093 q 455 1148 471 1122 q 439 1204 439 1173 m 311 1038 q 393 1042 330 1038 q 534 1048 476 1048 q 805 973 711 1048 q 899 749 899 897 q 846 537 899 632 q 693 386 794 441 q 454 330 593 330 l 369 331 q 345 332 357 332 l 297 0 l 57 0 l 205 1038 l 311 1038 m 458 510 q 605 567 554 510 q 662 730 656 623 l 663 746 q 623 848 663 814 q 490 882 583 882 q 422 875 462 882 l 370 518 q 408 512 382 515 q 458 510 433 510 z "},"Þ":{"ha":886,"x_min":52,"x_max":873,"o":"m 873 584 q 821 377 873 471 q 668 230 768 284 q 428 175 567 175 q 372 178 400 175 q 338 181 344 180 q 322 183 328 183 l 296 0 l 52 0 l 197 1038 l 441 1038 l 418 870 q 508 873 465 873 q 779 800 685 873 q 873 584 873 726 m 638 578 q 597 674 638 642 q 465 707 557 707 q 397 703 416 707 l 395 705 l 347 362 q 384 357 359 359 q 432 355 408 355 q 579 409 528 355 q 637 564 631 464 l 638 578 z "},"Q":{"ha":946,"x_min":45,"x_max":925,"o":"m 485 -6 q 484 -20 484 -11 q 503 -67 484 -51 q 555 -90 522 -84 q 642 -96 589 -96 q 852 -78 791 -96 l 852 -216 q 788 -250 833 -234 q 689 -275 743 -266 q 591 -285 635 -285 q 397 -242 475 -285 q 319 -102 319 -200 q 337 -4 319 -57 q 176 70 242 14 q 78 210 111 126 q 45 392 45 293 q 107 721 45 571 q 285 960 169 871 q 557 1048 401 1048 q 759 994 675 1048 q 883 847 842 940 q 925 642 925 755 q 872 335 925 476 q 720 103 819 195 q 485 -6 620 12 m 531 868 q 405 798 459 868 q 321 619 350 727 q 292 404 292 511 q 308 264 292 316 q 357 191 325 213 q 438 170 389 170 q 565 239 510 170 q 649 416 619 309 q 678 634 678 524 q 662 773 678 722 q 613 846 645 825 q 531 868 581 868 z "},"R":{"ha":911,"x_min":49,"x_max":901,"o":"m 680 435 q 733 362 709 410 q 775 249 758 313 q 779 237 777 243 q 782 228 781 232 q 837 65 823 103 q 869 0 851 26 l 604 0 q 589 32 595 11 q 571 104 583 54 q 545 208 564 136 q 514 305 531 264 q 480 367 496 346 q 453 389 465 389 l 347 389 l 289 0 l 49 0 l 197 1038 l 334 1038 q 427 1043 372 1038 q 530 1048 484 1048 q 814 981 726 1048 q 901 782 901 914 q 848 563 901 656 q 680 435 794 470 m 504 573 q 599 602 562 573 q 651 674 635 631 q 667 762 667 718 q 649 834 667 808 q 596 871 631 861 q 507 882 562 882 q 456 880 484 882 q 414 875 429 878 l 372 575 q 504 573 408 573 z "},"Ŕ":{"ha":911,"x_min":49,"x_max":901,"o":"m 680 435 q 733 362 709 410 q 775 249 758 313 q 779 237 777 243 q 782 228 781 232 q 837 65 823 103 q 869 0 851 26 l 604 0 q 589 32 595 11 q 571 104 583 54 q 545 208 564 136 q 514 305 531 264 q 480 367 496 346 q 453 389 465 389 l 347 389 l 289 0 l 49 0 l 197 1038 l 334 1038 q 427 1043 372 1038 q 530 1048 484 1048 q 814 981 726 1048 q 901 782 901 914 q 848 563 901 656 q 680 435 794 470 m 504 573 q 599 602 562 573 q 651 674 635 631 q 667 762 667 718 q 649 834 667 808 q 596 871 631 861 q 507 882 562 882 q 456 880 484 882 q 414 875 429 878 l 372 575 q 504 573 408 573 m 667 1366 l 809 1239 q 749 1167 792 1206 q 657 1096 707 1128 q 574 1051 608 1063 l 477 1134 l 667 1366 z "},"Ř":{"ha":920,"x_min":57,"x_max":909,"o":"m 428 1366 l 552 1246 l 747 1366 l 847 1320 l 595 1084 l 473 1084 l 330 1313 l 428 1366 m 688 435 q 742 362 717 410 q 783 249 766 313 q 787 237 785 243 q 790 228 789 232 q 845 65 831 103 q 878 0 859 26 l 612 0 q 597 32 604 11 q 579 104 591 54 q 553 208 572 136 q 522 305 539 264 q 489 367 505 346 q 461 389 473 389 l 355 389 l 297 0 l 57 0 l 205 1038 l 342 1038 q 435 1043 380 1038 q 538 1048 492 1048 q 822 981 734 1048 q 909 782 909 914 q 856 563 909 656 q 688 435 802 470 m 512 573 q 607 602 570 573 q 660 674 644 631 q 675 762 675 718 q 657 834 675 808 q 605 871 640 861 q 515 882 570 882 q 465 880 492 882 q 422 875 437 878 l 380 575 q 512 573 416 573 z "},"Ŗ":{"ha":920,"x_min":57,"x_max":909,"o":"m 330 -96 l 435 -25 q 491 -52 466 -31 q 529 -103 515 -73 q 543 -169 543 -134 q 520 -270 543 -224 q 460 -344 496 -315 q 388 -380 425 -373 l 319 -332 l 321 -315 q 353 -282 338 -305 q 368 -227 368 -260 q 355 -181 368 -201 q 322 -159 342 -161 l 330 -96 m 688 435 q 742 362 717 410 q 783 249 766 313 q 787 237 785 243 q 790 228 789 232 q 845 65 831 103 q 878 0 859 26 l 612 0 q 597 32 604 11 q 579 104 591 54 q 553 208 572 136 q 522 305 539 264 q 489 367 505 346 q 461 389 473 389 l 355 389 l 297 0 l 57 0 l 205 1038 l 342 1038 q 435 1043 380 1038 q 538 1048 492 1048 q 822 981 734 1048 q 909 782 909 914 q 856 563 909 656 q 688 435 802 470 m 512 573 q 607 602 570 573 q 660 674 644 631 q 675 762 675 718 q 657 834 675 808 q 605 871 640 861 q 515 882 570 882 q 465 880 492 882 q 422 875 437 878 l 380 575 q 512 573 416 573 z "},"S":{"ha":718,"x_min":-3,"x_max":721,"o":"m 78 250 q 170 202 112 223 q 277 181 228 181 q 382 210 350 181 q 415 288 415 239 q 403 341 415 317 q 365 389 391 364 q 288 453 338 414 q 163 581 213 509 q 114 739 114 652 q 159 902 114 832 q 286 1010 203 972 q 476 1048 368 1048 q 624 1031 557 1048 q 721 991 690 1013 l 645 800 q 570 842 621 824 q 469 859 519 859 q 375 832 407 859 q 343 764 343 804 q 359 707 343 734 q 401 656 375 680 q 473 596 427 632 q 565 514 526 553 q 632 423 604 475 q 661 311 661 371 q 611 135 661 207 q 473 26 562 62 q 265 -11 384 -11 q 159 0 215 -11 q 58 26 102 10 q -3 54 13 41 l 78 250 z "},"Ś":{"ha":718,"x_min":-3,"x_max":721,"o":"m 78 250 q 170 202 112 223 q 277 181 228 181 q 382 210 350 181 q 415 288 415 239 q 403 341 415 317 q 365 389 391 364 q 288 453 338 414 q 163 581 213 509 q 114 739 114 652 q 159 902 114 832 q 286 1010 203 972 q 476 1048 368 1048 q 624 1031 557 1048 q 721 991 690 1013 l 645 800 q 570 842 621 824 q 469 859 519 859 q 375 832 407 859 q 343 764 343 804 q 359 707 343 734 q 401 656 375 680 q 473 596 427 632 q 565 514 526 553 q 632 423 604 475 q 661 311 661 371 q 611 135 661 207 q 473 26 562 62 q 265 -11 384 -11 q 159 0 215 -11 q 58 26 102 10 q -3 54 13 41 l 78 250 m 575 1366 l 718 1239 q 658 1167 701 1206 q 566 1096 615 1128 q 483 1051 517 1063 l 386 1134 l 575 1366 z "},"Š":{"ha":718,"x_min":-3,"x_max":747,"o":"m 78 250 q 170 202 112 223 q 277 181 228 181 q 382 210 350 181 q 415 288 415 239 q 403 341 415 317 q 365 389 391 364 q 288 453 338 414 q 163 581 213 509 q 114 739 114 652 q 159 902 114 832 q 286 1010 203 972 q 476 1048 368 1048 q 624 1031 557 1048 q 721 991 690 1013 l 645 800 q 570 842 621 824 q 469 859 519 859 q 375 832 407 859 q 343 764 343 804 q 359 707 343 734 q 401 656 375 680 q 473 596 427 632 q 565 514 526 553 q 632 423 604 475 q 661 311 661 371 q 611 135 661 207 q 473 26 562 62 q 265 -11 384 -11 q 159 0 215 -11 q 58 26 102 10 q -3 54 13 41 l 78 250 m 328 1366 l 452 1246 l 647 1366 l 747 1320 l 496 1084 l 374 1084 l 230 1313 l 328 1366 z "},"Ş":{"ha":718,"x_min":-3,"x_max":721,"o":"m 473 596 q 565 514 526 553 q 632 423 604 475 q 661 311 661 371 q 591 108 661 186 q 398 3 522 30 q 420 -77 410 -27 q 431 -161 431 -127 q 382 -277 431 -234 q 227 -319 333 -319 q 135 -311 196 -319 q 64 -296 75 -303 l 88 -158 q 112 -166 98 -163 q 142 -169 127 -169 q 231 -151 200 -169 q 265 -84 262 -134 q 267 -45 267 -57 q 265 -11 267 -31 q 159 0 215 -11 q 58 26 102 10 q -3 54 13 41 l 78 250 q 170 202 112 223 q 277 181 228 181 q 382 210 350 181 q 415 288 415 239 q 403 341 415 317 q 365 389 391 364 q 288 453 338 414 q 163 581 213 509 q 114 739 114 652 q 159 902 114 832 q 286 1010 203 972 q 476 1048 368 1048 q 624 1031 557 1048 q 721 991 690 1013 l 645 800 q 570 842 621 824 q 469 859 519 859 q 375 832 407 859 q 343 764 343 804 q 359 707 343 734 q 401 656 375 680 q 473 596 427 632 z "},"Ŝ":{"ha":718,"x_min":-3,"x_max":723,"o":"m 78 250 q 170 202 112 223 q 277 181 228 181 q 382 210 350 181 q 415 288 415 239 q 403 341 415 317 q 365 389 391 364 q 288 453 338 414 q 163 581 213 509 q 114 739 114 652 q 159 902 114 832 q 286 1010 203 972 q 476 1048 368 1048 q 624 1031 557 1048 q 721 991 690 1013 l 645 800 q 570 842 621 824 q 469 859 519 859 q 375 832 407 859 q 343 764 343 804 q 359 707 343 734 q 401 656 375 680 q 473 596 427 632 q 565 514 526 553 q 632 423 604 475 q 661 311 661 371 q 611 135 661 207 q 473 26 562 62 q 265 -11 384 -11 q 159 0 215 -11 q 58 26 102 10 q -3 54 13 41 l 78 250 m 457 1366 l 579 1366 l 723 1137 l 625 1084 l 500 1198 l 306 1084 l 205 1130 l 457 1366 z "},"Ș":{"ha":726,"x_min":5,"x_max":729,"o":"m 239 -96 l 345 -25 q 400 -52 376 -31 q 439 -103 425 -73 q 453 -169 453 -134 q 430 -270 453 -224 q 370 -344 406 -315 q 298 -380 334 -373 l 229 -332 l 231 -315 q 263 -282 248 -305 q 278 -227 278 -260 q 265 -181 278 -201 q 232 -159 252 -161 l 239 -96 m 86 250 q 178 202 120 223 q 285 181 236 181 q 391 210 358 181 q 423 288 423 239 q 411 341 423 317 q 373 389 399 364 q 296 453 347 414 q 172 581 221 509 q 122 739 122 652 q 167 902 122 832 q 294 1010 212 972 q 484 1048 376 1048 q 632 1031 566 1048 q 729 991 698 1013 l 653 800 q 578 842 629 824 q 477 859 528 859 q 383 832 415 859 q 351 764 351 804 q 367 707 351 734 q 409 656 383 680 q 481 596 435 632 q 573 514 534 553 q 641 423 612 475 q 669 311 669 371 q 620 135 669 207 q 481 26 570 62 q 273 -11 392 -11 q 167 0 223 -11 q 66 26 111 10 q 5 54 21 41 l 86 250 z "},"Ṡ":{"ha":726,"x_min":5,"x_max":729,"o":"m 345 1204 q 363 1272 345 1241 q 413 1321 381 1303 q 488 1339 446 1339 q 553 1325 526 1339 q 596 1286 581 1311 q 611 1233 611 1262 q 594 1162 611 1194 q 544 1112 577 1131 q 463 1093 511 1093 q 403 1108 430 1093 q 361 1148 376 1122 q 345 1204 345 1173 m 86 250 q 178 202 120 223 q 285 181 236 181 q 391 210 358 181 q 423 288 423 239 q 411 341 423 317 q 373 389 399 364 q 296 453 347 414 q 172 581 221 509 q 122 739 122 652 q 167 902 122 832 q 294 1010 212 972 q 484 1048 376 1048 q 632 1031 566 1048 q 729 991 698 1013 l 653 800 q 578 842 629 824 q 477 859 528 859 q 383 832 415 859 q 351 764 351 804 q 367 707 351 734 q 409 656 383 680 q 481 596 435 632 q 573 514 534 553 q 641 423 612 475 q 669 311 669 371 q 620 135 669 207 q 481 26 570 62 q 273 -11 392 -11 q 167 0 223 -11 q 66 26 111 10 q 5 54 21 41 l 86 250 z "},"ẞ":{"ha":1025,"x_min":44,"x_max":981,"o":"m 981 360 q 945 492 981 435 q 856 578 909 549 q 752 608 802 608 l 958 834 l 979 979 q 943 983 962 979 q 888 1000 924 988 q 765 1031 820 1020 q 635 1043 709 1043 q 379 979 489 1043 q 203 796 270 916 q 115 511 136 677 l 44 0 l 254 0 l 336 589 q 430 818 355 740 q 619 897 505 897 q 690 888 657 897 q 746 865 724 880 l 517 596 l 503 500 q 703 459 640 500 q 767 336 767 418 q 740 220 767 267 q 671 153 712 174 q 589 132 631 132 q 496 149 541 132 q 427 185 451 165 l 348 39 q 449 -1 393 14 q 604 -16 506 -16 q 797 33 711 -16 q 932 167 883 81 q 981 360 981 253 z "},"T":{"ha":782,"x_min":92,"x_max":846,"o":"m 92 851 l 122 1038 l 846 1038 l 819 851 l 580 859 l 457 0 l 213 0 l 336 859 l 92 851 z "},"Ŧ":{"ha":790,"x_min":100,"x_max":854,"o":"m 588 859 l 551 601 l 718 601 l 696 431 l 527 431 l 465 0 l 221 0 l 283 431 l 127 431 l 148 601 l 307 601 l 344 859 l 100 851 l 130 1038 l 854 1038 l 827 851 l 588 859 z "},"Ť":{"ha":790,"x_min":100,"x_max":854,"o":"m 366 1366 l 490 1246 l 685 1366 l 785 1320 l 534 1084 l 412 1084 l 268 1313 l 366 1366 m 100 851 l 130 1038 l 854 1038 l 827 851 l 588 859 l 465 0 l 221 0 l 344 859 l 100 851 z "},"Ţ":{"ha":782,"x_min":54,"x_max":846,"o":"m 846 1038 l 819 851 l 580 859 l 457 0 l 389 0 q 411 -79 401 -30 q 420 -161 420 -128 q 372 -277 420 -234 q 216 -319 323 -319 q 125 -311 186 -319 q 54 -296 64 -303 l 78 -158 q 102 -166 87 -163 q 132 -169 117 -169 q 221 -151 190 -169 q 255 -84 252 -134 q 256 -47 256 -58 q 254 0 256 -26 l 213 0 l 336 859 l 92 851 l 122 1038 l 846 1038 z "},"Ț":{"ha":790,"x_min":100,"x_max":854,"o":"m 229 -96 l 335 -25 q 390 -52 366 -31 q 429 -103 415 -73 q 443 -169 443 -134 q 419 -270 443 -224 q 360 -344 396 -315 q 288 -380 324 -373 l 219 -332 l 221 -315 q 253 -282 237 -305 q 268 -227 268 -260 q 255 -181 268 -201 q 222 -159 241 -161 l 229 -96 m 100 851 l 130 1038 l 854 1038 l 827 851 l 588 859 l 465 0 l 221 0 l 344 859 l 100 851 z "},"Ṫ":{"ha":790,"x_min":100,"x_max":854,"o":"m 375 1204 q 393 1272 375 1241 q 443 1321 411 1303 q 517 1339 475 1339 q 583 1325 555 1339 q 626 1286 611 1311 q 641 1233 641 1262 q 624 1162 641 1194 q 574 1112 607 1131 q 493 1093 541 1093 q 433 1108 460 1093 q 391 1148 406 1122 q 375 1204 375 1173 m 100 851 l 130 1038 l 854 1038 l 827 851 l 588 859 l 465 0 l 221 0 l 344 859 l 100 851 z "},"U":{"ha":977,"x_min":77,"x_max":976,"o":"m 177 1038 l 416 1038 l 331 435 q 323 305 323 381 q 337 225 324 254 q 379 185 350 197 q 458 173 408 173 q 552 196 515 173 q 612 275 589 219 q 651 430 636 330 l 737 1038 l 976 1038 l 888 405 q 812 163 867 254 q 662 31 757 73 q 421 -11 567 -11 q 163 69 248 -11 q 78 293 79 149 q 87 405 77 341 l 177 1038 z "},"Ú":{"ha":977,"x_min":77,"x_max":976,"o":"m 697 1366 l 840 1239 q 780 1167 823 1206 q 688 1096 737 1128 q 605 1051 639 1063 l 508 1134 l 697 1366 m 177 1038 l 416 1038 l 331 435 q 323 305 323 381 q 337 225 324 254 q 379 185 350 197 q 458 173 408 173 q 552 196 515 173 q 612 275 589 219 q 651 430 636 330 l 737 1038 l 976 1038 l 888 405 q 812 163 867 254 q 662 31 757 73 q 421 -11 567 -11 q 163 69 248 -11 q 78 293 79 149 q 87 405 77 341 l 177 1038 z "},"Ŭ":{"ha":977,"x_min":77,"x_max":976,"o":"m 371 1308 q 374 1338 371 1319 q 379 1366 376 1356 l 507 1366 q 504 1335 504 1347 q 512 1289 504 1306 q 541 1263 520 1272 q 602 1255 562 1255 q 680 1285 656 1255 q 712 1366 704 1316 l 837 1366 q 838 1343 838 1358 q 811 1231 838 1285 q 728 1142 784 1177 q 591 1107 672 1107 q 422 1159 474 1107 q 371 1308 371 1211 m 177 1038 l 416 1038 l 331 435 q 323 305 323 381 q 337 225 324 254 q 379 185 350 197 q 458 173 408 173 q 552 196 515 173 q 612 275 589 219 q 651 430 636 330 l 737 1038 l 976 1038 l 888 405 q 812 163 867 254 q 662 31 757 73 q 421 -11 567 -11 q 163 69 248 -11 q 78 293 79 149 q 87 405 77 341 l 177 1038 z "},"Ǔ":{"ha":977,"x_min":77,"x_max":976,"o":"m 177 1038 l 416 1038 l 331 435 q 323 305 323 381 q 337 225 324 254 q 379 185 350 197 q 458 173 408 173 q 552 196 515 173 q 612 275 589 219 q 651 430 636 330 l 737 1038 l 976 1038 l 888 405 q 812 163 867 254 q 662 31 757 73 q 421 -11 567 -11 q 163 69 248 -11 q 78 293 79 149 q 87 405 77 341 l 177 1038 m 450 1366 l 574 1246 l 769 1366 l 869 1320 l 618 1084 l 496 1084 l 352 1313 l 450 1366 z "},"Û":{"ha":977,"x_min":77,"x_max":976,"o":"m 177 1038 l 416 1038 l 331 435 q 323 305 323 381 q 337 225 324 254 q 379 185 350 197 q 458 173 408 173 q 552 196 515 173 q 612 275 589 219 q 651 430 636 330 l 737 1038 l 976 1038 l 888 405 q 812 163 867 254 q 662 31 757 73 q 421 -11 567 -11 q 163 69 248 -11 q 78 293 79 149 q 87 405 77 341 l 177 1038 m 579 1366 l 701 1366 l 845 1137 l 747 1084 l 623 1198 l 428 1084 l 328 1130 l 579 1366 z "},"Ü":{"ha":977,"x_min":77,"x_max":976,"o":"m 312 1218 q 327 1286 312 1255 q 371 1335 342 1317 q 437 1353 399 1353 q 491 1338 467 1353 q 529 1298 515 1322 q 542 1246 542 1274 q 510 1146 542 1185 q 414 1107 477 1107 q 364 1123 388 1107 q 326 1165 340 1139 q 312 1218 312 1191 m 633 1217 q 648 1286 633 1255 q 691 1335 663 1317 q 756 1353 719 1353 q 812 1338 787 1353 q 850 1298 836 1322 q 863 1246 863 1273 q 830 1146 863 1185 q 734 1107 798 1107 q 684 1123 707 1107 q 647 1164 661 1139 q 633 1217 633 1190 m 177 1038 l 416 1038 l 331 435 q 323 305 323 381 q 337 225 324 254 q 379 185 350 197 q 458 173 408 173 q 552 196 515 173 q 612 275 589 219 q 651 430 636 330 l 737 1038 l 976 1038 l 888 405 q 812 163 867 254 q 662 31 757 73 q 421 -11 567 -11 q 163 69 248 -11 q 78 293 79 149 q 87 405 77 341 l 177 1038 z "},"Ù":{"ha":977,"x_min":77,"x_max":976,"o":"m 473 1366 l 662 1134 l 565 1051 q 482 1096 531 1063 q 390 1167 433 1128 q 330 1239 347 1206 l 473 1366 m 177 1038 l 416 1038 l 331 435 q 323 305 323 381 q 337 225 324 254 q 379 185 350 197 q 458 173 408 173 q 552 196 515 173 q 612 275 589 219 q 651 430 636 330 l 737 1038 l 976 1038 l 888 405 q 812 163 867 254 q 662 31 757 73 q 421 -11 567 -11 q 163 69 248 -11 q 78 293 79 149 q 87 405 77 341 l 177 1038 z "},"Ű":{"ha":977,"x_min":77,"x_max":976,"o":"m 177 1038 l 416 1038 l 331 435 q 323 305 323 381 q 337 225 324 254 q 379 185 350 197 q 458 173 408 173 q 552 196 515 173 q 612 275 589 219 q 651 430 636 330 l 737 1038 l 976 1038 l 888 405 q 812 163 867 254 q 662 31 757 73 q 421 -11 567 -11 q 163 69 248 -11 q 78 293 79 149 q 87 405 77 341 l 177 1038 m 505 1366 l 629 1269 q 571 1186 612 1231 q 482 1105 530 1141 q 395 1057 433 1069 l 312 1116 l 505 1366 m 840 1366 l 962 1268 q 898 1183 938 1227 q 813 1104 859 1139 q 727 1057 767 1069 l 647 1116 l 840 1366 z "},"Ū":{"ha":977,"x_min":77,"x_max":976,"o":"m 795 1299 l 781 1158 l 390 1158 l 404 1299 l 795 1299 m 177 1038 l 416 1038 l 331 435 q 323 305 323 381 q 337 225 324 254 q 379 185 350 197 q 458 173 408 173 q 552 196 515 173 q 612 275 589 219 q 651 430 636 330 l 737 1038 l 976 1038 l 888 405 q 812 163 867 254 q 662 31 757 73 q 421 -11 567 -11 q 163 69 248 -11 q 78 293 79 149 q 87 405 77 341 l 177 1038 z "},"Ų":{"ha":985,"x_min":85,"x_max":984,"o":"m 984 1038 l 896 405 q 830 180 876 267 q 703 47 783 93 l 709 46 q 623 -15 667 21 q 551 -84 580 -50 q 523 -139 523 -119 q 535 -177 523 -166 q 568 -188 547 -188 q 619 -177 595 -188 q 672 -144 642 -167 l 700 -262 q 604 -326 659 -305 q 477 -346 550 -346 q 401 -328 434 -346 q 350 -280 368 -310 q 332 -214 332 -250 q 359 -132 332 -173 q 425 -60 386 -92 q 502 -8 464 -28 q 429 -11 471 -11 q 172 69 256 -11 q 86 293 87 149 q 95 405 85 341 l 185 1038 l 425 1038 l 339 435 q 332 305 332 381 q 345 225 332 254 q 387 185 358 197 q 466 173 416 173 q 560 196 523 173 q 621 275 597 219 q 659 430 644 330 l 745 1038 l 984 1038 z "},"Ů":{"ha":977,"x_min":77,"x_max":976,"o":"m 177 1038 l 416 1038 l 331 435 q 323 305 323 381 q 337 225 324 254 q 379 185 350 197 q 458 173 408 173 q 552 196 515 173 q 612 275 589 219 q 651 430 636 330 l 737 1038 l 976 1038 l 888 405 q 812 163 867 254 q 662 31 757 73 q 421 -11 567 -11 q 163 69 248 -11 q 78 293 79 149 q 87 405 77 341 l 177 1038 m 361 1228 q 402 1348 361 1302 q 504 1414 444 1394 q 625 1434 565 1434 q 776 1394 720 1434 q 833 1276 833 1354 q 797 1160 833 1207 q 703 1089 761 1112 q 580 1065 645 1065 q 420 1107 480 1065 q 361 1228 361 1149 m 701 1257 q 688 1300 701 1280 q 653 1331 675 1320 q 608 1341 632 1341 q 528 1318 562 1341 q 494 1244 494 1294 q 507 1201 494 1221 q 543 1171 521 1182 q 588 1160 565 1160 q 668 1182 635 1160 q 701 1257 701 1204 z "},"Ũ":{"ha":977,"x_min":77,"x_max":976,"o":"m 316 1209 q 367 1271 331 1240 q 445 1322 402 1302 q 524 1343 488 1343 q 577 1335 554 1343 q 616 1315 600 1326 q 654 1286 633 1304 q 694 1255 677 1265 q 733 1245 711 1245 q 780 1256 760 1245 q 814 1280 800 1266 q 848 1320 828 1295 l 929 1221 q 882 1156 916 1189 q 806 1101 848 1123 q 726 1080 764 1080 q 667 1087 692 1080 q 625 1106 642 1095 q 588 1135 608 1118 q 544 1167 562 1157 q 498 1177 526 1177 q 441 1161 467 1177 q 388 1117 414 1144 l 316 1209 m 177 1038 l 416 1038 l 331 435 q 323 305 323 381 q 337 225 324 254 q 379 185 350 197 q 458 173 408 173 q 552 196 515 173 q 612 275 589 219 q 651 430 636 330 l 737 1038 l 976 1038 l 888 405 q 812 163 867 254 q 662 31 757 73 q 421 -11 567 -11 q 163 69 248 -11 q 78 293 79 149 q 87 405 77 341 l 177 1038 z "},"V":{"ha":836,"x_min":70,"x_max":949,"o":"m 310 1038 l 390 373 l 401 195 l 454 373 l 695 1038 l 949 1038 l 502 0 l 222 0 l 70 1038 l 310 1038 z "},"W":{"ha":1223,"x_min":66,"x_max":1357,"o":"m 1357 1038 l 954 0 l 673 0 l 635 370 l 623 484 l 581 370 l 446 0 l 191 0 l 66 1038 l 308 1038 l 348 373 l 361 222 l 408 373 l 583 808 l 557 1038 l 791 1038 l 832 373 l 848 222 l 884 373 l 1110 1038 l 1357 1038 z "},"Ẃ":{"ha":1231,"x_min":74,"x_max":1365,"o":"m 821 1366 l 963 1239 q 903 1167 946 1206 q 811 1096 861 1128 q 728 1051 762 1063 l 631 1134 l 821 1366 m 1365 1038 l 962 0 l 682 0 l 643 370 l 631 484 l 589 370 l 454 0 l 199 0 l 74 1038 l 316 1038 l 356 373 l 370 222 l 416 373 l 591 808 l 566 1038 l 800 1038 l 840 373 l 856 222 l 892 373 l 1118 1038 l 1365 1038 z "},"Ŵ":{"ha":1223,"x_min":66,"x_max":1357,"o":"m 1357 1038 l 954 0 l 673 0 l 635 370 l 623 484 l 581 370 l 446 0 l 191 0 l 66 1038 l 308 1038 l 348 373 l 361 222 l 408 373 l 583 808 l 557 1038 l 791 1038 l 832 373 l 848 222 l 884 373 l 1110 1038 l 1357 1038 m 694 1366 l 817 1366 l 960 1137 l 862 1084 l 738 1198 l 543 1084 l 443 1130 l 694 1366 z "},"Ẅ":{"ha":1231,"x_min":74,"x_max":1365,"o":"m 435 1218 q 451 1286 435 1255 q 494 1335 466 1317 q 560 1353 523 1353 q 615 1338 591 1353 q 652 1298 639 1322 q 665 1246 665 1274 q 633 1146 665 1185 q 537 1107 601 1107 q 488 1123 511 1107 q 450 1165 464 1139 q 435 1218 435 1191 m 757 1217 q 772 1286 757 1255 q 814 1335 787 1317 q 880 1353 842 1353 q 935 1338 911 1353 q 973 1298 960 1322 q 987 1246 987 1273 q 954 1146 987 1185 q 857 1107 921 1107 q 808 1123 831 1107 q 771 1164 785 1139 q 757 1217 757 1190 m 1365 1038 l 962 0 l 682 0 l 643 370 l 631 484 l 589 370 l 454 0 l 199 0 l 74 1038 l 316 1038 l 356 373 l 370 222 l 416 373 l 591 808 l 566 1038 l 800 1038 l 840 373 l 856 222 l 892 373 l 1118 1038 l 1365 1038 z "},"Ẁ":{"ha":1231,"x_min":74,"x_max":1365,"o":"m 596 1366 l 785 1134 l 688 1051 q 605 1096 654 1063 q 513 1167 556 1128 q 454 1239 471 1206 l 596 1366 m 1365 1038 l 962 0 l 682 0 l 643 370 l 631 484 l 589 370 l 454 0 l 199 0 l 74 1038 l 316 1038 l 356 373 l 370 222 l 416 373 l 591 808 l 566 1038 l 800 1038 l 840 373 l 856 222 l 892 373 l 1118 1038 l 1365 1038 z "},"X":{"ha":844,"x_min":-67,"x_max":951,"o":"m 97 1038 l 355 1038 l 475 703 l 690 1038 l 951 1038 l 583 498 l 818 0 l 556 -1 l 420 359 l 201 0 l -67 0 l 315 548 l 97 1038 z "},"Y":{"ha":789,"x_min":56,"x_max":920,"o":"m 56 1038 l 309 1038 l 404 682 l 421 591 l 460 682 l 653 1038 l 920 1038 l 513 400 l 455 0 l 215 0 l 273 400 l 56 1038 z "},"Ý":{"ha":789,"x_min":56,"x_max":920,"o":"m 56 1038 l 309 1038 l 404 682 l 421 591 l 460 682 l 653 1038 l 920 1038 l 513 400 l 455 0 l 215 0 l 273 400 l 56 1038 m 591 1366 l 734 1239 q 674 1167 717 1206 q 582 1096 631 1128 q 499 1051 533 1063 l 402 1134 l 591 1366 z "},"Ŷ":{"ha":789,"x_min":56,"x_max":920,"o":"m 56 1038 l 309 1038 l 404 682 l 421 591 l 460 682 l 653 1038 l 920 1038 l 513 400 l 455 0 l 215 0 l 273 400 l 56 1038 m 473 1366 l 595 1366 l 739 1137 l 641 1084 l 517 1198 l 322 1084 l 222 1130 l 473 1366 z "},"Ÿ":{"ha":789,"x_min":56,"x_max":920,"o":"m 56 1038 l 309 1038 l 404 682 l 421 591 l 460 682 l 653 1038 l 920 1038 l 513 400 l 455 0 l 215 0 l 273 400 l 56 1038 m 206 1218 q 221 1286 206 1255 q 265 1335 237 1317 q 331 1353 294 1353 q 386 1338 361 1353 q 423 1298 410 1322 q 436 1246 436 1274 q 404 1146 436 1185 q 308 1107 372 1107 q 258 1123 282 1107 q 220 1165 235 1139 q 206 1218 206 1191 m 528 1217 q 543 1286 528 1255 q 585 1335 557 1317 q 650 1353 613 1353 q 706 1338 682 1353 q 744 1298 730 1322 q 758 1246 758 1273 q 725 1146 758 1185 q 628 1107 692 1107 q 578 1123 602 1107 q 542 1164 555 1139 q 528 1217 528 1190 z "},"Ẏ":{"ha":789,"x_min":56,"x_max":920,"o":"m 56 1038 l 309 1038 l 404 682 l 421 591 l 460 682 l 653 1038 l 920 1038 l 513 400 l 455 0 l 215 0 l 273 400 l 56 1038 m 353 1204 q 371 1272 353 1241 q 421 1321 389 1303 q 496 1339 454 1339 q 562 1325 534 1339 q 604 1286 589 1311 q 619 1233 619 1262 q 602 1162 619 1194 q 552 1112 585 1131 q 471 1093 519 1093 q 411 1108 438 1093 q 369 1148 385 1122 q 353 1204 353 1173 z "},"Ỳ":{"ha":789,"x_min":56,"x_max":920,"o":"m 56 1038 l 309 1038 l 404 682 l 421 591 l 460 682 l 653 1038 l 920 1038 l 513 400 l 455 0 l 215 0 l 273 400 l 56 1038 m 367 1366 l 556 1134 l 459 1051 q 376 1096 425 1063 q 284 1167 327 1128 q 224 1239 241 1206 l 367 1366 z "},"Z":{"ha":785,"x_min":-46,"x_max":852,"o":"m 479 806 l 542 851 l 144 844 l 175 1038 l 837 1038 l 852 979 l 349 241 l 292 191 l 711 198 l 680 0 l -28 0 l -46 60 l 479 806 z "},"Ź":{"ha":785,"x_min":-46,"x_max":852,"o":"m 479 806 l 542 851 l 144 844 l 175 1038 l 837 1038 l 852 979 l 349 241 l 292 191 l 711 198 l 680 0 l -28 0 l -46 60 l 479 806 m 632 1366 l 774 1239 q 715 1167 758 1206 q 623 1096 672 1128 q 540 1051 574 1063 l 443 1134 l 632 1366 z "},"Ž":{"ha":785,"x_min":-46,"x_max":852,"o":"m 385 1366 l 509 1246 l 704 1366 l 804 1320 l 553 1084 l 431 1084 l 287 1313 l 385 1366 m 479 806 l 542 851 l 144 844 l 175 1038 l 837 1038 l 852 979 l 349 241 l 292 191 l 711 198 l 680 0 l -28 0 l -46 60 l 479 806 z "},"Ż":{"ha":785,"x_min":-46,"x_max":852,"o":"m 394 1204 q 412 1272 394 1241 q 462 1321 430 1303 q 536 1339 494 1339 q 602 1325 574 1339 q 645 1286 630 1311 q 660 1233 660 1262 q 643 1162 660 1194 q 593 1112 626 1131 q 512 1093 559 1093 q 452 1108 479 1093 q 410 1148 425 1122 q 394 1204 394 1173 m 479 806 l 542 851 l 144 844 l 175 1038 l 837 1038 l 852 979 l 349 241 l 292 191 l 711 198 l 680 0 l -28 0 l -46 60 l 479 806 z "},"a":{"ha":860,"x_min":47,"x_max":817,"o":"m 817 784 l 708 0 l 491 0 l 499 168 q 409 41 465 94 q 275 -11 352 -11 q 101 70 155 -11 q 47 279 47 150 q 102 525 47 409 q 265 712 157 640 q 524 784 373 784 q 610 775 564 784 q 692 753 657 766 l 817 784 m 360 152 q 425 194 392 152 q 484 296 457 236 q 526 411 511 356 l 558 638 q 507 642 538 642 q 394 591 441 642 q 323 459 347 540 q 300 294 300 379 q 360 152 300 152 z "},"á":{"ha":860,"x_min":47,"x_max":820,"o":"m 817 784 l 708 0 l 491 0 l 499 168 q 409 41 465 94 q 275 -11 352 -11 q 101 70 155 -11 q 47 279 47 150 q 102 525 47 409 q 265 712 157 640 q 524 784 373 784 q 610 775 564 784 q 692 753 657 766 l 817 784 m 360 152 q 425 194 392 152 q 484 296 457 236 q 526 411 511 356 l 558 638 q 507 642 538 642 q 394 591 441 642 q 323 459 347 540 q 300 294 300 379 q 360 152 300 152 m 678 1203 l 820 1067 q 753 992 808 1044 q 637 893 699 941 q 536 831 574 846 l 452 899 l 678 1203 z "},"ă":{"ha":860,"x_min":47,"x_max":817,"o":"m 817 784 l 708 0 l 491 0 l 499 168 q 409 41 465 94 q 275 -11 352 -11 q 101 70 155 -11 q 47 279 47 150 q 102 525 47 409 q 265 712 157 640 q 524 784 373 784 q 610 775 564 784 q 692 753 657 766 l 817 784 m 360 152 q 425 194 392 152 q 484 296 457 236 q 526 411 511 356 l 558 638 q 507 642 538 642 q 394 591 441 642 q 323 459 347 540 q 300 294 300 379 q 360 152 300 152 m 336 1082 q 339 1112 336 1093 q 345 1140 342 1131 l 472 1140 q 469 1109 469 1121 q 477 1063 469 1080 q 507 1038 486 1046 q 567 1029 528 1029 q 645 1059 621 1029 q 677 1140 669 1090 l 802 1140 q 803 1117 803 1133 q 776 1005 803 1059 q 693 917 749 951 q 556 882 637 882 q 388 933 439 882 q 336 1082 336 985 z "},"ǎ":{"ha":860,"x_min":47,"x_max":844,"o":"m 817 784 l 708 0 l 491 0 l 499 168 q 409 41 465 94 q 275 -11 352 -11 q 101 70 155 -11 q 47 279 47 150 q 102 525 47 409 q 265 712 157 640 q 524 784 373 784 q 610 775 564 784 q 692 753 657 766 l 817 784 m 360 152 q 425 194 392 152 q 484 296 457 236 q 526 411 511 356 l 558 638 q 507 642 538 642 q 394 591 441 642 q 323 459 347 540 q 300 294 300 379 q 360 152 300 152 m 412 1153 l 557 1024 l 744 1152 l 844 1107 l 592 853 l 471 853 l 327 1107 l 412 1153 z "},"â":{"ha":860,"x_min":47,"x_max":817,"o":"m 817 784 l 708 0 l 491 0 l 499 168 q 409 41 465 94 q 275 -11 352 -11 q 101 70 155 -11 q 47 279 47 150 q 102 525 47 409 q 265 712 157 640 q 524 784 373 784 q 610 775 564 784 q 692 753 657 766 l 817 784 m 360 152 q 425 194 392 152 q 484 296 457 236 q 526 411 511 356 l 558 638 q 507 642 538 642 q 394 591 441 642 q 323 459 347 540 q 300 294 300 379 q 360 152 300 152 m 539 1133 l 661 1133 l 805 879 l 700 833 l 578 951 l 381 833 l 288 879 l 539 1133 z "},"ä":{"ha":860,"x_min":47,"x_max":833,"o":"m 817 784 l 708 0 l 491 0 l 499 168 q 409 41 465 94 q 275 -11 352 -11 q 101 70 155 -11 q 47 279 47 150 q 102 525 47 409 q 265 712 157 640 q 524 784 373 784 q 610 775 564 784 q 692 753 657 766 l 817 784 m 360 152 q 425 194 392 152 q 484 296 457 236 q 526 411 511 356 l 558 638 q 507 642 538 642 q 394 591 441 642 q 323 459 347 540 q 300 294 300 379 q 360 152 300 152 m 282 1019 q 297 1087 282 1056 q 341 1136 313 1118 q 407 1154 370 1154 q 461 1138 437 1154 q 499 1099 486 1123 q 512 1047 512 1074 q 480 946 512 985 q 384 907 448 907 q 334 923 358 907 q 296 965 311 939 q 282 1019 282 991 m 604 1018 q 618 1087 604 1056 q 661 1136 633 1118 q 726 1154 689 1154 q 782 1138 758 1154 q 820 1098 806 1123 q 833 1047 833 1074 q 801 947 833 986 q 704 907 768 907 q 654 923 677 907 q 617 965 631 939 q 604 1018 604 991 z "},"à":{"ha":860,"x_min":47,"x_max":817,"o":"m 817 784 l 708 0 l 491 0 l 499 168 q 409 41 465 94 q 275 -11 352 -11 q 101 70 155 -11 q 47 279 47 150 q 102 525 47 409 q 265 712 157 640 q 524 784 373 784 q 610 775 564 784 q 692 753 657 766 l 817 784 m 360 152 q 425 194 392 152 q 484 296 457 236 q 526 411 511 356 l 558 638 q 507 642 538 642 q 394 591 441 642 q 323 459 347 540 q 300 294 300 379 q 360 152 300 152 m 382 1203 l 609 899 l 525 831 q 424 893 486 846 q 307 992 361 941 q 241 1067 253 1044 l 382 1203 z "},"ā":{"ha":860,"x_min":47,"x_max":817,"o":"m 817 784 l 708 0 l 491 0 l 499 168 q 409 41 465 94 q 275 -11 352 -11 q 101 70 155 -11 q 47 279 47 150 q 102 525 47 409 q 265 712 157 640 q 524 784 373 784 q 610 775 564 784 q 692 753 657 766 l 817 784 m 360 152 q 425 194 392 152 q 484 296 457 236 q 526 411 511 356 l 558 638 q 507 642 538 642 q 394 591 441 642 q 323 459 347 540 q 300 294 300 379 q 360 152 300 152 m 760 1095 l 748 946 l 343 946 l 355 1095 l 760 1095 z "},"ą":{"ha":860,"x_min":47,"x_max":817,"o":"m 587 -188 q 637 -177 614 -188 q 690 -144 661 -167 l 718 -262 q 623 -326 677 -305 q 495 -346 568 -346 q 419 -328 452 -346 q 369 -280 387 -310 q 351 -214 351 -250 q 382 -125 351 -169 q 457 -49 413 -82 q 538 0 500 -16 l 491 0 l 499 168 q 409 41 465 94 q 275 -11 352 -11 q 101 70 155 -11 q 47 279 47 150 q 102 525 47 409 q 265 712 157 640 q 524 784 373 784 q 610 775 564 784 q 692 753 657 766 l 817 784 l 708 0 q 589 -68 637 -29 q 541 -139 541 -107 q 553 -177 541 -166 q 587 -188 565 -188 m 360 152 q 425 194 392 152 q 484 296 457 236 q 526 411 511 356 l 558 638 q 507 642 538 642 q 394 591 441 642 q 323 459 347 540 q 300 294 300 379 q 360 152 300 152 z "},"å":{"ha":860,"x_min":47,"x_max":817,"o":"m 817 784 l 708 0 l 491 0 l 499 168 q 409 41 465 94 q 275 -11 352 -11 q 101 70 155 -11 q 47 279 47 150 q 102 525 47 409 q 265 712 157 640 q 524 784 373 784 q 610 775 564 784 q 692 753 657 766 l 817 784 m 360 152 q 425 194 392 152 q 484 296 457 236 q 526 411 511 356 l 558 638 q 507 642 538 642 q 394 591 441 642 q 323 459 347 540 q 300 294 300 379 q 360 152 300 152 m 339 1015 q 381 1136 339 1089 q 483 1203 422 1183 q 604 1223 543 1223 q 754 1183 698 1223 q 811 1063 811 1142 q 773 946 811 994 q 676 874 736 898 q 551 850 616 850 q 396 893 453 850 q 339 1015 339 936 m 679 1044 q 666 1087 679 1067 q 632 1118 653 1107 q 587 1128 610 1128 q 506 1105 541 1128 q 472 1031 472 1081 q 486 988 472 1008 q 521 958 499 969 q 566 947 543 947 q 646 969 614 947 q 679 1044 679 991 z "},"ã":{"ha":860,"x_min":47,"x_max":848,"o":"m 817 784 l 708 0 l 491 0 l 499 168 q 409 41 465 94 q 275 -11 352 -11 q 101 70 155 -11 q 47 279 47 150 q 102 525 47 409 q 265 712 157 640 q 524 784 373 784 q 610 775 564 784 q 692 753 657 766 l 817 784 m 360 152 q 425 194 392 152 q 484 296 457 236 q 526 411 511 356 l 558 638 q 507 642 538 642 q 394 591 441 642 q 323 459 347 540 q 300 294 300 379 q 360 152 300 152 m 262 1018 q 311 1080 277 1049 q 386 1132 345 1112 q 463 1152 427 1152 q 515 1143 493 1152 q 551 1122 537 1135 q 585 1090 566 1110 q 621 1058 606 1068 q 659 1047 636 1047 q 700 1056 682 1047 q 729 1077 717 1064 q 758 1110 741 1089 q 767 1122 757 1109 l 848 1023 q 802 958 834 991 q 730 903 770 924 q 651 882 689 882 q 593 890 617 882 q 554 910 569 899 q 521 941 539 922 q 481 975 498 964 q 437 986 465 986 q 384 971 406 986 q 334 926 362 956 l 262 1018 z "},"æ":{"ha":1200,"x_min":46,"x_max":1162,"o":"m 849 153 q 934 171 890 153 q 1014 215 978 189 q 1068 264 1050 241 l 1131 148 q 1059 78 1107 115 q 941 15 1010 41 q 789 -11 871 -11 q 602 47 672 -11 q 508 199 532 105 q 408 50 469 111 q 267 -11 347 -11 q 97 69 148 -11 q 46 279 46 149 q 104 525 46 410 q 278 712 163 641 q 557 784 394 784 q 655 771 608 784 q 736 739 703 759 q 932 784 825 784 q 1105 737 1048 784 q 1162 606 1162 690 q 1109 443 1162 509 q 966 334 1056 376 q 751 260 877 292 q 772 180 751 206 q 849 153 793 153 m 878 651 q 809 606 838 651 q 764 497 780 561 q 747 380 749 433 q 830 411 788 383 q 901 485 873 439 q 929 583 929 530 q 917 635 929 618 q 878 651 905 651 m 502 392 q 604 633 523 534 q 540 642 573 642 q 408 591 463 642 q 326 460 353 540 q 298 294 298 380 q 303 219 298 246 q 320 179 309 192 q 352 167 332 167 q 406 199 375 167 q 464 284 437 232 q 502 392 490 336 z "},"ǽ":{"ha":1200,"x_min":46,"x_max":1162,"o":"m 823 1203 l 964 1067 q 898 992 952 1044 q 781 893 844 941 q 680 831 719 846 l 596 899 l 823 1203 m 849 153 q 934 171 890 153 q 1014 215 978 189 q 1068 264 1050 241 l 1131 148 q 1059 78 1107 115 q 941 15 1010 41 q 789 -11 871 -11 q 602 47 672 -11 q 508 199 532 105 q 408 50 469 111 q 267 -11 347 -11 q 97 69 148 -11 q 46 279 46 149 q 104 525 46 410 q 278 712 163 641 q 557 784 394 784 q 655 771 608 784 q 736 739 703 759 q 932 784 825 784 q 1105 737 1048 784 q 1162 606 1162 690 q 1109 443 1162 509 q 966 334 1056 376 q 751 260 877 292 q 772 180 751 206 q 849 153 793 153 m 878 651 q 809 606 838 651 q 764 497 780 561 q 747 380 749 433 q 830 411 788 383 q 901 485 873 439 q 929 583 929 530 q 917 635 929 618 q 878 651 905 651 m 502 392 q 604 633 523 534 q 540 642 573 642 q 408 591 463 642 q 326 460 353 540 q 298 294 298 380 q 303 219 298 246 q 320 179 309 192 q 352 167 332 167 q 406 199 375 167 q 464 284 437 232 q 502 392 490 336 z "},"b":{"ha":875,"x_min":52,"x_max":827,"o":"m 600 784 q 773 702 720 784 q 827 491 827 621 q 773 247 827 361 q 610 60 718 132 q 351 -11 503 -11 q 260 -1 309 -11 q 177 22 211 9 l 178 23 l 52 0 l 204 1108 l 437 1108 l 379 662 l 365 580 q 456 723 397 662 q 600 784 515 784 m 367 132 q 480 182 433 132 q 550 312 527 233 q 574 477 574 391 q 514 618 574 618 q 444 571 479 618 q 381 457 408 523 q 342 338 354 391 l 342 376 l 312 136 q 367 132 332 132 z "},"ḃ":{"ha":875,"x_min":52,"x_max":827,"o":"m 600 784 q 773 702 720 784 q 827 491 827 621 q 773 247 827 361 q 610 60 718 132 q 351 -11 503 -11 q 260 -1 309 -11 q 177 22 211 9 l 178 23 l 52 0 l 204 1108 l 437 1108 l 379 662 l 365 580 q 456 723 397 662 q 600 784 515 784 m 367 132 q 480 182 433 132 q 550 312 527 233 q 574 477 574 391 q 514 618 574 618 q 444 571 479 618 q 381 457 408 523 q 342 338 354 391 l 342 376 l 312 136 q 367 132 332 132 m 516 1002 q 534 1071 516 1039 q 585 1121 552 1103 q 659 1140 617 1140 q 721 1125 694 1140 q 763 1085 748 1110 q 779 1030 779 1060 q 762 959 779 991 q 711 909 745 928 q 631 890 678 890 q 574 905 601 890 q 532 946 548 920 q 516 1002 516 971 z "},"c":{"ha":648,"x_min":50,"x_max":646,"o":"m 471 784 q 564 775 511 784 q 646 755 618 767 l 588 523 q 527 569 568 543 q 453 595 487 595 q 375 567 410 595 q 318 480 340 538 q 297 338 297 422 q 306 238 297 276 q 337 182 315 201 q 396 163 358 163 q 454 176 423 163 q 513 206 486 188 q 555 241 540 224 l 616 125 q 508 30 581 71 q 331 -11 436 -11 q 169 34 232 -11 q 78 149 106 79 q 50 300 50 220 q 104 550 50 440 q 255 722 159 661 q 471 784 351 784 z "},"ć":{"ha":648,"x_min":50,"x_max":776,"o":"m 634 1203 l 776 1067 q 709 992 764 1044 q 593 893 655 941 q 492 831 530 846 l 408 899 l 634 1203 m 471 784 q 564 775 511 784 q 646 755 618 767 l 588 523 q 527 569 568 543 q 453 595 487 595 q 375 567 410 595 q 318 480 340 538 q 297 338 297 422 q 306 238 297 276 q 337 182 315 201 q 396 163 358 163 q 454 176 423 163 q 513 206 486 188 q 555 241 540 224 l 616 125 q 508 30 581 71 q 331 -11 436 -11 q 169 34 232 -11 q 78 149 106 79 q 50 300 50 220 q 104 550 50 440 q 255 722 159 661 q 471 784 351 784 z "},"č":{"ha":648,"x_min":50,"x_max":800,"o":"m 368 1153 l 513 1024 l 700 1152 l 800 1107 l 548 853 l 427 853 l 283 1107 l 368 1153 m 471 784 q 564 775 511 784 q 646 755 618 767 l 588 523 q 527 569 568 543 q 453 595 487 595 q 375 567 410 595 q 318 480 340 538 q 297 338 297 422 q 306 238 297 276 q 337 182 315 201 q 396 163 358 163 q 454 176 423 163 q 513 206 486 188 q 555 241 540 224 l 616 125 q 508 30 581 71 q 331 -11 436 -11 q 169 34 232 -11 q 78 149 106 79 q 50 300 50 220 q 104 550 50 440 q 255 722 159 661 q 471 784 351 784 z "},"ç":{"ha":648,"x_min":50,"x_max":646,"o":"m 396 163 q 454 176 423 163 q 513 206 486 188 q 555 241 540 224 l 616 125 q 542 51 590 86 q 427 0 494 16 q 448 -79 439 -31 q 458 -161 458 -128 q 409 -277 458 -234 q 254 -319 360 -319 q 162 -311 223 -319 q 91 -296 102 -303 l 115 -158 q 139 -166 125 -163 q 169 -169 154 -169 q 258 -151 227 -169 q 292 -84 290 -134 q 293 -47 293 -71 q 292 -9 293 -20 q 153 46 207 0 q 75 159 99 92 q 50 300 50 225 q 104 550 50 440 q 255 722 159 661 q 471 784 351 784 q 564 775 511 784 q 646 755 618 767 l 588 523 q 527 569 568 543 q 453 595 487 595 q 375 567 410 595 q 318 480 340 538 q 297 338 297 422 q 306 238 297 276 q 337 182 315 201 q 396 163 358 163 z "},"ĉ":{"ha":648,"x_min":50,"x_max":761,"o":"m 495 1133 l 617 1133 l 761 879 l 656 833 l 534 951 l 337 833 l 243 879 l 495 1133 m 471 784 q 564 775 511 784 q 646 755 618 767 l 588 523 q 527 569 568 543 q 453 595 487 595 q 375 567 410 595 q 318 480 340 538 q 297 338 297 422 q 306 238 297 276 q 337 182 315 201 q 396 163 358 163 q 454 176 423 163 q 513 206 486 188 q 555 241 540 224 l 616 125 q 508 30 581 71 q 331 -11 436 -11 q 169 34 232 -11 q 78 149 106 79 q 50 300 50 220 q 104 550 50 440 q 255 722 159 661 q 471 784 351 784 z "},"ċ":{"ha":648,"x_min":50,"x_max":653,"o":"m 471 784 q 564 775 511 784 q 646 755 618 767 l 588 523 q 527 569 568 543 q 453 595 487 595 q 375 567 410 595 q 318 480 340 538 q 297 338 297 422 q 306 238 297 276 q 337 182 315 201 q 396 163 358 163 q 454 176 423 163 q 513 206 486 188 q 555 241 540 224 l 616 125 q 508 30 581 71 q 331 -11 436 -11 q 169 34 232 -11 q 78 149 106 79 q 50 300 50 220 q 104 550 50 440 q 255 722 159 661 q 471 784 351 784 m 391 1002 q 409 1071 391 1039 q 459 1121 427 1103 q 533 1140 492 1140 q 595 1125 568 1140 q 638 1085 623 1110 q 653 1030 653 1060 q 636 959 653 991 q 586 909 619 928 q 505 890 553 890 q 449 905 475 890 q 407 946 422 920 q 391 1002 391 971 z "},"d":{"ha":864,"x_min":47,"x_max":857,"o":"m 857 1108 l 714 0 l 498 0 l 508 189 q 417 49 475 109 q 275 -11 358 -11 q 101 70 155 -11 q 47 279 47 150 q 102 525 47 409 q 265 712 157 640 q 524 784 373 784 q 578 780 551 784 l 624 1108 l 857 1108 m 360 155 q 427 198 393 155 q 487 304 460 242 q 529 420 514 366 l 559 635 q 507 642 536 642 q 394 591 441 642 q 323 459 347 540 q 300 294 300 379 q 360 155 300 155 z "},"ð":{"ha":822,"x_min":45,"x_max":777,"o":"m 586 1062 q 731 828 685 965 q 777 544 777 690 q 729 259 777 385 q 584 61 680 134 q 350 -11 488 -11 q 182 32 251 -11 q 79 143 113 75 q 45 287 45 211 q 91 553 45 440 q 223 725 138 665 q 421 785 308 785 q 544 753 509 785 q 524 855 542 811 q 477 942 507 899 l 408 865 l 323 942 l 404 1024 q 333 1075 370 1054 q 250 1109 296 1095 l 290 1230 q 500 1132 399 1202 q 557 1197 532 1168 q 591 1235 583 1225 l 671 1157 l 586 1062 m 530 589 q 519 623 531 606 q 484 650 507 640 q 434 661 462 661 q 359 603 390 661 q 314 457 329 545 q 298 279 298 368 q 317 167 298 211 q 370 123 336 123 q 432 157 403 123 q 481 247 460 190 q 511 374 502 304 q 523 483 516 404 q 530 589 530 562 z "},"ď":{"ha":1085,"x_min":47,"x_max":1145,"o":"m 857 1108 l 714 0 l 498 0 l 508 189 q 417 49 475 109 q 275 -11 358 -11 q 101 70 155 -11 q 47 279 47 150 q 102 525 47 409 q 265 712 157 640 q 524 784 373 784 q 578 780 551 784 l 624 1108 l 857 1108 m 360 155 q 427 198 393 155 q 487 304 460 242 q 529 420 514 366 l 559 635 q 507 642 536 642 q 394 591 441 642 q 323 459 347 540 q 300 294 300 379 q 360 155 300 155 m 939 739 q 959 829 951 772 q 966 943 966 886 q 950 1080 966 1055 l 963 1108 l 1118 1141 q 1138 1092 1131 1128 q 1145 1013 1145 1056 q 1118 840 1145 928 q 1045 703 1092 752 l 943 722 l 939 739 z "},"đ":{"ha":864,"x_min":47,"x_max":949,"o":"m 939 856 l 825 856 l 714 0 l 498 0 l 508 189 q 417 49 475 109 q 275 -11 358 -11 q 101 70 155 -11 q 47 279 47 150 q 102 525 47 409 q 265 712 157 640 q 524 784 373 784 q 578 780 551 784 l 589 856 l 435 856 l 446 944 l 602 944 l 624 1108 l 857 1108 l 836 944 l 949 944 l 939 856 m 360 155 q 427 198 393 155 q 487 304 460 242 q 529 420 514 366 l 559 635 q 507 642 536 642 q 394 591 441 642 q 323 459 347 540 q 300 294 300 379 q 360 155 300 155 z "},"ḋ":{"ha":864,"x_min":47,"x_max":857,"o":"m 857 1108 l 714 0 l 498 0 l 508 189 q 417 49 475 109 q 275 -11 358 -11 q 101 70 155 -11 q 47 279 47 150 q 102 525 47 409 q 265 712 157 640 q 524 784 373 784 q 578 780 551 784 l 624 1108 l 857 1108 m 360 155 q 427 198 393 155 q 487 304 460 242 q 529 420 514 366 l 559 635 q 507 642 536 642 q 394 591 441 642 q 323 459 347 540 q 300 294 300 379 q 360 155 300 155 m 235 1002 q 253 1071 235 1039 q 303 1121 271 1103 q 377 1140 336 1140 q 439 1125 412 1140 q 482 1085 467 1110 q 497 1030 497 1060 q 480 959 497 991 q 430 909 463 928 q 349 890 397 890 q 293 905 319 890 q 251 946 267 920 q 235 1002 235 971 z "},"ǳ":{"ha":1531,"x_min":47,"x_max":1560,"o":"m 857 1108 l 714 0 l 498 0 l 508 189 q 417 49 475 109 q 275 -11 358 -11 q 101 70 155 -11 q 47 279 47 150 q 102 525 47 409 q 265 712 157 640 q 524 784 373 784 q 578 780 551 784 l 624 1108 l 857 1108 m 360 155 q 427 198 393 155 q 487 304 460 242 q 529 420 514 366 l 559 635 q 507 642 536 642 q 394 591 441 642 q 323 459 347 540 q 300 294 300 379 q 360 155 300 155 m 1162 184 l 1471 184 l 1452 0 l 857 0 l 833 31 l 1209 566 l 1244 592 l 954 592 l 979 773 l 1537 773 l 1560 743 l 1191 205 l 1162 184 z "},"ǆ":{"ha":1531,"x_min":47,"x_max":1610,"o":"m 857 1108 l 714 0 l 498 0 l 508 189 q 417 49 475 109 q 275 -11 358 -11 q 101 70 155 -11 q 47 279 47 150 q 102 525 47 409 q 265 712 157 640 q 524 784 373 784 q 578 780 551 784 l 624 1108 l 857 1108 m 360 155 q 427 198 393 155 q 487 304 460 242 q 529 420 514 366 l 559 635 q 507 642 536 642 q 394 591 441 642 q 323 459 347 540 q 300 294 300 379 q 360 155 300 155 m 1162 184 l 1471 184 l 1452 0 l 857 0 l 833 31 l 1209 566 l 1244 592 l 954 592 l 979 773 l 1537 773 l 1560 743 l 1191 205 l 1162 184 m 1178 1153 l 1322 1024 l 1510 1152 l 1610 1107 l 1358 853 l 1236 853 l 1093 1107 l 1178 1153 z "},"e":{"ha":754,"x_min":50,"x_max":716,"o":"m 486 784 q 659 737 602 784 q 716 606 716 690 q 663 443 716 509 q 520 334 610 376 q 304 260 431 292 q 326 180 304 206 q 403 153 347 153 q 488 171 444 153 q 568 215 532 189 q 622 264 604 241 l 684 148 q 613 78 661 115 q 494 15 564 41 q 343 -11 425 -11 q 177 32 243 -11 q 80 145 111 75 q 50 300 50 215 q 107 548 50 437 q 265 722 165 659 q 486 784 365 784 m 483 583 q 471 635 483 618 q 432 651 459 651 q 363 606 392 651 q 318 497 334 561 q 301 380 302 433 q 384 411 342 383 q 455 485 427 439 q 483 583 483 530 z "},"é":{"ha":754,"x_min":50,"x_max":766,"o":"m 624 1203 l 766 1067 q 699 992 753 1044 q 583 893 645 941 q 481 831 520 846 l 397 899 l 624 1203 m 486 784 q 659 737 602 784 q 716 606 716 690 q 663 443 716 509 q 520 334 610 376 q 304 260 431 292 q 326 180 304 206 q 403 153 347 153 q 488 171 444 153 q 568 215 532 189 q 622 264 604 241 l 684 148 q 613 78 661 115 q 494 15 564 41 q 343 -11 425 -11 q 177 32 243 -11 q 80 145 111 75 q 50 300 50 215 q 107 548 50 437 q 265 722 165 659 q 486 784 365 784 m 483 583 q 471 635 483 618 q 432 651 459 651 q 363 606 392 651 q 318 497 334 561 q 301 380 302 433 q 384 411 342 383 q 455 485 427 439 q 483 583 483 530 z "},"ĕ":{"ha":754,"x_min":50,"x_max":749,"o":"m 486 784 q 659 737 602 784 q 716 606 716 690 q 663 443 716 509 q 520 334 610 376 q 304 260 431 292 q 326 180 304 206 q 403 153 347 153 q 488 171 444 153 q 568 215 532 189 q 622 264 604 241 l 684 148 q 613 78 661 115 q 494 15 564 41 q 343 -11 425 -11 q 177 32 243 -11 q 80 145 111 75 q 50 300 50 215 q 107 548 50 437 q 265 722 165 659 q 486 784 365 784 m 483 583 q 471 635 483 618 q 432 651 459 651 q 363 606 392 651 q 318 497 334 561 q 301 380 302 433 q 384 411 342 383 q 455 485 427 439 q 483 583 483 530 m 282 1082 q 285 1112 282 1093 q 290 1140 288 1131 l 418 1140 q 415 1109 415 1121 q 423 1063 415 1080 q 452 1038 431 1046 q 513 1029 473 1029 q 591 1059 567 1029 q 623 1140 615 1090 l 748 1140 q 749 1117 749 1133 q 722 1005 749 1059 q 639 917 695 951 q 502 882 583 882 q 334 933 385 882 q 282 1082 282 985 z "},"ě":{"ha":754,"x_min":50,"x_max":790,"o":"m 358 1153 l 503 1024 l 690 1152 l 790 1107 l 538 853 l 416 853 l 273 1107 l 358 1153 m 486 784 q 659 737 602 784 q 716 606 716 690 q 663 443 716 509 q 520 334 610 376 q 304 260 431 292 q 326 180 304 206 q 403 153 347 153 q 488 171 444 153 q 568 215 532 189 q 622 264 604 241 l 684 148 q 613 78 661 115 q 494 15 564 41 q 343 -11 425 -11 q 177 32 243 -11 q 80 145 111 75 q 50 300 50 215 q 107 548 50 437 q 265 722 165 659 q 486 784 365 784 m 483 583 q 471 635 483 618 q 432 651 459 651 q 363 606 392 651 q 318 497 334 561 q 301 380 302 433 q 384 411 342 383 q 455 485 427 439 q 483 583 483 530 z "},"ê":{"ha":754,"x_min":50,"x_max":751,"o":"m 485 1133 l 607 1133 l 751 879 l 646 833 l 524 951 l 327 833 l 233 879 l 485 1133 m 486 784 q 659 737 602 784 q 716 606 716 690 q 663 443 716 509 q 520 334 610 376 q 304 260 431 292 q 326 180 304 206 q 403 153 347 153 q 488 171 444 153 q 568 215 532 189 q 622 264 604 241 l 684 148 q 613 78 661 115 q 494 15 564 41 q 343 -11 425 -11 q 177 32 243 -11 q 80 145 111 75 q 50 300 50 215 q 107 548 50 437 q 265 722 165 659 q 486 784 365 784 m 483 583 q 471 635 483 618 q 432 651 459 651 q 363 606 392 651 q 318 497 334 561 q 301 380 302 433 q 384 411 342 383 q 455 485 427 439 q 483 583 483 530 z "},"ë":{"ha":754,"x_min":50,"x_max":779,"o":"m 228 1019 q 243 1087 228 1056 q 287 1136 258 1118 q 353 1154 315 1154 q 407 1138 383 1154 q 445 1099 431 1123 q 458 1047 458 1074 q 426 946 458 985 q 330 907 393 907 q 280 923 304 907 q 242 965 256 939 q 228 1019 228 991 m 549 1018 q 564 1087 549 1056 q 607 1136 579 1118 q 672 1154 635 1154 q 728 1138 703 1154 q 766 1098 752 1123 q 779 1047 779 1074 q 746 947 779 986 q 650 907 713 907 q 600 923 623 907 q 563 965 577 939 q 549 1018 549 991 m 486 784 q 659 737 602 784 q 716 606 716 690 q 663 443 716 509 q 520 334 610 376 q 304 260 431 292 q 326 180 304 206 q 403 153 347 153 q 488 171 444 153 q 568 215 532 189 q 622 264 604 241 l 684 148 q 613 78 661 115 q 494 15 564 41 q 343 -11 425 -11 q 177 32 243 -11 q 80 145 111 75 q 50 300 50 215 q 107 548 50 437 q 265 722 165 659 q 486 784 365 784 m 483 583 q 471 635 483 618 q 432 651 459 651 q 363 606 392 651 q 318 497 334 561 q 301 380 302 433 q 384 411 342 383 q 455 485 427 439 q 483 583 483 530 z "},"ė":{"ha":754,"x_min":50,"x_max":716,"o":"m 486 784 q 659 737 602 784 q 716 606 716 690 q 663 443 716 509 q 520 334 610 376 q 304 260 431 292 q 326 180 304 206 q 403 153 347 153 q 488 171 444 153 q 568 215 532 189 q 622 264 604 241 l 684 148 q 613 78 661 115 q 494 15 564 41 q 343 -11 425 -11 q 177 32 243 -11 q 80 145 111 75 q 50 300 50 215 q 107 548 50 437 q 265 722 165 659 q 486 784 365 784 m 483 583 q 471 635 483 618 q 432 651 459 651 q 363 606 392 651 q 318 497 334 561 q 301 380 302 433 q 384 411 342 383 q 455 485 427 439 q 483 583 483 530 m 380 1002 q 398 1071 380 1039 q 449 1121 416 1103 q 523 1140 481 1140 q 585 1125 558 1140 q 628 1085 612 1110 q 643 1030 643 1060 q 626 959 643 991 q 576 909 609 928 q 495 890 543 890 q 439 905 465 890 q 396 946 412 920 q 380 1002 380 971 z "},"è":{"ha":754,"x_min":50,"x_max":716,"o":"m 486 784 q 659 737 602 784 q 716 606 716 690 q 663 443 716 509 q 520 334 610 376 q 304 260 431 292 q 326 180 304 206 q 403 153 347 153 q 488 171 444 153 q 568 215 532 189 q 622 264 604 241 l 684 148 q 613 78 661 115 q 494 15 564 41 q 343 -11 425 -11 q 177 32 243 -11 q 80 145 111 75 q 50 300 50 215 q 107 548 50 437 q 265 722 165 659 q 486 784 365 784 m 483 583 q 471 635 483 618 q 432 651 459 651 q 363 606 392 651 q 318 497 334 561 q 301 380 302 433 q 384 411 342 383 q 455 485 427 439 q 483 583 483 530 m 328 1203 l 555 899 l 471 831 q 370 893 432 846 q 253 992 307 941 q 186 1067 199 1044 l 328 1203 z "},"ē":{"ha":754,"x_min":50,"x_max":716,"o":"m 486 784 q 659 737 602 784 q 716 606 716 690 q 663 443 716 509 q 520 334 610 376 q 304 260 431 292 q 326 180 304 206 q 403 153 347 153 q 488 171 444 153 q 568 215 532 189 q 622 264 604 241 l 684 148 q 613 78 661 115 q 494 15 564 41 q 343 -11 425 -11 q 177 32 243 -11 q 80 145 111 75 q 50 300 50 215 q 107 548 50 437 q 265 722 165 659 q 486 784 365 784 m 483 583 q 471 635 483 618 q 432 651 459 651 q 363 606 392 651 q 318 497 334 561 q 301 380 302 433 q 384 411 342 383 q 455 485 427 439 q 483 583 483 530 m 706 1095 l 694 946 l 289 946 l 301 1095 l 706 1095 z "},"ę":{"ha":754,"x_min":50,"x_max":716,"o":"m 403 153 q 488 171 444 153 q 568 215 532 189 q 622 264 604 241 l 684 148 q 634 94 667 123 q 557 43 601 66 q 474 -17 516 18 q 405 -85 432 -52 q 377 -139 377 -119 q 389 -177 377 -166 q 422 -188 401 -188 q 473 -177 450 -188 q 526 -144 496 -167 l 554 -262 q 458 -326 513 -305 q 331 -346 404 -346 q 255 -328 288 -346 q 204 -280 222 -310 q 186 -214 186 -250 q 212 -134 186 -174 q 276 -63 238 -94 q 351 -11 313 -31 l 343 -11 q 177 32 243 -11 q 80 145 111 75 q 50 300 50 215 q 107 548 50 437 q 265 722 165 659 q 486 784 365 784 q 659 737 602 784 q 716 606 716 690 q 663 443 716 509 q 520 334 610 376 q 304 260 431 292 q 326 180 304 206 q 403 153 347 153 m 432 651 q 363 606 392 651 q 318 497 334 561 q 301 380 302 433 q 384 411 342 383 q 455 485 427 439 q 483 583 483 530 q 471 635 483 618 q 432 651 459 651 z "},"f":{"ha":519,"x_min":75,"x_max":648,"o":"m 78 627 l 106 773 l 181 773 l 194 844 q 250 994 206 928 q 366 1096 294 1059 q 526 1133 437 1133 q 648 1115 604 1133 l 606 954 q 572 974 597 962 q 522 986 547 986 q 483 978 500 986 q 453 947 467 970 q 433 881 440 924 l 414 773 l 542 773 l 524 627 l 397 627 l 311 0 l 75 0 l 161 627 l 78 627 z "},"ḟ":{"ha":519,"x_min":75,"x_max":648,"o":"m 221 1214 q 239 1283 221 1251 q 290 1334 257 1315 q 363 1352 322 1352 q 426 1337 399 1352 q 468 1297 453 1322 q 484 1242 484 1272 q 467 1172 484 1203 q 416 1121 450 1140 q 336 1103 383 1103 q 279 1118 306 1103 q 237 1158 253 1133 q 221 1214 221 1183 m 78 627 l 106 773 l 181 773 l 194 844 q 250 994 206 928 q 366 1096 294 1059 q 526 1133 437 1133 q 648 1115 604 1133 l 606 954 q 572 974 597 962 q 522 986 547 986 q 483 978 500 986 q 453 947 467 970 q 433 881 440 924 l 414 773 l 542 773 l 524 627 l 397 627 l 311 0 l 75 0 l 161 627 l 78 627 z "},"g":{"ha":861,"x_min":47,"x_max":819,"o":"m 819 784 l 708 -20 q 560 -276 683 -201 q 267 -351 437 -351 q 163 -340 220 -351 q 83 -320 106 -330 l 119 -147 q 159 -170 127 -155 q 234 -197 192 -185 q 313 -209 275 -209 q 413 -172 381 -209 q 458 -66 446 -136 l 501 174 q 411 43 467 98 q 275 -11 354 -11 q 101 70 155 -11 q 47 279 47 150 q 102 525 47 409 q 265 712 157 640 q 524 784 373 784 q 610 775 564 784 q 692 753 657 766 l 819 784 m 360 155 q 425 196 392 155 q 484 297 458 238 q 526 412 511 357 l 557 639 q 507 642 536 642 q 394 591 441 642 q 323 459 347 540 q 300 294 300 379 q 360 155 300 155 z "},"ğ":{"ha":861,"x_min":47,"x_max":819,"o":"m 819 784 l 708 -20 q 560 -276 683 -201 q 267 -351 437 -351 q 163 -340 220 -351 q 83 -320 106 -330 l 119 -147 q 159 -170 127 -155 q 234 -197 192 -185 q 313 -209 275 -209 q 413 -172 381 -209 q 458 -66 446 -136 l 501 174 q 411 43 467 98 q 275 -11 354 -11 q 101 70 155 -11 q 47 279 47 150 q 102 525 47 409 q 265 712 157 640 q 524 784 373 784 q 610 775 564 784 q 692 753 657 766 l 819 784 m 360 155 q 425 196 392 155 q 484 297 458 238 q 526 412 511 357 l 557 639 q 507 642 536 642 q 394 591 441 642 q 323 459 347 540 q 300 294 300 379 q 360 155 300 155 m 338 1082 q 341 1112 338 1093 q 347 1140 344 1131 l 474 1140 q 471 1109 471 1121 q 479 1063 471 1080 q 509 1038 488 1046 q 569 1029 530 1029 q 647 1059 623 1029 q 680 1140 671 1090 l 804 1140 q 805 1117 805 1133 q 778 1005 805 1059 q 695 917 751 951 q 558 882 640 882 q 390 933 441 882 q 338 1082 338 985 z "},"ǧ":{"ha":861,"x_min":47,"x_max":846,"o":"m 819 784 l 708 -20 q 560 -276 683 -201 q 267 -351 437 -351 q 163 -340 220 -351 q 83 -320 106 -330 l 119 -147 q 159 -170 127 -155 q 234 -197 192 -185 q 313 -209 275 -209 q 413 -172 381 -209 q 458 -66 446 -136 l 501 174 q 411 43 467 98 q 275 -11 354 -11 q 101 70 155 -11 q 47 279 47 150 q 102 525 47 409 q 265 712 157 640 q 524 784 373 784 q 610 775 564 784 q 692 753 657 766 l 819 784 m 360 155 q 425 196 392 155 q 484 297 458 238 q 526 412 511 357 l 557 639 q 507 642 536 642 q 394 591 441 642 q 323 459 347 540 q 300 294 300 379 q 360 155 300 155 m 414 1153 l 559 1024 l 746 1152 l 846 1107 l 594 853 l 473 853 l 329 1107 l 414 1153 z "},"ĝ":{"ha":861,"x_min":47,"x_max":819,"o":"m 541 1133 l 663 1133 l 807 879 l 702 833 l 580 951 l 383 833 l 290 879 l 541 1133 m 819 784 l 708 -20 q 560 -276 683 -201 q 267 -351 437 -351 q 163 -340 220 -351 q 83 -320 106 -330 l 119 -147 q 159 -170 127 -155 q 234 -197 192 -185 q 313 -209 275 -209 q 413 -172 381 -209 q 458 -66 446 -136 l 501 174 q 411 43 467 98 q 275 -11 354 -11 q 101 70 155 -11 q 47 279 47 150 q 102 525 47 409 q 265 712 157 640 q 524 784 373 784 q 610 775 564 784 q 692 753 657 766 l 819 784 m 360 155 q 425 196 392 155 q 484 297 458 238 q 526 412 511 357 l 557 639 q 507 642 536 642 q 394 591 441 642 q 323 459 347 540 q 300 294 300 379 q 360 155 300 155 z "},"ģ":{"ha":861,"x_min":47,"x_max":819,"o":"m 528 847 q 473 874 498 853 q 434 925 448 895 q 420 991 420 956 q 444 1092 420 1046 q 503 1166 467 1137 q 576 1202 539 1195 l 644 1154 l 642 1137 q 611 1104 626 1127 q 595 1049 595 1082 q 609 1003 595 1023 q 642 981 622 983 l 634 918 l 528 847 m 819 784 l 708 -20 q 560 -276 683 -201 q 267 -351 437 -351 q 163 -340 220 -351 q 83 -320 106 -330 l 119 -147 q 159 -170 127 -155 q 234 -197 192 -185 q 313 -209 275 -209 q 413 -172 381 -209 q 458 -66 446 -136 l 501 174 q 411 43 467 98 q 275 -11 354 -11 q 101 70 155 -11 q 47 279 47 150 q 102 525 47 409 q 265 712 157 640 q 524 784 373 784 q 610 775 564 784 q 692 753 657 766 l 819 784 m 360 155 q 425 196 392 155 q 484 297 458 238 q 526 412 511 357 l 557 639 q 507 642 536 642 q 394 591 441 642 q 323 459 347 540 q 300 294 300 379 q 360 155 300 155 z "},"ġ":{"ha":861,"x_min":47,"x_max":819,"o":"m 819 784 l 708 -20 q 560 -276 683 -201 q 267 -351 437 -351 q 163 -340 220 -351 q 83 -320 106 -330 l 119 -147 q 159 -170 127 -155 q 234 -197 192 -185 q 313 -209 275 -209 q 413 -172 381 -209 q 458 -66 446 -136 l 501 174 q 411 43 467 98 q 275 -11 354 -11 q 101 70 155 -11 q 47 279 47 150 q 102 525 47 409 q 265 712 157 640 q 524 784 373 784 q 610 775 564 784 q 692 753 657 766 l 819 784 m 360 155 q 425 196 392 155 q 484 297 458 238 q 526 412 511 357 l 557 639 q 507 642 536 642 q 394 591 441 642 q 323 459 347 540 q 300 294 300 379 q 360 155 300 155 m 437 1002 q 455 1071 437 1039 q 505 1121 473 1103 q 579 1140 538 1140 q 642 1125 614 1140 q 684 1085 669 1110 q 699 1030 699 1060 q 682 959 699 991 q 632 909 665 928 q 551 890 599 890 q 495 905 522 890 q 453 946 469 920 q 437 1002 437 971 z "},"ḡ":{"ha":861,"x_min":47,"x_max":819,"o":"m 819 784 l 708 -20 q 560 -276 683 -201 q 267 -351 437 -351 q 163 -340 220 -351 q 83 -320 106 -330 l 119 -147 q 159 -170 127 -155 q 234 -197 192 -185 q 313 -209 275 -209 q 413 -172 381 -209 q 458 -66 446 -136 l 501 174 q 411 43 467 98 q 275 -11 354 -11 q 101 70 155 -11 q 47 279 47 150 q 102 525 47 409 q 265 712 157 640 q 524 784 373 784 q 610 775 564 784 q 692 753 657 766 l 819 784 m 360 155 q 425 196 392 155 q 484 297 458 238 q 526 412 511 357 l 557 639 q 507 642 536 642 q 394 591 441 642 q 323 459 347 540 q 300 294 300 379 q 360 155 300 155 m 762 1095 l 750 946 l 345 946 l 357 1095 l 762 1095 z "},"h":{"ha":891,"x_min":53,"x_max":811,"o":"m 623 784 q 763 736 715 784 q 811 579 811 688 q 804 502 811 557 q 784 347 798 446 q 758 161 776 284 q 735 0 740 35 l 493 0 q 541 346 524 209 q 559 534 557 484 q 548 586 562 570 q 505 602 534 602 q 424 566 467 602 q 353 474 382 531 l 288 0 l 53 0 l 202 1108 l 438 1108 l 387 727 l 368 625 q 479 742 414 700 q 623 784 545 784 z "},"ħ":{"ha":891,"x_min":53,"x_max":811,"o":"m 623 784 q 763 736 715 784 q 811 579 811 688 q 804 502 811 557 q 784 347 798 446 q 758 161 776 284 q 735 0 740 35 l 493 0 q 541 346 524 209 q 559 534 557 484 q 548 586 562 570 q 505 602 534 602 q 424 566 467 602 q 353 474 382 531 l 288 0 l 53 0 l 168 856 l 85 856 l 96 944 l 180 944 l 202 1108 l 438 1108 l 416 944 l 559 944 l 548 856 l 404 856 l 387 727 l 368 625 q 479 742 414 700 q 623 784 545 784 z "},"ĥ":{"ha":891,"x_min":53,"x_max":857,"o":"m 623 784 q 763 736 715 784 q 811 579 811 688 q 804 502 811 557 q 784 347 798 446 q 758 161 776 284 q 735 0 740 35 l 493 0 q 541 346 524 209 q 559 534 557 484 q 548 586 562 570 q 505 602 534 602 q 424 566 467 602 q 353 474 382 531 l 288 0 l 53 0 l 202 1108 l 438 1108 l 435 1080 l 591 1227 l 713 1227 l 857 999 l 759 946 l 635 1059 l 440 946 l 418 956 l 387 727 l 368 625 q 479 742 414 700 q 623 784 545 784 z "},"i":{"ha":450,"x_min":54,"x_max":459,"o":"m 404 773 l 296 0 l 54 0 l 160 773 l 404 773 m 197 1002 q 215 1071 197 1039 q 265 1121 233 1103 q 339 1140 298 1140 q 401 1125 374 1140 q 444 1085 429 1110 q 459 1030 459 1060 q 442 959 459 991 q 392 909 425 928 q 311 890 359 890 q 255 905 281 890 q 213 946 229 920 q 197 1002 197 971 z "},"ı":{"ha":450,"x_min":54,"x_max":404,"o":"m 404 773 l 296 0 l 54 0 l 160 773 l 404 773 z "},"í":{"ha":450,"x_min":54,"x_max":582,"o":"m 440 1203 l 582 1067 q 515 992 570 1044 q 399 893 461 941 q 298 831 336 846 l 214 899 l 440 1203 m 404 773 l 296 0 l 54 0 l 160 773 l 404 773 z "},"ĭ":{"ha":450,"x_min":54,"x_max":565,"o":"m 404 773 l 296 0 l 54 0 l 160 773 l 404 773 m 98 1082 q 101 1112 98 1093 q 106 1140 104 1131 l 234 1140 q 231 1109 231 1121 q 239 1063 231 1080 q 269 1038 248 1046 q 329 1029 290 1029 q 407 1059 383 1029 q 439 1140 431 1090 l 564 1140 q 565 1117 565 1133 q 538 1005 565 1059 q 455 917 511 951 q 318 882 399 882 q 150 933 201 882 q 98 1082 98 985 z "},"ǐ":{"ha":450,"x_min":54,"x_max":606,"o":"m 404 773 l 296 0 l 54 0 l 160 773 l 404 773 m 174 1153 l 319 1024 l 506 1152 l 606 1107 l 354 853 l 233 853 l 89 1107 l 174 1153 z "},"î":{"ha":450,"x_min":50,"x_max":567,"o":"m 301 1133 l 423 1133 l 567 879 l 462 833 l 340 951 l 143 833 l 50 879 l 301 1133 m 404 773 l 296 0 l 54 0 l 160 773 l 404 773 z "},"ï":{"ha":450,"x_min":44,"x_max":595,"o":"m 44 1019 q 59 1087 44 1056 q 103 1136 75 1118 q 169 1154 132 1154 q 223 1138 199 1154 q 261 1099 248 1123 q 274 1047 274 1074 q 242 946 274 985 q 146 907 210 907 q 96 923 120 907 q 58 965 73 939 q 44 1019 44 991 m 366 1018 q 380 1087 366 1056 q 423 1136 395 1118 q 488 1154 451 1154 q 544 1138 519 1154 q 582 1098 568 1123 q 595 1047 595 1074 q 563 947 595 986 q 466 907 530 907 q 416 923 439 907 q 379 965 393 939 q 366 1018 366 991 m 404 773 l 296 0 l 54 0 l 160 773 l 404 773 z "},"ì":{"ha":450,"x_min":3,"x_max":404,"o":"m 404 773 l 296 0 l 54 0 l 160 773 l 404 773 m 144 1203 l 371 899 l 287 831 q 186 893 248 846 q 69 992 123 941 q 3 1067 15 1044 l 144 1203 z "},"ĳ":{"ha":901,"x_min":54,"x_max":907,"o":"m 404 773 l 296 0 l 54 0 l 160 773 l 404 773 m 197 1002 q 215 1071 197 1039 q 265 1121 233 1103 q 339 1140 298 1140 q 401 1125 374 1140 q 444 1085 429 1110 q 459 1030 459 1060 q 442 959 459 991 q 392 909 425 928 q 311 890 359 890 q 255 905 281 890 q 213 946 229 920 q 197 1002 197 971 m 854 773 l 747 0 q 679 -195 731 -114 q 550 -317 626 -275 q 387 -358 473 -358 q 312 -352 345 -358 q 264 -335 279 -347 l 324 -212 q 350 -218 333 -218 q 438 -184 407 -218 q 484 -98 470 -150 q 511 44 497 -47 l 610 773 l 854 773 m 644 1002 q 662 1071 644 1039 q 713 1121 680 1103 q 787 1140 745 1140 q 849 1125 822 1140 q 891 1085 876 1110 q 907 1030 907 1060 q 890 959 907 991 q 840 909 873 928 q 759 890 806 890 q 703 905 729 890 q 660 946 676 920 q 644 1002 644 971 z "},"ī":{"ha":450,"x_min":54,"x_max":522,"o":"m 404 773 l 296 0 l 54 0 l 160 773 l 404 773 m 522 1095 l 510 946 l 105 946 l 117 1095 l 522 1095 z "},"į":{"ha":450,"x_min":-61,"x_max":490,"o":"m 370 1140 q 433 1125 406 1140 q 475 1085 460 1110 q 490 1030 490 1060 q 473 959 490 991 q 423 909 456 928 q 342 890 390 890 q 286 905 313 890 q 244 946 260 920 q 228 1002 228 971 q 246 1071 228 1039 q 296 1121 264 1103 q 370 1140 329 1140 m 296 0 q 177 -68 225 -29 q 130 -139 130 -107 q 141 -177 130 -166 q 175 -188 153 -188 q 225 -177 202 -188 q 279 -144 249 -167 l 307 -262 q 211 -326 265 -305 q 83 -346 157 -346 q 8 -328 41 -346 q -43 -280 -25 -310 q -61 -214 -61 -250 q -30 -125 -61 -169 q 45 -49 1 -82 q 126 0 89 -16 l 54 0 l 160 773 l 404 773 l 296 0 z "},"ĩ":{"ha":450,"x_min":24,"x_max":610,"o":"m 404 773 l 296 0 l 54 0 l 160 773 l 404 773 m 24 1018 q 73 1080 39 1049 q 148 1132 106 1112 q 224 1152 189 1152 q 277 1143 255 1152 q 313 1122 299 1135 q 347 1090 328 1110 q 383 1058 368 1068 q 420 1047 398 1047 q 461 1056 444 1047 q 491 1077 479 1064 q 519 1110 503 1089 q 529 1122 519 1109 l 610 1023 q 564 958 596 991 q 492 903 532 924 q 413 882 451 882 q 355 890 379 882 q 316 910 331 899 q 283 941 301 922 q 243 975 260 964 q 199 986 227 986 q 146 971 168 986 q 96 926 124 956 l 24 1018 z "},"j":{"ha":450,"x_min":-186,"x_max":456,"o":"m 404 773 l 296 0 q 228 -195 281 -114 q 99 -317 176 -275 q -64 -358 23 -358 q -138 -352 -105 -358 q -186 -335 -171 -347 l -126 -212 q -100 -218 -117 -218 q -12 -184 -43 -218 q 33 -98 20 -150 q 60 44 47 -47 l 160 773 l 404 773 m 194 1002 q 212 1071 194 1039 q 262 1121 230 1103 q 336 1140 295 1140 q 399 1125 372 1140 q 441 1085 426 1110 q 456 1030 456 1060 q 439 959 456 991 q 389 909 422 928 q 309 890 356 890 q 252 905 279 890 q 210 946 226 920 q 194 1002 194 971 z "},"ȷ":{"ha":450,"x_min":-186,"x_max":404,"o":"m 404 773 l 296 0 q 228 -195 281 -114 q 99 -317 176 -275 q -64 -358 23 -358 q -138 -352 -105 -358 q -186 -335 -171 -347 l -126 -212 q -100 -218 -117 -218 q -12 -184 -43 -218 q 33 -98 20 -150 q 60 44 47 -47 l 160 773 l 404 773 z "},"ĵ":{"ha":450,"x_min":-186,"x_max":564,"o":"m 404 773 l 296 0 q 228 -195 281 -114 q 99 -317 176 -275 q -64 -358 23 -358 q -138 -352 -105 -358 q -186 -335 -171 -347 l -126 -212 q -100 -218 -117 -218 q -12 -184 -43 -218 q 33 -98 20 -150 q 60 44 47 -47 l 160 773 l 404 773 m 298 1133 l 420 1133 l 564 879 l 459 833 l 337 951 l 140 833 l 47 879 l 298 1133 z "},"k":{"ha":831,"x_min":53,"x_max":828,"o":"m 439 1108 l 289 0 l 53 0 l 202 1108 l 439 1108 m 801 657 q 710 515 768 577 q 593 422 652 454 l 813 0 l 536 0 l 368 427 l 370 428 l 368 428 q 443 485 412 452 q 498 558 475 517 q 549 656 522 598 q 589 773 574 715 l 828 773 q 801 657 825 717 z "},"ķ":{"ha":831,"x_min":53,"x_max":828,"o":"m 319 -96 l 425 -25 q 480 -52 455 -31 q 518 -103 505 -73 q 532 -169 532 -134 q 509 -270 532 -224 q 450 -344 486 -315 q 377 -380 414 -373 l 309 -332 l 311 -315 q 342 -282 327 -305 q 357 -227 357 -260 q 344 -181 357 -201 q 311 -159 331 -161 l 319 -96 m 439 1108 l 289 0 l 53 0 l 202 1108 l 439 1108 m 801 657 q 710 515 768 577 q 593 422 652 454 l 813 0 l 536 0 l 368 427 l 370 428 l 368 428 q 443 485 412 452 q 498 558 475 517 q 549 656 522 598 q 589 773 574 715 l 828 773 q 801 657 825 717 z "},"ĸ":{"ha":831,"x_min":52,"x_max":827,"o":"m 399 773 l 294 0 l 52 0 l 157 773 l 399 773 m 800 657 q 709 516 767 578 q 593 422 652 454 l 811 0 l 550 0 l 368 427 l 370 428 l 368 428 q 443 485 412 452 q 497 557 474 517 q 547 656 520 597 q 587 773 572 715 l 827 773 q 800 657 824 717 z "},"l":{"ha":451,"x_min":56,"x_max":449,"o":"m 449 1108 l 298 0 l 56 0 l 205 1108 l 449 1108 z "},"ĺ":{"ha":451,"x_min":56,"x_max":558,"o":"m 416 1366 l 558 1239 q 498 1167 541 1206 q 407 1096 456 1128 q 323 1051 357 1063 l 227 1134 l 416 1366 m 439 1038 l 298 0 l 56 0 l 196 1038 l 439 1038 z "},"ľ":{"ha":571,"x_min":56,"x_max":720,"o":"m 449 1108 l 298 0 l 56 0 l 205 1108 l 449 1108 m 513 719 q 533 808 526 751 q 541 923 541 865 q 525 1059 541 1035 l 538 1088 l 693 1120 q 713 1072 706 1107 q 720 992 720 1036 q 693 820 720 907 q 620 683 667 732 l 517 702 l 513 719 z "},"ļ":{"ha":451,"x_min":34,"x_max":449,"o":"m 44 -96 l 150 -25 q 205 -52 180 -31 q 244 -103 230 -73 q 258 -169 258 -134 q 234 -270 258 -224 q 175 -344 211 -315 q 102 -380 139 -373 l 34 -332 l 36 -315 q 67 -282 52 -305 q 83 -227 83 -260 q 70 -181 83 -201 q 37 -159 56 -161 l 44 -96 m 449 1108 l 298 0 l 56 0 l 205 1108 l 449 1108 z "},"ŀ":{"ha":607,"x_min":56,"x_max":680,"o":"m 449 1108 l 298 0 l 56 0 l 205 1108 l 449 1108 m 571 672 q 654 644 627 672 q 680 571 680 616 q 662 493 680 527 q 612 441 644 460 q 536 423 579 423 q 458 452 487 423 q 430 526 430 480 q 447 598 430 565 q 497 652 465 631 q 571 672 529 672 z "},"ǉ":{"ha":901,"x_min":56,"x_max":907,"o":"m 449 1108 l 298 0 l 56 0 l 205 1108 l 449 1108 m 854 773 l 747 0 q 679 -195 732 -114 q 550 -317 627 -275 q 387 -358 474 -358 q 313 -352 346 -358 q 265 -335 280 -347 l 325 -212 q 351 -218 334 -218 q 439 -184 408 -218 q 484 -98 471 -150 q 511 44 498 -47 l 611 773 l 854 773 m 645 1002 q 663 1071 645 1039 q 713 1121 681 1103 q 787 1140 746 1140 q 850 1125 823 1140 q 892 1085 877 1110 q 907 1030 907 1060 q 890 959 907 991 q 840 909 873 928 q 760 890 807 890 q 703 905 730 890 q 661 946 677 920 q 645 1002 645 971 z "},"ł":{"ha":451,"x_min":7,"x_max":516,"o":"m 516 637 l 378 582 l 298 0 l 56 0 l 121 480 l 7 435 l 7 569 l 140 623 l 205 1108 l 449 1108 l 397 728 l 516 777 l 516 637 z "},"m":{"ha":1333,"x_min":52,"x_max":1256,"o":"m 1074 784 q 1209 736 1162 784 q 1256 579 1256 688 q 1229 346 1256 545 l 1194 101 l 1180 0 l 939 0 q 985 346 968 214 q 998 454 992 402 q 1005 534 1004 505 q 993 586 1007 570 q 950 602 979 602 q 877 570 915 602 q 809 486 838 538 q 798 399 799 409 q 791 347 793 362 q 764 161 783 284 q 742 0 747 35 l 500 0 q 547 346 531 209 q 566 534 564 484 q 554 586 568 570 q 511 602 541 602 q 432 568 475 602 q 360 479 390 534 l 294 0 l 52 0 l 157 773 l 391 773 l 381 635 q 494 745 429 705 q 635 784 559 784 q 759 747 713 784 q 815 629 805 711 q 929 743 863 702 q 1074 784 995 784 z "},"ṁ":{"ha":1333,"x_min":52,"x_max":1256,"o":"m 1074 784 q 1209 736 1162 784 q 1256 579 1256 688 q 1229 346 1256 545 l 1194 101 l 1180 0 l 939 0 q 985 346 968 214 q 998 454 992 402 q 1005 534 1004 505 q 993 586 1007 570 q 950 602 979 602 q 877 570 915 602 q 809 486 838 538 q 798 399 799 409 q 791 347 793 362 q 764 161 783 284 q 742 0 747 35 l 500 0 q 547 346 531 209 q 566 534 564 484 q 554 586 568 570 q 511 602 541 602 q 432 568 475 602 q 360 479 390 534 l 294 0 l 52 0 l 157 773 l 391 773 l 381 635 q 494 745 429 705 q 635 784 559 784 q 759 747 713 784 q 815 629 805 711 q 929 743 863 702 q 1074 784 995 784 m 696 1002 q 714 1071 696 1039 q 764 1121 732 1103 q 838 1140 797 1140 q 901 1125 873 1140 q 943 1085 928 1110 q 958 1030 958 1060 q 941 959 958 991 q 891 909 924 928 q 810 890 858 890 q 754 905 781 890 q 712 946 728 920 q 696 1002 696 971 z "},"n":{"ha":895,"x_min":52,"x_max":818,"o":"m 630 784 q 770 736 722 784 q 818 579 818 688 q 811 502 818 557 q 791 347 804 446 q 764 161 783 284 q 742 0 747 35 l 500 0 q 547 346 531 209 q 566 534 564 484 q 554 586 568 570 q 511 602 541 602 q 431 566 473 602 q 359 474 389 531 l 294 0 l 52 0 l 157 773 l 389 773 l 380 633 q 490 744 426 704 q 630 784 554 784 z "},"ń":{"ha":895,"x_min":52,"x_max":856,"o":"m 714 1203 l 856 1067 q 789 992 844 1044 q 673 893 735 941 q 572 831 610 846 l 488 899 l 714 1203 m 630 784 q 770 736 722 784 q 818 579 818 688 q 811 502 818 557 q 791 347 804 446 q 764 161 783 284 q 742 0 747 35 l 500 0 q 547 346 531 209 q 566 534 564 484 q 554 586 568 570 q 511 602 541 602 q 431 566 473 602 q 359 474 389 531 l 294 0 l 52 0 l 157 773 l 389 773 l 380 633 q 490 744 426 704 q 630 784 554 784 z "},"ň":{"ha":895,"x_min":52,"x_max":880,"o":"m 448 1153 l 593 1024 l 780 1152 l 880 1107 l 628 853 l 507 853 l 363 1107 l 448 1153 m 630 784 q 770 736 722 784 q 818 579 818 688 q 811 502 818 557 q 791 347 804 446 q 764 161 783 284 q 742 0 747 35 l 500 0 q 547 346 531 209 q 566 534 564 484 q 554 586 568 570 q 511 602 541 602 q 431 566 473 602 q 359 474 389 531 l 294 0 l 52 0 l 157 773 l 389 773 l 380 633 q 490 744 426 704 q 630 784 554 784 z "},"ņ":{"ha":895,"x_min":52,"x_max":818,"o":"m 288 -96 l 394 -25 q 449 -52 425 -31 q 488 -103 474 -73 q 502 -169 502 -134 q 478 -270 502 -224 q 419 -344 455 -315 q 347 -380 383 -373 l 278 -332 l 280 -315 q 312 -282 296 -305 q 327 -227 327 -260 q 314 -181 327 -201 q 281 -159 300 -161 l 288 -96 m 630 784 q 770 736 722 784 q 818 579 818 688 q 811 502 818 557 q 791 347 804 446 q 764 161 783 284 q 742 0 747 35 l 500 0 q 547 346 531 209 q 566 534 564 484 q 554 586 568 570 q 511 602 541 602 q 431 566 473 602 q 359 474 389 531 l 294 0 l 52 0 l 157 773 l 389 773 l 380 633 q 490 744 426 704 q 630 784 554 784 z "},"ṅ":{"ha":895,"x_min":52,"x_max":818,"o":"m 630 784 q 770 736 722 784 q 818 579 818 688 q 811 502 818 557 q 791 347 804 446 q 764 161 783 284 q 742 0 747 35 l 500 0 q 547 346 531 209 q 566 534 564 484 q 554 586 568 570 q 511 602 541 602 q 431 566 473 602 q 359 474 389 531 l 294 0 l 52 0 l 157 773 l 389 773 l 380 633 q 490 744 426 704 q 630 784 554 784 m 471 1002 q 489 1071 471 1039 q 539 1121 507 1103 q 613 1140 572 1140 q 675 1125 648 1140 q 718 1085 703 1110 q 733 1030 733 1060 q 716 959 733 991 q 666 909 699 928 q 585 890 633 890 q 529 905 555 890 q 487 946 503 920 q 471 1002 471 971 z "},"ŋ":{"ha":897,"x_min":52,"x_max":818,"o":"m 630 784 q 770 736 722 784 q 818 579 818 688 q 791 332 818 532 q 742 0 764 131 q 674 -222 718 -144 q 565 -329 631 -299 q 391 -358 498 -358 q 309 -351 349 -358 q 258 -333 268 -345 l 283 -251 q 309 -257 292 -254 q 334 -259 326 -259 q 417 -231 385 -259 q 468 -147 450 -202 q 500 0 487 -92 l 503 23 q 547 342 531 219 q 566 534 563 466 q 554 586 568 570 q 511 602 541 602 q 431 566 473 602 q 359 474 389 531 l 294 0 l 52 0 l 157 773 l 389 773 l 380 633 q 490 744 426 704 q 630 784 554 784 z "},"ǌ":{"ha":1345,"x_min":52,"x_max":1351,"o":"m 630 784 q 770 736 722 784 q 818 579 818 688 q 811 502 818 557 q 791 347 804 446 q 764 161 783 284 q 742 0 747 35 l 500 0 q 547 346 531 209 q 566 534 564 484 q 554 586 568 570 q 511 602 541 602 q 431 566 473 602 q 359 474 389 531 l 294 0 l 52 0 l 157 773 l 389 773 l 380 633 q 490 744 426 704 q 630 784 554 784 m 1298 773 l 1191 0 q 1123 -195 1175 -114 q 994 -317 1070 -275 q 831 -358 918 -358 q 756 -352 789 -358 q 709 -335 724 -347 l 768 -212 q 794 -218 777 -218 q 883 -184 851 -218 q 928 -98 914 -150 q 955 44 941 -47 l 1055 773 l 1298 773 m 1088 1002 q 1106 1071 1088 1039 q 1157 1121 1124 1103 q 1231 1140 1190 1140 q 1293 1125 1266 1140 q 1336 1085 1320 1110 q 1351 1030 1351 1060 q 1334 959 1351 991 q 1284 909 1317 928 q 1203 890 1251 890 q 1147 905 1173 890 q 1104 946 1120 920 q 1088 1002 1088 971 z "},"ñ":{"ha":895,"x_min":52,"x_max":884,"o":"m 630 784 q 770 736 722 784 q 818 579 818 688 q 811 502 818 557 q 791 347 804 446 q 764 161 783 284 q 742 0 747 35 l 500 0 q 547 346 531 209 q 566 534 564 484 q 554 586 568 570 q 511 602 541 602 q 431 566 473 602 q 359 474 389 531 l 294 0 l 52 0 l 157 773 l 389 773 l 380 633 q 490 744 426 704 q 630 784 554 784 m 298 1018 q 347 1080 313 1049 q 421 1132 380 1112 q 498 1152 463 1152 q 551 1143 529 1152 q 587 1122 573 1135 q 621 1090 602 1110 q 657 1058 642 1068 q 694 1047 672 1047 q 735 1056 718 1047 q 765 1077 753 1064 q 793 1110 777 1089 q 803 1122 793 1109 l 884 1023 q 838 958 870 991 q 766 903 806 924 q 687 882 725 882 q 629 890 653 882 q 590 910 605 899 q 557 941 575 922 q 517 975 534 964 q 473 986 500 986 q 420 971 442 986 q 370 926 398 956 l 298 1018 z "},"o":{"ha":801,"x_min":44,"x_max":757,"o":"m 475 784 q 635 740 572 784 q 728 622 699 696 q 757 455 757 548 q 708 222 757 328 q 561 53 659 116 q 326 -11 464 -11 q 166 33 229 -11 q 74 151 103 77 q 44 318 44 225 q 94 551 44 445 q 240 721 143 657 q 475 784 338 784 m 359 134 q 447 185 412 134 q 498 314 481 235 q 514 478 514 392 q 495 601 514 564 q 439 639 477 639 q 353 586 388 639 q 301 453 317 534 q 284 291 284 373 q 359 134 284 134 z "},"ó":{"ha":801,"x_min":44,"x_max":771,"o":"m 629 1203 l 771 1067 q 705 992 759 1044 q 588 893 650 941 q 487 831 526 846 l 403 899 l 629 1203 m 475 784 q 635 740 572 784 q 728 622 699 696 q 757 455 757 548 q 708 222 757 328 q 561 53 659 116 q 326 -11 464 -11 q 166 33 229 -11 q 74 151 103 77 q 44 318 44 225 q 94 551 44 445 q 240 721 143 657 q 475 784 338 784 m 359 134 q 447 185 412 134 q 498 314 481 235 q 514 478 514 392 q 495 601 514 564 q 439 639 477 639 q 353 586 388 639 q 301 453 317 534 q 284 291 284 373 q 359 134 284 134 z "},"ŏ":{"ha":801,"x_min":44,"x_max":757,"o":"m 475 784 q 635 740 572 784 q 728 622 699 696 q 757 455 757 548 q 708 222 757 328 q 561 53 659 116 q 326 -11 464 -11 q 166 33 229 -11 q 74 151 103 77 q 44 318 44 225 q 94 551 44 445 q 240 721 143 657 q 475 784 338 784 m 359 134 q 447 185 412 134 q 498 314 481 235 q 514 478 514 392 q 495 601 514 564 q 439 639 477 639 q 353 586 388 639 q 301 453 317 534 q 284 291 284 373 q 359 134 284 134 m 288 1082 q 290 1112 288 1093 q 296 1140 293 1131 l 423 1140 q 420 1109 420 1121 q 429 1063 420 1080 q 458 1038 437 1046 q 518 1029 479 1029 q 596 1059 572 1029 q 629 1140 621 1090 l 753 1140 q 754 1117 754 1133 q 727 1005 754 1059 q 645 917 701 951 q 507 882 589 882 q 339 933 391 882 q 288 1082 288 985 z "},"ǒ":{"ha":801,"x_min":44,"x_max":795,"o":"m 475 784 q 635 740 572 784 q 728 622 699 696 q 757 455 757 548 q 708 222 757 328 q 561 53 659 116 q 326 -11 464 -11 q 166 33 229 -11 q 74 151 103 77 q 44 318 44 225 q 94 551 44 445 q 240 721 143 657 q 475 784 338 784 m 359 134 q 447 185 412 134 q 498 314 481 235 q 514 478 514 392 q 495 601 514 564 q 439 639 477 639 q 353 586 388 639 q 301 453 317 534 q 284 291 284 373 q 359 134 284 134 m 363 1153 l 508 1024 l 695 1152 l 795 1107 l 543 853 l 422 853 l 278 1107 l 363 1153 z "},"ô":{"ha":801,"x_min":44,"x_max":757,"o":"m 490 1133 l 612 1133 l 756 879 l 651 833 l 529 951 l 332 833 l 239 879 l 490 1133 m 475 784 q 635 740 572 784 q 728 622 699 696 q 757 455 757 548 q 708 222 757 328 q 561 53 659 116 q 326 -11 464 -11 q 166 33 229 -11 q 74 151 103 77 q 44 318 44 225 q 94 551 44 445 q 240 721 143 657 q 475 784 338 784 m 359 134 q 447 185 412 134 q 498 314 481 235 q 514 478 514 392 q 495 601 514 564 q 439 639 477 639 q 353 586 388 639 q 301 453 317 534 q 284 291 284 373 q 359 134 284 134 z "},"ö":{"ha":801,"x_min":44,"x_max":785,"o":"m 233 1019 q 249 1087 233 1056 q 292 1136 264 1118 q 358 1154 321 1154 q 413 1138 389 1154 q 450 1099 437 1123 q 463 1047 463 1074 q 431 946 463 985 q 335 907 399 907 q 286 923 309 907 q 248 965 262 939 q 233 1019 233 991 m 555 1018 q 570 1087 555 1056 q 612 1136 585 1118 q 677 1154 640 1154 q 733 1138 709 1154 q 771 1098 758 1123 q 785 1047 785 1074 q 752 947 785 986 q 655 907 719 907 q 606 923 629 907 q 569 965 583 939 q 555 1018 555 991 m 475 784 q 635 740 572 784 q 728 622 699 696 q 757 455 757 548 q 708 222 757 328 q 561 53 659 116 q 326 -11 464 -11 q 166 33 229 -11 q 74 151 103 77 q 44 318 44 225 q 94 551 44 445 q 240 721 143 657 q 475 784 338 784 m 359 134 q 447 185 412 134 q 498 314 481 235 q 514 478 514 392 q 495 601 514 564 q 439 639 477 639 q 353 586 388 639 q 301 453 317 534 q 284 291 284 373 q 359 134 284 134 z "},"ò":{"ha":801,"x_min":44,"x_max":757,"o":"m 475 784 q 635 740 572 784 q 728 622 699 696 q 757 455 757 548 q 708 222 757 328 q 561 53 659 116 q 326 -11 464 -11 q 166 33 229 -11 q 74 151 103 77 q 44 318 44 225 q 94 551 44 445 q 240 721 143 657 q 475 784 338 784 m 359 134 q 447 185 412 134 q 498 314 481 235 q 514 478 514 392 q 495 601 514 564 q 439 639 477 639 q 353 586 388 639 q 301 453 317 534 q 284 291 284 373 q 359 134 284 134 m 334 1203 l 560 899 l 476 831 q 375 893 437 846 q 258 992 313 941 q 192 1067 204 1044 l 334 1203 z "},"ő":{"ha":801,"x_min":44,"x_max":885,"o":"m 404 1189 l 547 1096 q 496 1004 538 1061 q 404 897 454 947 q 319 829 353 846 l 225 886 l 404 1189 m 739 1189 l 885 1092 q 832 1001 876 1057 q 733 895 787 945 q 644 829 679 846 l 556 886 l 739 1189 m 475 784 q 635 740 572 784 q 728 622 699 696 q 757 455 757 548 q 708 222 757 328 q 561 53 659 116 q 326 -11 464 -11 q 166 33 229 -11 q 74 151 103 77 q 44 318 44 225 q 94 551 44 445 q 240 721 143 657 q 475 784 338 784 m 359 134 q 447 185 412 134 q 498 314 481 235 q 514 478 514 392 q 495 601 514 564 q 439 639 477 639 q 353 586 388 639 q 301 453 317 534 q 284 291 284 373 q 359 134 284 134 z "},"ō":{"ha":801,"x_min":44,"x_max":757,"o":"m 711 1095 l 699 946 l 294 946 l 307 1095 l 711 1095 m 475 784 q 635 740 572 784 q 728 622 699 696 q 757 455 757 548 q 708 222 757 328 q 561 53 659 116 q 326 -11 464 -11 q 166 33 229 -11 q 74 151 103 77 q 44 318 44 225 q 94 551 44 445 q 240 721 143 657 q 475 784 338 784 m 359 134 q 447 185 412 134 q 498 314 481 235 q 514 478 514 392 q 495 601 514 564 q 439 639 477 639 q 353 586 388 639 q 301 453 317 534 q 284 291 284 373 q 359 134 284 134 z "},"ø":{"ha":800,"x_min":44,"x_max":757,"o":"m 644 735 q 729 620 701 692 q 757 456 757 547 q 708 223 757 330 q 561 54 659 117 q 326 -9 464 -9 q 215 9 264 -9 l 153 -90 l 93 -56 l 155 42 q 72 158 99 85 q 44 319 44 230 q 94 552 44 446 q 240 722 143 659 q 475 785 338 785 q 584 768 536 785 l 650 884 l 711 850 l 644 735 m 439 640 q 353 588 388 640 q 301 455 317 535 q 284 292 284 374 q 286 243 284 265 l 481 623 q 439 640 465 640 m 359 136 q 447 186 412 136 q 498 315 481 237 q 514 479 514 393 q 511 534 514 513 l 315 155 q 359 136 332 136 z "},"ǿ":{"ha":800,"x_min":44,"x_max":757,"o":"m 644 735 q 729 620 701 692 q 757 456 757 547 q 708 223 757 330 q 561 54 659 117 q 326 -9 464 -9 q 215 9 264 -9 l 153 -90 l 93 -56 l 155 42 q 72 158 99 85 q 44 319 44 230 q 94 552 44 446 q 240 722 143 659 q 475 785 338 785 q 584 768 536 785 l 650 884 l 711 850 l 644 735 m 439 640 q 353 588 388 640 q 301 455 317 535 q 284 292 284 374 q 286 243 284 265 l 481 623 q 439 640 465 640 m 359 136 q 447 186 412 136 q 498 315 481 237 q 514 479 514 393 q 511 534 514 513 l 315 155 q 359 136 332 136 m 562 1203 l 704 1067 q 637 992 692 1044 q 521 893 583 941 q 420 831 458 846 l 336 899 l 562 1203 z "},"õ":{"ha":801,"x_min":44,"x_max":799,"o":"m 475 784 q 635 740 572 784 q 728 622 699 696 q 757 455 757 548 q 708 222 757 328 q 561 53 659 116 q 326 -11 464 -11 q 166 33 229 -11 q 74 151 103 77 q 44 318 44 225 q 94 551 44 445 q 240 721 143 657 q 475 784 338 784 m 359 134 q 447 185 412 134 q 498 314 481 235 q 514 478 514 392 q 495 601 514 564 q 439 639 477 639 q 353 586 388 639 q 301 453 317 534 q 284 291 284 373 q 359 134 284 134 m 213 1018 q 262 1080 229 1049 q 337 1132 296 1112 q 414 1152 378 1152 q 466 1143 444 1152 q 503 1122 488 1135 q 536 1090 517 1110 q 572 1058 557 1068 q 610 1047 587 1047 q 651 1056 633 1047 q 680 1077 668 1064 q 709 1110 692 1089 q 718 1122 708 1109 l 799 1023 q 753 958 785 991 q 681 903 722 924 q 602 882 640 882 q 544 890 568 882 q 505 910 520 899 q 472 941 490 922 q 433 975 450 964 q 388 986 416 986 q 335 971 357 986 q 285 926 313 956 l 213 1018 z "},"œ":{"ha":1204,"x_min":44,"x_max":1166,"o":"m 852 153 q 937 171 893 153 q 1018 215 981 189 q 1072 264 1054 241 l 1134 148 q 1062 78 1111 115 q 944 15 1014 41 q 793 -11 874 -11 q 578 73 656 -11 q 326 -11 474 -11 q 166 32 229 -11 q 74 147 103 74 q 44 312 44 220 q 94 546 44 439 q 240 719 143 654 q 475 784 338 784 q 678 696 608 784 q 798 761 733 739 q 935 784 863 784 q 1109 737 1052 784 q 1166 606 1166 690 q 1113 443 1166 509 q 970 334 1059 376 q 754 260 880 292 q 775 180 754 206 q 852 153 796 153 m 882 651 q 812 606 842 651 q 768 497 783 561 q 751 380 752 433 q 834 411 791 383 q 904 485 876 439 q 932 583 932 530 q 921 635 932 618 q 882 651 909 651 m 359 134 q 448 188 413 134 q 500 328 484 241 q 511 420 502 374 q 514 486 514 450 q 495 605 514 570 q 439 639 477 639 q 353 585 388 639 q 301 449 318 531 q 284 285 284 368 q 303 170 284 205 q 359 134 322 134 z "},"p":{"ha":871,"x_min":5,"x_max":824,"o":"m 596 784 q 770 704 716 784 q 824 496 824 625 q 769 250 824 366 q 607 61 715 134 q 347 -11 498 -11 q 291 -7 319 -11 l 244 -334 l 5 -334 l 157 773 l 378 773 l 376 615 q 466 735 411 686 q 596 784 522 784 m 363 132 q 477 183 430 132 q 547 315 524 235 q 571 481 571 395 q 556 585 571 551 q 511 618 542 618 q 443 574 477 618 q 382 466 409 529 q 341 350 355 404 l 311 135 q 363 132 331 132 z "},"ṗ":{"ha":871,"x_min":5,"x_max":824,"o":"m 596 784 q 770 704 716 784 q 824 496 824 625 q 769 250 824 366 q 607 61 715 134 q 347 -11 498 -11 q 291 -7 319 -11 l 244 -334 l 5 -334 l 157 773 l 378 773 l 376 615 q 466 735 411 686 q 596 784 522 784 m 363 132 q 477 183 430 132 q 547 315 524 235 q 571 481 571 395 q 556 585 571 551 q 511 618 542 618 q 443 574 477 618 q 382 466 409 529 q 341 350 355 404 l 311 135 q 363 132 331 132 m 480 1002 q 498 1071 480 1039 q 549 1121 516 1103 q 623 1140 581 1140 q 685 1125 658 1140 q 727 1085 712 1110 q 743 1030 743 1060 q 726 959 743 991 q 675 909 709 928 q 595 890 642 890 q 538 905 565 890 q 496 946 512 920 q 480 1002 480 971 z "},"þ":{"ha":875,"x_min":5,"x_max":827,"o":"m 600 784 q 773 702 720 784 q 827 491 827 621 q 773 247 827 361 q 610 60 718 132 q 351 -11 503 -11 q 279 -4 320 -11 l 273 -96 l 245 -334 l 5 -334 l 52 0 l 204 1108 l 437 1108 l 379 662 l 365 580 q 456 723 397 662 q 600 784 515 784 m 367 132 q 480 182 433 132 q 550 312 527 233 q 574 477 574 391 q 514 618 574 618 q 444 571 479 618 q 381 457 408 523 q 342 338 354 391 l 342 376 l 312 136 q 367 132 332 132 z "},"q":{"ha":867,"x_min":47,"x_max":819,"o":"m 819 784 l 669 -334 l 432 -334 l 476 0 l 507 187 q 416 48 475 107 q 275 -11 357 -11 q 101 70 155 -11 q 47 279 47 150 q 102 525 47 409 q 265 712 157 640 q 524 784 373 784 q 614 775 566 784 q 697 753 663 766 l 819 784 m 360 155 q 423 194 391 155 q 481 290 454 233 q 524 402 507 347 l 556 639 q 507 642 535 642 q 394 591 441 642 q 323 459 347 540 q 300 294 300 379 q 360 155 300 155 z "},"r":{"ha":614,"x_min":53,"x_max":627,"o":"m 578 784 q 608 781 595 784 q 627 774 621 779 l 584 530 q 556 543 577 538 q 516 547 536 547 q 437 533 472 547 q 365 488 401 519 l 363 490 l 295 0 l 53 0 l 159 773 l 392 773 l 381 618 l 380 613 l 381 614 q 425 697 396 659 q 494 760 454 736 q 578 784 534 784 z "},"ŕ":{"ha":614,"x_min":53,"x_max":702,"o":"m 560 1203 l 702 1067 q 635 992 690 1044 q 519 893 581 941 q 418 831 456 846 l 334 899 l 560 1203 m 578 784 q 608 781 595 784 q 627 774 621 779 l 584 530 q 556 543 577 538 q 516 547 536 547 q 437 533 472 547 q 365 488 401 519 l 363 490 l 295 0 l 53 0 l 159 773 l 392 773 l 381 618 l 380 613 l 381 614 q 425 697 396 659 q 494 760 454 736 q 578 784 534 784 z "},"ř":{"ha":614,"x_min":53,"x_max":726,"o":"m 294 1153 l 439 1024 l 626 1152 l 726 1107 l 474 853 l 353 853 l 209 1107 l 294 1153 m 578 784 q 608 781 595 784 q 627 774 621 779 l 584 530 q 556 543 577 538 q 516 547 536 547 q 437 533 472 547 q 365 488 401 519 l 363 490 l 295 0 l 53 0 l 159 773 l 392 773 l 381 618 l 380 613 l 381 614 q 425 697 396 659 q 494 760 454 736 q 578 784 534 784 z "},"ŗ":{"ha":614,"x_min":53,"x_max":627,"o":"m 73 -96 l 178 -25 q 234 -52 209 -31 q 272 -103 258 -73 q 286 -169 286 -134 q 263 -270 286 -224 q 203 -344 239 -315 q 131 -380 168 -373 l 62 -332 l 64 -315 q 96 -282 81 -305 q 111 -227 111 -260 q 98 -181 111 -201 q 65 -159 85 -161 l 73 -96 m 578 784 q 608 781 595 784 q 627 774 621 779 l 584 530 q 556 543 577 538 q 516 547 536 547 q 437 533 472 547 q 365 488 401 519 l 363 490 l 295 0 l 53 0 l 159 773 l 392 773 l 381 618 l 380 613 l 381 614 q 425 697 396 659 q 494 760 454 736 q 578 784 534 784 z "},"s":{"ha":663,"x_min":38,"x_max":606,"o":"m 76 226 q 122 197 90 213 q 193 169 155 180 q 257 158 230 158 q 329 170 302 158 q 355 214 355 182 q 334 260 355 239 q 268 315 313 281 q 214 356 233 340 q 138 444 165 397 q 111 559 111 491 q 149 678 111 627 q 259 756 188 729 q 425 784 330 784 q 531 775 475 784 q 606 759 587 766 l 580 556 q 512 597 559 578 q 420 616 465 616 q 356 601 378 616 q 335 563 335 586 q 349 522 335 538 q 400 476 363 505 q 448 437 431 451 q 526 368 496 399 q 569 303 555 338 q 584 224 584 269 q 539 87 584 140 q 422 12 494 35 q 262 -11 350 -11 q 172 -4 219 -11 q 87 15 124 3 q 38 36 51 26 l 76 226 z "},"ś":{"ha":663,"x_min":38,"x_max":709,"o":"m 567 1203 l 709 1067 q 642 992 696 1044 q 526 893 588 941 q 425 831 463 846 l 340 899 l 567 1203 m 76 226 q 122 197 90 213 q 193 169 155 180 q 257 158 230 158 q 329 170 302 158 q 355 214 355 182 q 334 260 355 239 q 268 315 313 281 q 214 356 233 340 q 138 444 165 397 q 111 559 111 491 q 149 678 111 627 q 259 756 188 729 q 425 784 330 784 q 531 775 475 784 q 606 759 587 766 l 580 556 q 512 597 559 578 q 420 616 465 616 q 356 601 378 616 q 335 563 335 586 q 349 522 335 538 q 400 476 363 505 q 448 437 431 451 q 526 368 496 399 q 569 303 555 338 q 584 224 584 269 q 539 87 584 140 q 422 12 494 35 q 262 -11 350 -11 q 172 -4 219 -11 q 87 15 124 3 q 38 36 51 26 l 76 226 z "},"š":{"ha":663,"x_min":38,"x_max":733,"o":"m 301 1153 l 446 1024 l 633 1152 l 733 1107 l 481 853 l 359 853 l 216 1107 l 301 1153 m 76 226 q 122 197 90 213 q 193 169 155 180 q 257 158 230 158 q 329 170 302 158 q 355 214 355 182 q 334 260 355 239 q 268 315 313 281 q 214 356 233 340 q 138 444 165 397 q 111 559 111 491 q 149 678 111 627 q 259 756 188 729 q 425 784 330 784 q 531 775 475 784 q 606 759 587 766 l 580 556 q 512 597 559 578 q 420 616 465 616 q 356 601 378 616 q 335 563 335 586 q 349 522 335 538 q 400 476 363 505 q 448 437 431 451 q 526 368 496 399 q 569 303 555 338 q 584 224 584 269 q 539 87 584 140 q 422 12 494 35 q 262 -11 350 -11 q 172 -4 219 -11 q 87 15 124 3 q 38 36 51 26 l 76 226 z "},"ş":{"ha":663,"x_min":9,"x_max":606,"o":"m 448 437 q 526 368 496 399 q 569 303 555 338 q 584 224 584 269 q 518 65 584 121 q 347 -5 453 9 q 368 -83 359 -37 q 376 -161 376 -130 q 328 -277 376 -234 q 172 -319 279 -319 q 81 -311 142 -319 q 9 -296 20 -303 l 34 -158 q 58 -166 43 -163 q 87 -169 73 -169 q 177 -151 146 -169 q 211 -84 208 -134 q 212 -47 212 -71 q 210 -8 212 -20 q 105 10 155 -3 q 38 36 54 23 l 76 226 q 122 197 90 213 q 193 169 155 180 q 257 158 230 158 q 329 170 302 158 q 355 214 355 182 q 334 260 355 239 q 268 315 313 281 q 214 356 233 340 q 138 444 165 397 q 111 559 111 491 q 149 678 111 627 q 259 756 188 729 q 425 784 330 784 q 531 775 475 784 q 606 759 587 766 l 580 556 q 512 597 559 578 q 420 616 465 616 q 356 601 378 616 q 335 563 335 586 q 349 522 335 538 q 400 476 363 505 q 448 437 431 451 z "},"ŝ":{"ha":663,"x_min":38,"x_max":694,"o":"m 428 1133 l 550 1133 l 694 879 l 589 833 l 467 951 l 270 833 l 176 879 l 428 1133 m 76 226 q 122 197 90 213 q 193 169 155 180 q 257 158 230 158 q 329 170 302 158 q 355 214 355 182 q 334 260 355 239 q 268 315 313 281 q 214 356 233 340 q 138 444 165 397 q 111 559 111 491 q 149 678 111 627 q 259 756 188 729 q 425 784 330 784 q 531 775 475 784 q 606 759 587 766 l 580 556 q 512 597 559 578 q 420 616 465 616 q 356 601 378 616 q 335 563 335 586 q 349 522 335 538 q 400 476 363 505 q 448 437 431 451 q 526 368 496 399 q 569 303 555 338 q 584 224 584 269 q 539 87 584 140 q 422 12 494 35 q 262 -11 350 -11 q 172 -4 219 -11 q 87 15 124 3 q 38 36 51 26 l 76 226 z "},"ș":{"ha":663,"x_min":38,"x_max":606,"o":"m 177 -96 l 283 -25 q 338 -52 313 -31 q 377 -103 363 -73 q 391 -169 391 -134 q 367 -270 391 -224 q 308 -344 344 -315 q 235 -380 272 -373 l 167 -332 l 169 -315 q 200 -282 185 -305 q 216 -227 216 -260 q 202 -181 216 -201 q 170 -159 189 -161 l 177 -96 m 76 226 q 122 197 90 213 q 193 169 155 180 q 257 158 230 158 q 329 170 302 158 q 355 214 355 182 q 334 260 355 239 q 268 315 313 281 q 214 356 233 340 q 138 444 165 397 q 111 559 111 491 q 149 678 111 627 q 259 756 188 729 q 425 784 330 784 q 531 775 475 784 q 606 759 587 766 l 580 556 q 512 597 559 578 q 420 616 465 616 q 356 601 378 616 q 335 563 335 586 q 349 522 335 538 q 400 476 363 505 q 448 437 431 451 q 526 368 496 399 q 569 303 555 338 q 584 224 584 269 q 539 87 584 140 q 422 12 494 35 q 262 -11 350 -11 q 172 -4 219 -11 q 87 15 124 3 q 38 36 51 26 l 76 226 z "},"ṡ":{"ha":663,"x_min":38,"x_max":606,"o":"m 76 226 q 122 197 90 213 q 193 169 155 180 q 257 158 230 158 q 329 170 302 158 q 355 214 355 182 q 334 260 355 239 q 268 315 313 281 q 214 356 233 340 q 138 444 165 397 q 111 559 111 491 q 149 678 111 627 q 259 756 188 729 q 425 784 330 784 q 531 775 475 784 q 606 759 587 766 l 580 556 q 512 597 559 578 q 420 616 465 616 q 356 601 378 616 q 335 563 335 586 q 349 522 335 538 q 400 476 363 505 q 448 437 431 451 q 526 368 496 399 q 569 303 555 338 q 584 224 584 269 q 539 87 584 140 q 422 12 494 35 q 262 -11 350 -11 q 172 -4 219 -11 q 87 15 124 3 q 38 36 51 26 l 76 226 m 323 1002 q 341 1071 323 1039 q 392 1121 359 1103 q 466 1140 425 1140 q 528 1125 501 1140 q 571 1085 555 1110 q 586 1030 586 1060 q 569 959 586 991 q 519 909 552 928 q 438 890 486 890 q 382 905 408 890 q 339 946 355 920 q 323 1002 323 971 z "},"ß":{"ha":901,"x_min":44,"x_max":871,"o":"m 128 629 q 229 916 156 818 q 391 1045 302 1015 q 592 1075 481 1075 q 738 1051 675 1075 q 836 981 801 1027 q 871 870 871 935 q 856 774 871 814 q 821 709 841 734 q 768 656 800 684 q 724 608 738 627 q 710 562 710 589 q 723 511 710 538 q 768 439 736 483 q 831 337 808 385 q 853 225 853 289 q 817 96 853 149 q 713 16 781 43 q 554 -11 646 -11 q 370 21 427 -11 l 386 200 q 439 168 401 182 q 509 153 477 153 q 588 172 559 153 q 616 234 616 191 q 604 282 616 260 q 567 332 591 304 q 547 357 549 353 q 491 448 512 406 q 469 529 469 490 q 481 586 469 559 q 511 633 494 612 q 557 684 528 654 q 626 761 603 724 q 648 846 648 799 q 624 902 648 880 q 557 925 599 925 q 433 844 486 925 q 359 588 380 763 l 279 0 l 44 0 l 128 629 z "},"t":{"ha":569,"x_min":85,"x_max":559,"o":"m 148 627 l 91 627 l 115 773 l 186 773 l 253 960 l 434 960 l 409 773 l 559 773 l 544 627 l 390 627 l 342 283 q 341 272 342 277 q 339 260 340 266 q 333 195 333 210 q 343 164 333 176 q 380 152 353 152 q 440 169 403 152 q 499 208 477 186 l 536 92 q 408 18 482 50 q 244 -14 334 -14 q 127 25 170 -14 q 85 132 85 63 q 89 186 85 142 q 99 270 94 231 l 148 627 z "},"ŧ":{"ha":569,"x_min":79,"x_max":559,"o":"m 390 627 l 374 509 l 484 509 l 473 421 l 361 421 l 342 283 q 341 272 342 277 q 339 260 340 266 q 333 195 333 210 q 343 164 333 176 q 380 152 353 152 q 440 169 403 152 q 499 208 477 186 l 536 92 q 408 18 482 50 q 244 -14 334 -14 q 127 25 170 -14 q 85 132 85 63 q 89 186 85 142 q 99 270 94 231 l 120 421 l 79 421 l 90 509 l 132 509 l 148 627 l 91 627 l 115 773 l 186 773 l 253 960 l 434 960 l 409 773 l 559 773 l 544 627 l 390 627 z "},"ť":{"ha":569,"x_min":85,"x_max":732,"o":"m 148 627 l 91 627 l 115 773 l 186 773 l 253 960 l 434 960 l 409 773 l 559 773 l 544 627 l 390 627 l 342 283 q 341 272 342 277 q 339 260 340 266 q 333 195 333 210 q 343 164 333 176 q 380 152 353 152 q 440 169 403 152 q 499 208 477 186 l 536 92 q 408 18 482 50 q 244 -14 334 -14 q 127 25 170 -14 q 85 132 85 63 q 89 186 85 142 q 99 270 94 231 l 148 627 m 526 882 q 546 971 538 914 q 554 1086 554 1028 q 538 1222 554 1198 l 551 1251 l 706 1283 q 726 1234 719 1270 q 732 1155 732 1198 q 706 982 732 1070 q 633 846 680 895 l 530 865 l 526 882 z "},"ţ":{"ha":569,"x_min":-28,"x_max":559,"o":"m 342 283 q 341 272 342 277 q 339 260 340 266 q 333 195 333 210 q 343 164 333 176 q 380 152 353 152 q 440 169 403 152 q 499 208 477 186 l 536 92 q 436 30 494 58 q 310 -9 379 2 q 330 -85 321 -41 q 338 -161 338 -130 q 290 -277 338 -234 q 134 -319 241 -319 q 43 -311 104 -319 q -28 -296 -18 -303 l -4 -158 q 20 -166 5 -163 q 50 -169 35 -169 q 139 -151 108 -169 q 173 -84 170 -134 q 174 -47 174 -58 q 172 -1 174 -27 q 107 48 130 14 q 85 132 85 83 q 89 186 85 142 q 99 270 94 231 l 148 627 l 91 627 l 115 773 l 186 773 l 253 960 l 434 960 l 409 773 l 559 773 l 544 627 l 390 627 l 342 283 z "},"ț":{"ha":569,"x_min":85,"x_max":559,"o":"m 139 -96 l 245 -25 q 300 -52 275 -31 q 339 -103 325 -73 q 353 -169 353 -134 q 329 -270 353 -224 q 270 -344 306 -315 q 197 -380 234 -373 l 129 -332 l 131 -315 q 162 -282 147 -305 q 178 -227 178 -260 q 164 -181 178 -201 q 132 -159 151 -161 l 139 -96 m 148 627 l 91 627 l 115 773 l 186 773 l 253 960 l 434 960 l 409 773 l 559 773 l 544 627 l 390 627 l 342 283 q 341 272 342 277 q 339 260 340 266 q 333 195 333 210 q 343 164 333 176 q 380 152 353 152 q 440 169 403 152 q 499 208 477 186 l 536 92 q 408 18 482 50 q 244 -14 334 -14 q 127 25 170 -14 q 85 132 85 63 q 89 186 85 142 q 99 270 94 231 l 148 627 z "},"ṫ":{"ha":569,"x_min":85,"x_max":559,"o":"m 148 627 l 91 627 l 115 773 l 186 773 l 253 960 l 434 960 l 409 773 l 559 773 l 544 627 l 390 627 l 342 283 q 341 272 342 277 q 339 260 340 266 q 333 195 333 210 q 343 164 333 176 q 380 152 353 152 q 440 169 403 152 q 499 208 477 186 l 536 92 q 408 18 482 50 q 244 -14 334 -14 q 127 25 170 -14 q 85 132 85 63 q 89 186 85 142 q 99 270 94 231 l 148 627 m 258 1096 q 276 1165 258 1133 q 326 1216 294 1197 q 400 1234 359 1234 q 463 1219 435 1234 q 505 1179 490 1204 q 520 1124 520 1154 q 503 1054 520 1085 q 453 1003 486 1022 q 372 985 420 985 q 316 1000 342 985 q 274 1040 290 1015 q 258 1096 258 1065 z "},"u":{"ha":876,"x_min":82,"x_max":829,"o":"m 829 773 l 724 0 l 508 0 l 513 132 q 410 28 473 71 q 273 -14 347 -14 q 135 28 189 -14 q 82 164 82 71 q 106 403 82 239 l 157 773 l 397 773 l 349 399 q 331 225 331 263 q 345 176 331 193 q 378 159 358 159 q 450 194 412 159 q 519 283 488 230 l 587 773 l 829 773 z "},"ú":{"ha":876,"x_min":82,"x_max":829,"o":"m 657 1203 l 799 1067 q 732 992 787 1044 q 616 893 678 941 q 515 831 553 846 l 431 899 l 657 1203 m 829 773 l 724 0 l 508 0 l 513 132 q 410 28 473 71 q 273 -14 347 -14 q 135 28 189 -14 q 82 164 82 71 q 106 403 82 239 l 157 773 l 397 773 l 349 399 q 331 225 331 263 q 345 176 331 193 q 378 159 358 159 q 450 194 412 159 q 519 283 488 230 l 587 773 l 829 773 z "},"ŭ":{"ha":876,"x_min":82,"x_max":829,"o":"m 829 773 l 724 0 l 508 0 l 513 132 q 410 28 473 71 q 273 -14 347 -14 q 135 28 189 -14 q 82 164 82 71 q 106 403 82 239 l 157 773 l 397 773 l 349 399 q 331 225 331 263 q 345 176 331 193 q 378 159 358 159 q 450 194 412 159 q 519 283 488 230 l 587 773 l 829 773 m 315 1082 q 318 1112 315 1093 q 323 1140 321 1131 l 451 1140 q 448 1109 448 1121 q 456 1063 448 1080 q 486 1038 465 1046 q 546 1029 507 1029 q 624 1059 600 1029 q 656 1140 648 1090 l 781 1140 q 782 1117 782 1133 q 755 1005 782 1059 q 672 917 728 951 q 535 882 616 882 q 367 933 418 882 q 315 1082 315 985 z "},"ǔ":{"ha":876,"x_min":82,"x_max":829,"o":"m 829 773 l 724 0 l 508 0 l 513 132 q 410 28 473 71 q 273 -14 347 -14 q 135 28 189 -14 q 82 164 82 71 q 106 403 82 239 l 157 773 l 397 773 l 349 399 q 331 225 331 263 q 345 176 331 193 q 378 159 358 159 q 450 194 412 159 q 519 283 488 230 l 587 773 l 829 773 m 391 1153 l 536 1024 l 723 1152 l 823 1107 l 571 853 l 450 853 l 306 1107 l 391 1153 z "},"û":{"ha":876,"x_min":82,"x_max":829,"o":"m 518 1133 l 640 1133 l 784 879 l 679 833 l 557 951 l 360 833 l 267 879 l 518 1133 m 829 773 l 724 0 l 508 0 l 513 132 q 410 28 473 71 q 273 -14 347 -14 q 135 28 189 -14 q 82 164 82 71 q 106 403 82 239 l 157 773 l 397 773 l 349 399 q 331 225 331 263 q 345 176 331 193 q 378 159 358 159 q 450 194 412 159 q 519 283 488 230 l 587 773 l 829 773 z "},"ü":{"ha":876,"x_min":82,"x_max":829,"o":"m 261 1019 q 276 1087 261 1056 q 320 1136 292 1118 q 386 1154 349 1154 q 440 1138 416 1154 q 478 1099 465 1123 q 491 1047 491 1074 q 459 946 491 985 q 363 907 427 907 q 313 923 337 907 q 275 965 290 939 q 261 1019 261 991 m 583 1018 q 597 1087 583 1056 q 640 1136 612 1118 q 705 1154 668 1154 q 761 1138 736 1154 q 799 1098 785 1123 q 812 1047 812 1074 q 780 947 812 986 q 683 907 747 907 q 633 923 656 907 q 596 965 610 939 q 583 1018 583 991 m 829 773 l 724 0 l 508 0 l 513 132 q 410 28 473 71 q 273 -14 347 -14 q 135 28 189 -14 q 82 164 82 71 q 106 403 82 239 l 157 773 l 397 773 l 349 399 q 331 225 331 263 q 345 176 331 193 q 378 159 358 159 q 450 194 412 159 q 519 283 488 230 l 587 773 l 829 773 z "},"ù":{"ha":876,"x_min":82,"x_max":829,"o":"m 829 773 l 724 0 l 508 0 l 513 132 q 410 28 473 71 q 273 -14 347 -14 q 135 28 189 -14 q 82 164 82 71 q 106 403 82 239 l 157 773 l 397 773 l 349 399 q 331 225 331 263 q 345 176 331 193 q 378 159 358 159 q 450 194 412 159 q 519 283 488 230 l 587 773 l 829 773 m 361 1203 l 588 899 l 504 831 q 403 893 465 846 q 286 992 340 941 q 220 1067 232 1044 l 361 1203 z "},"ű":{"ha":876,"x_min":82,"x_max":913,"o":"m 829 773 l 724 0 l 508 0 l 513 132 q 410 28 473 71 q 273 -14 347 -14 q 135 28 189 -14 q 82 164 82 71 q 106 403 82 239 l 157 773 l 397 773 l 349 399 q 331 225 331 263 q 345 176 331 193 q 378 159 358 159 q 450 194 412 159 q 519 283 488 230 l 587 773 l 829 773 m 432 1189 l 574 1096 q 524 1004 566 1061 q 432 897 482 947 q 347 829 381 846 l 253 886 l 432 1189 m 766 1189 l 913 1092 q 860 1001 904 1057 q 761 895 815 945 q 672 829 707 846 l 584 886 l 766 1189 z "},"ū":{"ha":876,"x_min":82,"x_max":829,"o":"m 829 773 l 724 0 l 508 0 l 513 132 q 410 28 473 71 q 273 -14 347 -14 q 135 28 189 -14 q 82 164 82 71 q 106 403 82 239 l 157 773 l 397 773 l 349 399 q 331 225 331 263 q 345 176 331 193 q 378 159 358 159 q 450 194 412 159 q 519 283 488 230 l 587 773 l 829 773 m 739 1095 l 727 946 l 322 946 l 334 1095 l 739 1095 z "},"ų":{"ha":876,"x_min":82,"x_max":829,"o":"m 602 -188 q 653 -177 629 -188 q 706 -144 676 -167 l 734 -262 q 638 -326 692 -305 q 511 -346 584 -346 q 435 -328 468 -346 q 384 -280 402 -310 q 366 -214 366 -250 q 397 -125 366 -169 q 472 -49 429 -82 q 553 0 516 -16 l 508 0 l 513 132 q 410 28 473 71 q 273 -14 347 -14 q 135 28 189 -14 q 82 164 82 71 q 106 403 82 239 l 157 773 l 397 773 l 349 399 q 331 225 331 263 q 345 176 331 193 q 378 159 358 159 q 450 194 412 159 q 519 283 488 230 l 587 773 l 829 773 l 724 0 q 605 -68 652 -29 q 557 -139 557 -107 q 569 -177 557 -166 q 602 -188 581 -188 z "},"ů":{"ha":876,"x_min":82,"x_max":829,"o":"m 318 1015 q 360 1136 318 1089 q 462 1203 401 1183 q 583 1223 522 1223 q 733 1183 677 1223 q 790 1063 790 1142 q 752 946 790 994 q 655 874 715 898 q 530 850 595 850 q 375 893 432 850 q 318 1015 318 936 m 658 1044 q 645 1087 658 1067 q 611 1118 632 1107 q 566 1128 589 1128 q 485 1105 519 1128 q 451 1031 451 1081 q 465 988 451 1008 q 500 958 478 969 q 545 947 522 947 q 625 969 593 947 q 658 1044 658 991 m 829 773 l 724 0 l 508 0 l 513 132 q 410 28 473 71 q 273 -14 347 -14 q 135 28 189 -14 q 82 164 82 71 q 106 403 82 239 l 157 773 l 397 773 l 349 399 q 331 225 331 263 q 345 176 331 193 q 378 159 358 159 q 450 194 412 159 q 519 283 488 230 l 587 773 l 829 773 z "},"ũ":{"ha":876,"x_min":82,"x_max":829,"o":"m 829 773 l 724 0 l 508 0 l 513 132 q 410 28 473 71 q 273 -14 347 -14 q 135 28 189 -14 q 82 164 82 71 q 106 403 82 239 l 157 773 l 397 773 l 349 399 q 331 225 331 263 q 345 176 331 193 q 378 159 358 159 q 450 194 412 159 q 519 283 488 230 l 587 773 l 829 773 m 241 1018 q 290 1080 256 1049 q 365 1132 323 1112 q 441 1152 406 1152 q 494 1143 472 1152 q 530 1122 516 1135 q 564 1090 545 1110 q 600 1058 585 1068 q 637 1047 615 1047 q 679 1056 661 1047 q 708 1077 696 1064 q 736 1110 720 1089 q 746 1122 736 1109 l 827 1023 q 781 958 813 991 q 709 903 749 924 q 630 882 668 882 q 572 890 596 882 q 533 910 548 899 q 500 941 518 922 q 460 975 477 964 q 416 986 444 986 q 363 971 385 986 q 313 926 341 956 l 241 1018 z "},"v":{"ha":772,"x_min":63,"x_max":751,"o":"m 63 773 l 301 773 l 343 322 l 353 187 l 386 231 q 458 380 427 296 q 502 554 489 465 q 514 659 508 592 q 520 773 520 725 l 743 773 q 747 751 743 771 q 751 666 751 732 q 700 430 751 550 q 564 202 650 311 q 372 5 479 94 l 358 -6 l 170 -14 l 132 241 l 63 773 z "},"w":{"ha":1196,"x_min":62,"x_max":1174,"o":"m 1166 773 q 1171 749 1167 770 q 1174 666 1174 728 q 1073 325 1174 491 q 785 5 971 159 l 772 -6 l 596 -14 l 559 230 q 370 5 486 110 l 356 -6 l 170 -14 l 132 241 l 62 773 l 307 773 l 347 322 l 356 180 l 396 232 q 475 382 439 298 q 526 549 511 466 l 503 773 l 735 773 l 768 322 l 777 180 l 817 232 q 888 379 857 296 q 933 554 919 463 q 945 660 939 594 q 951 773 951 726 l 1166 773 z "},"ẃ":{"ha":1196,"x_min":62,"x_max":1174,"o":"m 778 1203 l 920 1067 q 853 992 907 1044 q 736 893 799 941 q 635 831 674 846 l 551 899 l 778 1203 m 1166 773 q 1171 749 1167 770 q 1174 666 1174 728 q 1073 325 1174 491 q 785 5 971 159 l 772 -6 l 596 -14 l 559 230 q 370 5 486 110 l 356 -6 l 170 -14 l 132 241 l 62 773 l 307 773 l 347 322 l 356 180 l 396 232 q 475 382 439 298 q 526 549 511 466 l 503 773 l 735 773 l 768 322 l 777 180 l 817 232 q 888 379 857 296 q 933 554 919 463 q 945 660 939 594 q 951 773 951 726 l 1166 773 z "},"ŵ":{"ha":1196,"x_min":62,"x_max":1174,"o":"m 639 1133 l 761 1133 l 905 879 l 800 833 l 677 951 l 481 833 l 387 879 l 639 1133 m 1166 773 q 1171 749 1167 770 q 1174 666 1174 728 q 1073 325 1174 491 q 785 5 971 159 l 772 -6 l 596 -14 l 559 230 q 370 5 486 110 l 356 -6 l 170 -14 l 132 241 l 62 773 l 307 773 l 347 322 l 356 180 l 396 232 q 475 382 439 298 q 526 549 511 466 l 503 773 l 735 773 l 768 322 l 777 180 l 817 232 q 888 379 857 296 q 933 554 919 463 q 945 660 939 594 q 951 773 951 726 l 1166 773 z "},"ẅ":{"ha":1196,"x_min":62,"x_max":1174,"o":"m 382 1019 q 397 1087 382 1056 q 441 1136 412 1118 q 507 1154 469 1154 q 561 1138 537 1154 q 598 1099 585 1123 q 612 1047 612 1074 q 579 946 612 985 q 484 907 547 907 q 434 923 458 907 q 396 965 410 939 q 382 1019 382 991 m 703 1018 q 718 1087 703 1056 q 761 1136 733 1118 q 826 1154 789 1154 q 882 1138 857 1154 q 920 1098 906 1123 q 933 1047 933 1074 q 900 947 933 986 q 804 907 867 907 q 754 923 777 907 q 717 965 731 939 q 703 1018 703 991 m 1166 773 q 1171 749 1167 770 q 1174 666 1174 728 q 1073 325 1174 491 q 785 5 971 159 l 772 -6 l 596 -14 l 559 230 q 370 5 486 110 l 356 -6 l 170 -14 l 132 241 l 62 773 l 307 773 l 347 322 l 356 180 l 396 232 q 475 382 439 298 q 526 549 511 466 l 503 773 l 735 773 l 768 322 l 777 180 l 817 232 q 888 379 857 296 q 933 554 919 463 q 945 660 939 594 q 951 773 951 726 l 1166 773 z "},"ẁ":{"ha":1196,"x_min":62,"x_max":1174,"o":"m 1166 773 q 1171 749 1167 770 q 1174 666 1174 728 q 1073 325 1174 491 q 785 5 971 159 l 772 -6 l 596 -14 l 559 230 q 370 5 486 110 l 356 -6 l 170 -14 l 132 241 l 62 773 l 307 773 l 347 322 l 356 180 l 396 232 q 475 382 439 298 q 526 549 511 466 l 503 773 l 735 773 l 768 322 l 777 180 l 817 232 q 888 379 857 296 q 933 554 919 463 q 945 660 939 594 q 951 773 951 726 l 1166 773 m 482 1203 l 709 899 l 625 831 q 524 893 586 846 q 407 992 461 941 q 340 1067 353 1044 l 482 1203 z "},"x":{"ha":714,"x_min":-71,"x_max":768,"o":"m 482 379 l 701 0 l 424 0 l 325 225 l 178 0 l -71 0 l 235 408 l 31 773 l 308 773 l 395 559 l 527 773 l 768 773 l 482 379 z "},"y":{"ha":773,"x_min":-62,"x_max":746,"o":"m 742 773 q 746 669 746 753 q 645 225 746 464 q 557 46 604 129 q 463 -100 509 -36 q 433 -141 452 -114 q 341 -257 379 -216 q 249 -325 304 -298 q 114 -351 193 -351 q 19 -336 64 -351 q -62 -300 -26 -321 l -2 -134 q 56 -163 22 -151 q 116 -176 90 -176 q 187 -160 156 -176 q 248 -111 218 -145 q 319 -14 279 -77 l 180 -14 l 142 241 l 64 773 l 303 773 l 353 309 l 376 94 q 456 297 420 186 q 490 408 478 362 q 509 512 502 454 q 523 663 517 569 q 525 739 525 690 l 525 773 l 742 773 z "},"ý":{"ha":773,"x_min":-62,"x_max":746,"o":"m 742 773 q 746 669 746 753 q 645 225 746 464 q 557 46 604 129 q 463 -100 509 -36 q 433 -141 452 -114 q 341 -257 379 -216 q 249 -325 304 -298 q 114 -351 193 -351 q 19 -336 64 -351 q -62 -300 -26 -321 l -2 -134 q 56 -163 22 -151 q 116 -176 90 -176 q 187 -160 156 -176 q 248 -111 218 -145 q 319 -14 279 -77 l 180 -14 l 142 241 l 64 773 l 303 773 l 353 309 l 376 94 q 456 297 420 186 q 490 408 478 362 q 509 512 502 454 q 523 663 517 569 q 525 739 525 690 l 525 773 l 742 773 m 546 1203 l 688 1067 q 621 992 675 1044 q 505 893 567 941 q 404 831 442 846 l 319 899 l 546 1203 z "},"ŷ":{"ha":773,"x_min":-62,"x_max":746,"o":"m 742 773 q 746 669 746 753 q 645 225 746 464 q 557 46 604 129 q 463 -100 509 -36 q 433 -141 452 -114 q 341 -257 379 -216 q 249 -325 304 -298 q 114 -351 193 -351 q 19 -336 64 -351 q -62 -300 -26 -321 l -2 -134 q 56 -163 22 -151 q 116 -176 90 -176 q 187 -160 156 -176 q 248 -111 218 -145 q 319 -14 279 -77 l 180 -14 l 142 241 l 64 773 l 303 773 l 353 309 l 376 94 q 456 297 420 186 q 490 408 478 362 q 509 512 502 454 q 523 663 517 569 q 525 739 525 690 l 525 773 l 742 773 m 407 1133 l 529 1133 l 673 879 l 568 833 l 446 951 l 249 833 l 155 879 l 407 1133 z "},"ÿ":{"ha":773,"x_min":-62,"x_max":746,"o":"m 742 773 q 746 669 746 753 q 645 225 746 464 q 557 46 604 129 q 463 -100 509 -36 q 433 -141 452 -114 q 341 -257 379 -216 q 249 -325 304 -298 q 114 -351 193 -351 q 19 -336 64 -351 q -62 -300 -26 -321 l -2 -134 q 56 -163 22 -151 q 116 -176 90 -176 q 187 -160 156 -176 q 248 -111 218 -145 q 319 -14 279 -77 l 180 -14 l 142 241 l 64 773 l 303 773 l 353 309 l 376 94 q 456 297 420 186 q 490 408 478 362 q 509 512 502 454 q 523 663 517 569 q 525 739 525 690 l 525 773 l 742 773 m 150 1019 q 165 1087 150 1056 q 209 1136 180 1118 q 275 1154 237 1154 q 329 1138 305 1154 q 367 1099 353 1123 q 380 1047 380 1074 q 348 946 380 985 q 252 907 315 907 q 202 923 226 907 q 164 965 178 939 q 150 1019 150 991 m 471 1018 q 486 1087 471 1056 q 529 1136 501 1118 q 594 1154 557 1154 q 650 1138 625 1154 q 688 1098 674 1123 q 701 1047 701 1074 q 668 947 701 986 q 572 907 635 907 q 522 923 545 907 q 485 965 499 939 q 471 1018 471 991 z "},"ẏ":{"ha":773,"x_min":-62,"x_max":746,"o":"m 742 773 q 746 669 746 753 q 645 225 746 464 q 557 46 604 129 q 463 -100 509 -36 q 433 -141 452 -114 q 341 -257 379 -216 q 249 -325 304 -298 q 114 -351 193 -351 q 19 -336 64 -351 q -62 -300 -26 -321 l -2 -134 q 56 -163 22 -151 q 116 -176 90 -176 q 187 -160 156 -176 q 248 -111 218 -145 q 319 -14 279 -77 l 180 -14 l 142 241 l 64 773 l 303 773 l 353 309 l 376 94 q 456 297 420 186 q 490 408 478 362 q 509 512 502 454 q 523 663 517 569 q 525 739 525 690 l 525 773 l 742 773 m 302 1002 q 320 1071 302 1039 q 371 1121 338 1103 q 445 1140 404 1140 q 507 1125 480 1140 q 550 1085 534 1110 q 565 1030 565 1060 q 548 959 565 991 q 498 909 531 928 q 417 890 465 890 q 361 905 387 890 q 318 946 334 920 q 302 1002 302 971 z "},"ỳ":{"ha":773,"x_min":-62,"x_max":746,"o":"m 742 773 q 746 669 746 753 q 645 225 746 464 q 557 46 604 129 q 463 -100 509 -36 q 433 -141 452 -114 q 341 -257 379 -216 q 249 -325 304 -298 q 114 -351 193 -351 q 19 -336 64 -351 q -62 -300 -26 -321 l -2 -134 q 56 -163 22 -151 q 116 -176 90 -176 q 187 -160 156 -176 q 248 -111 218 -145 q 319 -14 279 -77 l 180 -14 l 142 241 l 64 773 l 303 773 l 353 309 l 376 94 q 456 297 420 186 q 490 408 478 362 q 509 512 502 454 q 523 663 517 569 q 525 739 525 690 l 525 773 l 742 773 m 250 1203 l 477 899 l 393 831 q 292 893 354 846 q 175 992 229 941 q 109 1067 121 1044 l 250 1203 z "},"z":{"ha":667,"x_min":-31,"x_max":696,"o":"m 298 184 l 607 184 l 588 0 l -7 0 l -31 31 l 345 566 l 380 592 l 90 592 l 115 773 l 673 773 l 696 743 l 327 205 l 298 184 z "},"ź":{"ha":667,"x_min":-31,"x_max":722,"o":"m 580 1203 l 722 1067 q 655 992 709 1044 q 538 893 601 941 q 437 831 476 846 l 353 899 l 580 1203 m 298 184 l 607 184 l 588 0 l -7 0 l -31 31 l 345 566 l 380 592 l 90 592 l 115 773 l 673 773 l 696 743 l 327 205 l 298 184 z "},"ž":{"ha":667,"x_min":-31,"x_max":746,"o":"m 314 1153 l 458 1024 l 646 1152 l 746 1107 l 494 853 l 372 853 l 229 1107 l 314 1153 m 298 184 l 607 184 l 588 0 l -7 0 l -31 31 l 345 566 l 380 592 l 90 592 l 115 773 l 673 773 l 696 743 l 327 205 l 298 184 z "},"ż":{"ha":667,"x_min":-31,"x_max":696,"o":"m 298 184 l 607 184 l 588 0 l -7 0 l -31 31 l 345 566 l 380 592 l 90 592 l 115 773 l 673 773 l 696 743 l 327 205 l 298 184 m 336 1002 q 354 1071 336 1039 q 405 1121 372 1103 q 479 1140 437 1140 q 541 1125 514 1140 q 584 1085 568 1110 q 599 1030 599 1060 q 582 959 599 991 q 532 909 565 928 q 451 890 498 890 q 395 905 421 890 q 352 946 368 920 q 336 1002 336 971 z "},"ﬁ":{"ha":969,"x_min":75,"x_max":970,"o":"m 708 1002 q 726 1071 708 1039 q 777 1121 744 1103 q 850 1140 809 1140 q 913 1125 886 1140 q 955 1085 940 1110 q 970 1030 970 1060 q 954 959 970 991 q 903 909 937 928 q 823 890 870 890 q 766 905 793 890 q 724 946 740 920 q 708 1002 708 971 m 78 627 l 106 773 l 181 773 l 194 844 q 250 994 206 928 q 366 1096 294 1059 q 526 1133 437 1133 q 588 1129 559 1133 q 641 1115 616 1125 l 599 954 q 568 975 589 964 q 522 986 547 986 q 483 978 500 986 q 453 947 467 970 q 433 881 440 924 l 414 773 l 542 773 l 524 627 l 397 627 l 311 0 l 75 0 l 161 627 l 78 627 m 922 773 l 815 0 l 573 0 l 679 773 l 922 773 z "},"ﬂ":{"ha":970,"x_min":75,"x_max":968,"o":"m 78 627 l 106 773 l 181 773 l 194 844 q 250 994 206 928 q 366 1096 294 1059 q 526 1133 437 1133 q 648 1115 604 1133 l 606 954 q 572 974 597 962 q 522 986 547 986 q 483 978 500 986 q 453 947 467 970 q 433 881 440 924 l 414 773 l 542 773 l 524 627 l 397 627 l 311 0 l 75 0 l 161 627 l 78 627 m 968 1108 l 817 0 l 575 0 l 724 1108 l 968 1108 z "},"ª":{"ha":653,"x_min":62,"x_max":713,"o":"m 713 1067 l 604 492 l 456 492 l 452 597 q 352 521 406 549 q 241 492 298 492 q 109 542 156 492 q 62 677 62 591 q 115 871 62 781 q 261 1016 168 962 q 469 1069 354 1069 q 539 1063 501 1069 q 604 1048 576 1057 l 713 1067 m 321 621 q 378 642 348 621 q 439 699 409 663 l 498 967 q 465 971 484 971 q 353 925 399 971 q 287 815 308 879 q 265 699 265 751 q 277 640 265 658 q 321 621 289 621 z "},"º":{"ha":642,"x_min":68,"x_max":680,"o":"m 68 726 q 118 914 68 834 q 250 1036 168 994 q 425 1078 332 1078 q 559 1049 501 1078 q 648 967 616 1021 q 680 837 680 913 q 631 646 680 726 q 499 526 582 566 q 316 486 416 486 q 191 514 248 486 q 101 598 134 543 q 68 726 68 652 m 481 845 q 465 939 481 910 q 407 968 449 968 q 323 928 355 968 q 278 833 292 888 q 264 730 264 778 q 282 633 264 667 q 336 600 299 600 q 450 675 418 600 q 481 845 481 751 z "},"Δ":{"ha":954,"x_min":-37,"x_max":889,"o":"m 503 1023 l 889 18 l 878 0 l -28 0 l -37 15 l 481 1023 l 503 1023 m 467 608 l 266 195 l 616 195 l 467 608 z "},"Ω":{"ha":1125,"x_min":46,"x_max":1048,"o":"m 1048 656 q 1023 491 1048 577 q 948 321 998 405 q 827 171 899 238 l 1038 171 l 1019 0 l 635 0 l 588 128 q 706 239 653 162 q 789 413 759 316 q 819 602 819 510 q 787 751 819 692 q 705 835 755 809 q 598 861 654 861 q 410 785 481 861 q 339 538 339 710 q 360 376 339 463 q 414 221 380 290 q 484 128 447 153 l 422 0 l 46 0 l 68 171 l 275 171 q 161 360 203 255 q 119 569 119 466 q 248 928 119 808 q 623 1048 376 1048 q 843 1005 747 1048 q 993 874 939 962 q 1048 656 1048 787 z "},"μ":{"ha":925,"x_min":35,"x_max":922,"o":"m 35 -252 l 146 543 q 148 568 148 552 q 143 604 148 591 q 127 617 138 617 q 97 609 110 617 q 68 586 83 602 l 35 698 q 81 729 46 709 q 163 767 115 750 q 257 784 210 784 q 361 755 321 784 q 401 667 401 726 q 399 647 401 662 l 356 295 q 353 256 353 276 q 425 163 353 163 q 470 178 444 163 q 518 219 497 193 q 544 280 540 246 l 608 773 l 846 773 l 772 189 q 772 174 772 184 q 779 144 772 155 q 795 132 785 132 q 835 147 813 132 q 869 180 857 161 l 922 90 q 866 39 890 58 q 802 3 842 19 q 708 -12 762 -12 q 619 8 652 -12 q 575 83 586 29 q 510 12 547 35 q 425 -11 473 -11 q 357 1 393 -11 q 305 41 320 12 l 262 -252 l 35 -252 z "},"π":{"ha":1087,"x_min":0,"x_max":1074,"o":"m 856 161 q 900 174 878 161 q 938 202 922 186 q 977 243 954 218 l 1051 154 q 988 75 1030 113 q 886 13 946 37 q 754 -11 825 -11 q 635 33 676 -11 q 595 159 595 76 q 597 197 595 176 l 640 577 l 477 576 l 457 277 q 441 162 453 205 q 411 92 430 119 q 357 35 391 65 q 298 4 333 17 q 221 -11 264 -9 l 83 92 q 110 101 94 94 q 141 121 126 109 q 210 211 190 160 q 239 336 231 262 l 273 576 l 228 576 q 171 569 194 576 q 133 551 147 562 q 100 522 119 541 l 0 565 q 39 677 5 630 q 128 749 73 724 q 252 773 183 773 l 849 773 q 911 785 890 773 q 941 824 931 796 l 1074 824 q 1047 681 1071 734 q 975 602 1023 627 q 849 577 927 577 l 833 577 l 817 241 q 856 161 813 161 z "},"⁄":{"ha":696,"x_min":54,"x_max":691,"o":"m 691 1038 l 229 0 l 54 0 l 515 1038 l 691 1038 z "},"½":{"ha":1736,"x_min":212,"x_max":1575,"o":"m 220 887 l 212 994 q 316 1029 256 1006 q 426 1077 376 1053 q 494 1116 476 1101 l 608 1101 l 508 370 l 301 370 l 377 922 l 220 887 m 1131 1038 l 669 0 l 494 0 l 956 1038 l 1131 1038 m 939 4 q 1097 111 1002 37 q 1262 265 1192 185 q 1333 397 1333 345 q 1313 453 1333 435 q 1257 472 1294 472 q 1147 453 1195 472 q 1067 406 1099 433 l 991 504 q 1060 562 1013 532 q 1173 612 1108 592 q 1304 632 1237 632 q 1444 608 1385 632 q 1535 541 1503 585 q 1566 436 1566 496 q 1528 301 1566 376 q 1420 155 1490 226 q 1260 35 1351 83 l 1575 52 l 1564 -115 l 989 -115 l 939 4 z "},"¼":{"ha":1736,"x_min":212,"x_max":1621,"o":"m 301 370 l 377 922 l 220 887 l 212 994 q 316 1029 256 1006 q 426 1077 376 1053 q 494 1116 476 1101 l 608 1101 l 508 370 l 301 370 m 1131 1038 l 669 0 l 494 0 l 956 1038 l 1131 1038 m 1605 38 l 1473 38 l 1449 -161 l 1261 -161 l 1289 38 l 927 38 l 886 125 l 1259 753 l 1305 753 l 1449 683 l 1147 229 l 1103 171 l 1308 178 l 1331 347 l 1512 362 l 1491 184 l 1621 189 l 1605 38 z "},"¾":{"ha":1736,"x_min":46,"x_max":1621,"o":"m 649 629 q 602 490 649 550 q 476 399 555 431 q 299 367 396 367 q 157 382 229 367 q 46 422 84 397 l 76 551 q 150 522 103 534 q 248 511 197 511 q 340 524 297 511 q 410 566 383 537 q 437 637 437 594 q 417 689 437 671 q 363 709 397 707 l 201 669 l 225 810 q 337 846 296 828 q 396 885 378 865 q 413 931 413 905 q 405 960 413 945 q 378 986 397 975 q 330 997 359 997 q 176 951 238 997 l 125 1074 q 255 1133 181 1113 q 404 1154 328 1154 q 542 1128 491 1154 q 611 1067 592 1103 q 631 994 631 1031 q 599 871 631 922 q 504 796 568 821 q 616 736 583 783 q 649 629 649 689 m 1131 1038 l 669 0 l 494 0 l 956 1038 l 1131 1038 m 1605 38 l 1473 38 l 1449 -161 l 1261 -161 l 1289 38 l 927 38 l 886 125 l 1259 753 l 1305 753 l 1449 683 l 1147 229 l 1103 171 l 1308 178 l 1331 347 l 1512 362 l 1491 184 l 1621 189 l 1605 38 z "},"*":{"ha":926,"x_min":104,"x_max":888,"o":"m 326 743 l 413 780 l 333 816 l 130 903 l 218 1044 l 393 906 l 460 851 l 460 943 l 455 1167 l 616 1167 l 564 943 l 542 851 l 624 906 l 822 1045 l 888 903 l 666 816 l 578 779 l 659 743 l 861 657 l 760 516 l 597 654 l 528 711 l 532 617 l 540 393 l 374 393 l 427 617 l 446 711 l 176 515 l 104 657 l 326 743 z "},"\\":{"ha":579,"x_min":4,"x_max":577,"o":"m 186 1083 l 4 1083 l 395 -245 l 577 -245 l 186 1083 z "},"·":{"ha":465,"x_min":101,"x_max":351,"o":"m 242 667 q 325 639 298 667 q 351 566 351 611 q 333 489 351 522 q 283 437 315 455 q 207 418 250 418 q 130 447 158 418 q 101 522 101 475 q 118 593 101 560 q 168 647 136 627 q 242 667 200 667 z "},"•":{"ha":582,"x_min":158,"x_max":448,"o":"m 158 463 q 181 545 158 504 q 243 611 203 585 q 328 637 282 637 q 389 622 362 637 q 432 580 416 606 q 448 520 448 553 q 426 438 448 479 q 366 370 405 397 q 277 344 327 344 q 217 360 244 344 q 174 403 189 376 q 158 463 158 431 z "},":":{"ha":357,"x_min":6,"x_max":319,"o":"m 147 229 q 230 201 203 229 q 256 128 256 173 q 238 51 256 84 q 188 -1 220 17 q 112 -20 155 -20 q 35 9 63 -20 q 6 83 6 37 q 23 155 6 122 q 73 209 41 189 q 147 229 105 229 m 210 778 q 293 750 267 778 q 319 677 319 722 q 301 599 319 633 q 251 547 283 566 q 175 529 218 529 q 98 557 126 529 q 69 632 69 586 q 86 704 69 671 q 136 758 104 737 q 210 778 168 778 z "},",":{"ha":357,"x_min":-22,"x_max":273,"o":"m 31 73 l 137 200 q 216 144 185 182 q 260 62 247 106 q 273 -21 273 18 q 245 -164 273 -96 q 164 -281 217 -231 q 41 -352 112 -330 l -22 -266 l -20 -252 q 56 -178 27 -227 q 85 -80 85 -130 q 67 -6 85 -37 q 26 36 50 26 l 31 73 z "},"…":{"ha":1070,"x_min":20,"x_max":984,"o":"m 161 229 q 244 201 218 229 q 271 128 271 173 q 253 51 271 84 q 202 -1 235 17 q 126 -20 170 -20 q 49 9 77 -20 q 20 83 20 37 q 38 155 20 122 q 87 209 55 189 q 161 229 119 229 m 518 229 q 601 201 574 229 q 627 128 627 173 q 609 51 627 84 q 559 -1 591 17 q 483 -20 526 -20 q 406 9 434 -20 q 377 83 377 37 q 394 155 377 122 q 444 209 412 189 q 518 229 476 229 m 875 229 q 958 201 931 229 q 984 128 984 173 q 966 51 984 84 q 916 -1 948 17 q 840 -20 883 -20 q 762 9 791 -20 q 734 83 734 37 q 751 155 734 122 q 801 209 768 189 q 875 229 833 229 z "},"!":{"ha":465,"x_min":64,"x_max":476,"o":"m 476 1206 l 311 331 l 136 331 l 229 1206 l 476 1206 m 205 229 q 288 201 262 229 q 315 128 315 173 q 297 51 315 84 q 246 -1 279 17 q 170 -20 214 -20 q 93 9 121 -20 q 64 83 64 37 q 82 155 64 122 q 131 209 99 189 q 205 229 163 229 z "},"‼":{"ha":884,"x_min":64,"x_max":895,"o":"m 895 1206 l 730 331 l 555 331 l 648 1206 l 895 1206 m 625 229 q 707 201 681 229 q 734 128 734 173 q 716 51 734 84 q 665 -1 698 17 q 589 -20 633 -20 q 512 9 541 -20 q 484 83 484 37 q 501 155 484 122 q 550 209 518 189 q 625 229 583 229 m 476 1206 l 311 331 l 136 331 l 229 1206 l 476 1206 m 205 229 q 288 201 262 229 q 315 128 315 173 q 297 51 315 84 q 246 -1 279 17 q 170 -20 214 -20 q 93 9 121 -20 q 64 83 64 37 q 82 155 64 122 q 131 209 99 189 q 205 229 163 229 z "},"¡":{"ha":465,"x_min":12,"x_max":424,"o":"m 283 682 q 200 710 227 682 q 174 783 174 739 q 192 861 174 827 q 242 913 210 895 q 318 931 275 931 q 395 903 367 931 q 424 828 424 874 q 407 756 424 789 q 357 703 389 723 q 283 682 325 682 m 12 -294 l 177 581 l 352 581 l 260 -294 l 12 -294 z "},"#":{"ha":953,"x_min":73,"x_max":890,"o":"m 73 218 l 87 372 l 213 372 l 247 576 l 125 576 l 138 726 l 268 726 l 300 920 l 466 920 l 435 726 l 592 726 l 626 920 l 792 920 l 760 726 l 890 726 l 877 576 l 739 576 l 704 372 l 831 372 l 817 218 l 682 218 l 646 0 l 483 0 l 515 218 l 358 218 l 318 0 l 154 0 l 191 218 l 73 218 m 571 576 l 414 576 l 380 372 l 537 372 l 571 576 z "},".":{"ha":357,"x_min":20,"x_max":271,"o":"m 161 229 q 244 201 218 229 q 271 128 271 173 q 253 51 271 84 q 202 -1 235 17 q 126 -20 170 -20 q 49 9 77 -20 q 20 83 20 37 q 38 155 20 122 q 87 209 55 189 q 161 229 119 229 z "},"?":{"ha":719,"x_min":153,"x_max":734,"o":"m 153 479 q 166 554 153 522 q 217 616 180 586 q 323 682 254 647 q 441 746 397 714 q 500 802 485 777 q 511 842 506 817 q 516 888 516 866 q 491 959 516 926 q 418 1010 465 991 q 310 1029 372 1029 q 170 1014 231 1029 l 208 1170 q 268 1195 224 1185 q 353 1206 312 1206 q 566 1168 481 1206 q 693 1065 652 1131 q 734 913 734 999 q 697 763 734 824 q 611 665 661 701 q 482 587 561 629 q 400 541 429 559 q 352 497 372 522 q 333 441 333 473 q 338 413 333 426 q 352 379 342 399 q 361 359 359 364 l 248 314 l 236 315 q 196 356 216 329 q 165 416 177 383 q 153 479 153 450 m 363 229 q 446 201 419 229 q 472 128 472 173 q 454 51 472 84 q 404 -1 436 17 q 328 -20 371 -20 q 250 9 279 -20 q 222 83 222 37 q 239 155 222 122 q 289 209 256 189 q 363 229 321 229 z "},"¿":{"ha":724,"x_min":31,"x_max":612,"o":"m 293 844 q 311 922 293 888 q 361 974 329 956 q 437 992 394 992 q 515 964 486 992 q 543 889 543 935 q 526 817 543 850 q 476 764 509 784 q 402 743 444 743 q 319 771 346 743 q 293 844 293 800 m 455 -57 q 595 -41 534 -57 l 557 -197 q 497 -223 541 -212 q 412 -233 453 -233 q 199 -196 284 -233 q 72 -92 113 -158 q 31 59 31 -26 q 67 210 31 149 q 154 308 104 271 q 283 385 204 344 q 365 432 336 413 q 413 475 393 450 q 432 532 432 500 q 427 560 432 547 q 413 593 422 573 q 404 614 406 608 l 517 659 l 529 658 q 569 616 549 644 q 600 556 588 589 q 612 493 612 523 q 598 418 612 450 q 548 356 585 387 q 441 291 511 326 q 324 227 368 258 q 264 170 280 195 q 254 131 259 155 q 249 84 249 106 q 274 14 249 46 q 347 -38 300 -19 q 455 -57 393 -57 z "},"\"":{"ha":768,"x_min":146,"x_max":812,"o":"m 426 1144 l 301 655 l 146 655 l 204 1144 l 426 1144 m 812 1144 l 687 655 l 532 655 l 590 1144 l 812 1144 z "},"'":{"ha":382,"x_min":146,"x_max":426,"o":"m 426 1144 l 301 655 l 146 655 l 204 1144 l 426 1144 z "},";":{"ha":357,"x_min":-22,"x_max":321,"o":"m 31 73 l 137 200 q 216 144 185 182 q 260 62 247 106 q 273 -21 273 18 q 245 -164 273 -96 q 164 -281 217 -231 q 41 -352 112 -330 l -22 -266 l -20 -252 q 56 -178 27 -227 q 85 -80 85 -130 q 67 -6 85 -37 q 26 36 50 26 l 31 73 m 212 778 q 295 750 269 778 q 321 677 321 722 q 303 599 321 633 q 253 547 286 566 q 177 529 220 529 q 100 557 128 529 q 71 632 71 586 q 89 704 71 671 q 138 758 106 737 q 212 778 170 778 z "},"/":{"ha":579,"x_min":-96,"x_max":673,"o":"m 488 1083 l 673 1083 l 88 -245 l -96 -245 l 488 1083 z "},"_":{"ha":905,"x_min":-75,"x_max":873,"o":"m 859 -263 l -75 -263 l -62 -127 l 873 -127 l 859 -263 z "},"{":{"ha":694,"x_min":35,"x_max":707,"o":"m 182 370 q 172 397 182 382 q 146 422 162 412 q 101 444 127 435 q 35 462 75 452 l 56 600 l 88 607 q 149 622 128 616 q 186 637 169 627 q 216 660 204 646 q 231 686 229 674 l 290 1051 q 324 1157 302 1119 q 384 1212 346 1196 q 484 1229 422 1229 q 567 1220 517 1229 q 656 1202 616 1212 q 707 1190 696 1193 l 686 1071 l 499 1071 l 435 651 q 418 608 431 625 q 376 574 404 591 q 310 548 363 566 q 237 523 256 529 q 282 501 250 516 q 336 475 315 486 q 366 455 357 464 q 388 428 382 438 q 395 399 395 418 q 393 381 395 395 l 331 -20 l 517 -20 q 509 -79 514 -42 q 503 -132 505 -116 q 255 -184 369 -184 q 153 -153 184 -184 q 123 -62 122 -121 q 148 127 123 -50 q 182 370 172 305 z "},"}":{"ha":694,"x_min":20,"x_max":693,"o":"m 546 678 q 556 651 546 667 q 581 626 566 636 q 627 605 601 613 q 693 587 652 596 l 671 449 l 640 441 q 579 427 600 432 q 541 412 559 421 q 511 388 524 402 q 497 362 499 374 l 437 -3 q 404 -109 426 -71 q 344 -164 382 -147 q 244 -180 306 -180 q 161 -172 211 -180 q 72 -154 111 -163 q 20 -142 32 -144 l 41 -22 l 229 -22 l 292 397 q 310 440 296 424 q 352 475 323 457 q 418 501 364 482 q 491 526 472 519 q 446 547 478 532 q 392 573 413 562 q 362 593 371 585 q 339 621 346 610 q 333 649 333 631 q 334 667 333 654 l 397 1069 l 210 1069 q 218 1127 214 1090 q 225 1181 223 1164 q 473 1233 359 1233 q 575 1201 544 1233 q 605 1111 606 1170 q 580 921 604 1099 q 546 678 555 743 z "},"[":{"ha":579,"x_min":88,"x_max":632,"o":"m 235 1026 q 289 1174 249 1126 q 408 1222 330 1222 q 499 1215 450 1222 q 586 1200 549 1208 q 632 1190 622 1193 l 614 1072 l 441 1072 l 296 -20 l 469 -20 l 454 -138 q 379 -158 406 -151 q 312 -170 353 -165 q 222 -176 272 -176 q 123 -142 159 -176 q 88 -52 88 -109 q 94 22 88 -14 l 235 1026 z "},"]":{"ha":579,"x_min":-11,"x_max":533,"o":"m 387 29 q 332 -119 372 -71 q 213 -167 292 -167 q 122 -160 172 -167 q 36 -145 72 -153 q -11 -135 -1 -138 l 7 -16 l 180 -16 l 325 1076 l 152 1076 l 167 1193 q 242 1213 216 1206 q 309 1225 269 1220 q 399 1231 349 1231 q 498 1198 463 1231 q 533 1107 533 1164 q 528 1033 533 1069 l 387 29 z "},"(":{"ha":579,"x_min":88,"x_max":627,"o":"m 105 576 q 205 883 134 750 q 357 1097 276 1016 q 505 1215 437 1178 l 627 1134 q 431 881 508 1013 q 323 577 354 749 q 304 351 304 475 q 350 51 304 175 q 461 -166 395 -73 l 342 -238 l 330 -238 q 225 -120 280 -197 q 129 82 170 -42 q 88 366 88 206 q 105 576 88 476 z "},")":{"ha":579,"x_min":-13,"x_max":526,"o":"m 509 392 q 409 85 479 218 q 257 -129 338 -47 q 109 -246 176 -210 l -13 -165 q 183 87 106 -45 q 291 391 260 219 q 309 618 309 494 q 264 917 309 793 q 153 1135 218 1041 l 272 1206 l 283 1206 q 389 1088 334 1166 q 485 886 444 1010 q 526 602 526 762 q 509 392 526 492 z "},"—":{"ha":1377,"x_min":151,"x_max":1242,"o":"m 1242 608 l 1217 439 l 151 439 l 176 608 l 1242 608 z "},"–":{"ha":1043,"x_min":151,"x_max":922,"o":"m 922 608 l 897 439 l 151 439 l 176 608 l 922 608 z "},"-":{"ha":859,"x_min":151,"x_max":746,"o":"m 746 608 l 721 439 l 151 439 l 176 608 l 746 608 z "},"«":{"ha":1354,"x_min":118,"x_max":1229,"o":"m 643 757 l 682 618 l 391 410 l 637 206 l 563 90 l 118 359 l 140 488 l 643 757 m 1190 757 l 1229 618 l 937 410 l 1184 206 l 1109 90 l 665 359 l 686 488 l 1190 757 z "},"»":{"ha":1354,"x_min":144,"x_max":1255,"o":"m 184 83 l 144 222 l 436 429 l 189 633 l 264 750 l 709 480 l 687 351 l 184 83 m 730 83 l 691 222 l 983 429 l 736 633 l 810 750 l 1255 480 l 1234 351 l 730 83 z "},"‹":{"ha":807,"x_min":118,"x_max":682,"o":"m 643 757 l 682 618 l 391 410 l 637 206 l 563 90 l 118 359 l 140 488 l 643 757 z "},"›":{"ha":807,"x_min":144,"x_max":709,"o":"m 184 83 l 144 222 l 436 429 l 189 633 l 264 750 l 709 480 l 687 351 l 184 83 z "},"„":{"ha":846,"x_min":9,"x_max":692,"o":"m 328 -15 q 290 -179 328 -104 q 197 -303 252 -253 q 87 -375 142 -353 l 9 -279 l 11 -264 q 59 -222 36 -252 q 98 -151 83 -193 q 113 -56 113 -108 q 100 29 113 -16 q 71 91 87 75 l 74 119 l 204 224 q 262 175 235 208 q 309 94 290 143 q 328 -15 328 45 m 692 -15 q 655 -179 692 -104 q 562 -303 617 -253 q 452 -375 507 -353 l 374 -279 l 376 -264 q 424 -222 401 -252 q 463 -151 448 -193 q 477 -56 477 -108 q 465 29 477 -16 q 435 91 452 75 l 439 119 l 569 224 q 627 175 600 208 q 674 94 655 143 q 692 -15 692 45 z "},"“":{"ha":846,"x_min":140,"x_max":823,"o":"m 505 841 q 543 1005 505 930 q 636 1129 581 1079 q 745 1201 691 1179 l 823 1105 l 822 1090 q 773 1048 797 1078 q 735 977 750 1019 q 720 882 720 934 q 733 797 720 842 q 762 735 746 751 l 759 707 l 629 602 q 570 651 598 618 q 524 732 543 683 q 505 841 505 781 m 140 841 q 177 1005 140 930 q 270 1129 215 1079 q 380 1201 326 1179 l 458 1105 l 456 1090 q 408 1048 431 1078 q 370 977 385 1019 q 355 882 355 934 q 368 797 355 842 q 397 735 380 751 l 393 707 l 263 602 q 205 651 233 618 q 158 732 177 683 q 140 841 140 781 z "},"”":{"ha":846,"x_min":136,"x_max":823,"o":"m 454 961 q 416 797 454 871 q 323 673 378 723 q 214 601 268 623 l 136 696 l 137 711 q 185 753 162 724 q 224 825 209 783 q 239 920 239 868 q 226 1005 239 960 q 197 1067 213 1050 l 200 1095 l 330 1200 q 389 1151 361 1183 q 435 1070 416 1119 q 454 961 454 1021 m 823 961 q 786 797 823 871 q 693 673 748 723 q 583 601 637 623 l 505 696 l 507 711 q 555 753 532 724 q 593 825 578 783 q 608 920 608 868 q 595 1005 608 960 q 566 1067 583 1050 l 570 1095 l 700 1200 q 758 1151 730 1183 q 805 1070 786 1119 q 823 961 823 1021 z "},"‘":{"ha":481,"x_min":140,"x_max":458,"o":"m 140 841 q 177 1005 140 930 q 270 1129 215 1079 q 380 1201 326 1179 l 458 1105 l 456 1090 q 408 1048 431 1078 q 370 977 385 1019 q 355 882 355 934 q 368 797 355 842 q 397 735 380 751 l 393 707 l 263 602 q 205 651 233 618 q 158 732 177 683 q 140 841 140 781 z "},"‛":{"ha":467,"x_min":140,"x_max":430,"o":"m 140 928 q 169 1061 140 1000 q 244 1158 199 1121 q 337 1201 290 1195 l 430 1063 l 426 1035 q 354 972 382 1019 q 326 868 326 925 q 349 767 326 815 q 397 695 371 719 l 395 680 l 305 601 q 185 744 231 660 q 140 928 140 827 z "},"’":{"ha":481,"x_min":115,"x_max":433,"o":"m 433 961 q 396 797 433 871 q 303 673 358 723 q 193 601 248 623 l 115 696 l 117 711 q 165 753 142 724 q 203 825 189 783 q 218 920 218 868 q 205 1005 218 960 q 176 1067 193 1050 l 180 1095 l 310 1200 q 368 1151 340 1183 q 415 1070 396 1119 q 433 961 433 1021 z "},"‚":{"ha":481,"x_min":9,"x_max":328,"o":"m 328 -15 q 290 -179 328 -104 q 197 -303 252 -253 q 87 -375 142 -353 l 9 -279 l 11 -264 q 59 -222 36 -252 q 98 -151 83 -193 q 113 -56 113 -108 q 100 29 113 -16 q 71 91 87 75 l 74 119 l 204 224 q 262 175 235 208 q 309 94 290 143 q 328 -15 328 45 z "}," ":{"ha":329,"x_min":0,"x_max":0,"o":""},"₵":{"ha":984,"x_min":116,"x_max":865,"o":"m 509 -10 q 685 21 606 -7 q 800 90 764 49 l 755 215 q 650 155 702 176 q 531 134 599 134 l 528 134 l 634 891 l 642 892 q 718 885 682 892 q 781 867 755 878 q 816 846 806 856 l 865 1012 l 846 1017 q 760 1039 802 1031 q 656 1048 719 1047 l 682 1230 l 598 1230 l 572 1043 q 336 943 439 1024 q 174 730 233 862 q 116 435 116 599 q 147 236 116 330 q 247 76 178 142 q 425 -6 316 10 l 393 -233 l 477 -233 l 509 -10 m 447 151 q 363 249 391 179 q 336 422 336 318 q 361 626 336 534 q 434 783 387 719 q 548 874 482 847 l 447 151 z "},"¢":{"ha":730,"x_min":62,"x_max":658,"o":"m 408 163 q 466 176 435 163 q 524 206 497 188 q 567 241 551 224 l 627 125 q 538 41 597 79 q 395 -7 479 3 l 362 -186 l 199 -186 l 235 7 q 104 120 146 39 q 62 300 62 201 q 102 518 62 419 q 214 682 142 616 q 380 772 286 748 l 425 968 l 588 968 l 545 780 q 658 755 620 771 l 600 523 q 539 569 579 543 q 465 595 498 595 q 387 567 422 595 q 330 480 351 538 q 309 338 309 422 q 318 238 309 276 q 348 182 327 201 q 408 163 370 163 z "},"₡":{"ha":959,"x_min":138,"x_max":918,"o":"m 476 -9 q 513 -11 502 -11 q 553 -9 527 -11 l 519 -233 l 593 -233 l 628 -2 q 763 34 704 9 q 853 90 821 58 l 808 215 q 730 172 768 189 q 650 144 693 154 l 762 883 q 830 865 802 876 q 869 846 859 855 l 918 1012 q 901 1017 907 1015 q 843 1031 867 1025 q 786 1041 818 1037 l 814 1230 l 741 1230 l 713 1047 q 669 1048 686 1048 q 635 1047 659 1048 l 663 1230 l 589 1230 l 560 1037 q 340 929 436 1010 q 191 720 245 847 q 138 435 138 593 q 164 248 138 336 q 250 94 191 159 q 404 3 309 28 l 368 -233 l 442 -233 l 476 -9 m 611 886 q 663 892 638 892 l 689 891 l 574 134 q 552 134 567 134 q 498 140 523 134 l 611 886 m 430 178 q 357 422 357 248 q 404 689 357 574 q 532 855 450 804 l 430 178 z "},"¤":{"ha":1044,"x_min":136,"x_max":928,"o":"m 829 468 q 784 311 829 382 l 927 168 l 831 73 l 688 216 q 530 171 616 171 q 378 212 448 171 l 235 69 l 138 165 l 280 307 q 244 383 257 342 q 232 468 232 424 q 279 627 232 556 l 136 770 l 232 866 l 375 722 q 530 765 447 765 q 692 718 618 765 l 833 857 l 928 761 l 787 620 q 829 468 829 550 m 530 321 q 601 341 568 321 q 651 395 633 361 q 670 468 670 429 q 651 541 670 507 q 601 594 633 574 q 530 614 568 614 q 460 594 492 614 q 409 541 428 574 q 391 468 391 507 q 409 395 391 429 q 460 341 428 361 q 530 321 492 321 z "},"$":{"ha":817,"x_min":49,"x_max":760,"o":"m 511 598 q 606 518 565 557 q 676 424 647 478 q 707 307 706 370 q 636 96 709 175 q 431 -3 564 17 l 397 -186 l 235 -186 l 267 -7 q 134 19 199 1 q 49 53 68 37 l 127 244 q 216 197 162 217 q 319 177 270 177 q 465 272 465 177 q 452 329 465 302 q 412 383 440 355 q 334 448 384 411 q 152 747 152 585 q 185 881 152 821 q 277 981 218 941 q 416 1038 337 1021 l 447 1216 l 610 1216 l 581 1046 q 687 1025 642 1041 q 760 991 733 1009 l 686 800 q 607 842 663 824 q 502 859 551 859 q 408 836 441 859 q 375 774 375 812 q 389 718 375 743 q 429 668 402 693 q 511 598 456 643 z "},"₫":{"ha":943,"x_min":33,"x_max":996,"o":"m 835 920 l 980 920 l 996 1031 l 850 1031 l 867 1149 l 666 1149 l 649 1031 l 469 1031 l 453 920 l 633 920 l 623 831 q 509 846 575 846 q 302 795 393 846 q 158 652 210 745 q 106 438 106 559 q 138 305 106 359 q 224 224 170 251 q 347 197 278 197 q 478 219 428 197 q 564 271 528 241 l 558 222 l 557 215 q 570 197 557 197 l 733 197 l 835 920 m 312 463 q 332 587 312 532 q 393 674 352 642 q 494 707 434 707 q 597 682 572 707 l 557 389 q 537 375 555 388 q 485 352 519 361 q 408 343 450 343 q 338 373 365 343 q 312 463 312 403 m 787 131 l 51 131 l 33 0 l 768 0 l 787 131 z "},"€":{"ha":942,"x_min":16,"x_max":888,"o":"m 675 1048 q 777 1041 739 1048 q 865 1019 816 1034 q 888 1012 878 1015 l 838 829 q 803 850 829 840 q 743 869 778 861 q 672 876 708 876 q 542 831 599 876 q 446 707 484 787 l 761 707 l 748 583 l 406 583 q 392 479 396 533 l 734 479 l 724 355 l 393 355 q 446 200 402 254 q 572 146 490 146 q 681 169 632 146 q 780 231 730 192 l 827 94 q 758 42 802 66 q 654 4 713 18 q 528 -11 595 -11 q 327 39 407 -11 q 205 172 246 90 q 153 355 163 254 l 16 355 l 28 479 l 150 479 q 162 583 152 526 l 46 583 l 59 707 l 197 707 q 309 889 237 812 q 474 1007 380 966 q 675 1048 568 1048 z "},"ƒ":{"ha":718,"x_min":110,"x_max":715,"o":"m 127 637 l 141 763 l 250 783 l 262 844 q 318 994 274 928 q 433 1096 362 1059 q 594 1133 505 1133 q 715 1115 672 1133 l 673 954 q 642 975 663 964 q 597 986 621 986 q 535 962 557 986 q 500 881 513 939 l 483 783 l 611 783 l 595 637 l 466 637 l 346 -241 l 110 -241 l 230 637 l 127 637 z "},"₣":{"ha":860,"x_min":-25,"x_max":821,"o":"m 105 0 l 322 0 l 341 139 l 544 139 l 566 294 l 363 294 l 382 428 l 681 422 l 702 601 l 406 597 l 444 872 l 797 869 l 821 1038 l 250 1038 l 146 294 l -3 294 l -25 139 l 124 139 l 105 0 z "},"₲":{"ha":1029,"x_min":83,"x_max":927,"o":"m 571 -5 q 672 12 625 1 q 771 39 720 23 q 849 56 820 53 l 918 558 l 549 558 l 529 387 l 695 387 l 664 181 q 591 159 635 166 q 511 153 547 153 q 355 226 406 153 q 304 429 304 299 q 335 637 304 536 q 436 805 366 739 q 617 871 507 871 q 728 858 675 871 q 820 827 781 845 q 879 794 859 809 l 927 991 l 871 1010 q 696 1045 787 1037 l 720 1203 l 584 1203 l 560 1044 q 316 945 425 1028 q 145 724 207 861 q 84 414 83 587 q 119 217 84 309 q 233 63 154 125 q 435 -9 311 1 l 414 -175 l 549 -175 l 571 -5 z "},"₤":{"ha":1021,"x_min":-12,"x_max":970,"o":"m 252 499 l 125 499 l 115 395 l 234 395 l 222 328 q 201 252 215 284 q 171 203 187 219 q 83 182 125 200 q 15 136 41 165 q -12 71 -12 106 q 14 11 -12 35 q 85 -14 39 -14 q 164 7 123 -14 q 233 60 206 28 q 361 32 275 55 q 507 -2 446 9 q 641 -14 568 -14 q 902 65 835 -14 q 970 250 970 144 q 956 323 970 285 q 916 394 941 362 q 859 444 891 427 l 726 336 q 747 318 735 332 q 768 286 760 304 q 777 250 777 268 q 731 172 777 201 q 592 142 684 142 q 474 155 540 142 q 365 182 408 168 q 412 266 393 218 q 445 393 432 314 l 445 395 l 633 395 l 644 499 l 463 499 l 480 603 l 673 603 l 683 707 l 497 707 l 498 713 q 532 827 511 785 q 586 887 554 869 q 661 904 617 904 q 731 888 699 904 q 785 850 764 871 q 810 817 806 829 l 913 973 q 816 1025 879 1002 q 656 1048 753 1048 q 468 1002 545 1048 q 348 884 391 957 q 291 726 304 811 l 288 707 l 165 707 l 155 603 l 270 603 l 252 499 z "},"₺":{"ha":985,"x_min":16,"x_max":939,"o":"m 421 172 l 420 178 l 461 485 l 740 605 l 751 728 l 478 611 l 494 732 l 787 858 l 798 983 l 511 859 l 535 1035 l 307 1035 l 272 756 l 52 661 l 40 536 l 256 629 l 240 509 l 28 418 l 16 294 l 224 383 l 176 0 l 404 0 q 673 54 560 0 q 850 209 785 109 q 934 450 916 310 l 939 488 l 716 488 q 674 318 703 385 q 584 214 644 251 q 422 178 524 178 l 421 172 z "},"₦":{"ha":1287,"x_min":20,"x_max":1299,"o":"m 206 370 l 34 370 l 20 270 l 192 270 l 155 0 l 366 0 l 404 270 l 690 270 l 819 0 l 1025 0 l 1063 270 l 1215 270 l 1230 370 l 1077 370 l 1118 660 l 1285 660 l 1299 760 l 1131 760 l 1170 1032 l 958 1032 l 920 760 l 629 760 l 496 1032 l 299 1032 l 260 760 l 97 760 l 83 660 l 247 660 l 206 370 m 450 777 l 458 760 l 449 760 l 450 777 m 505 660 l 538 589 l 642 370 l 418 370 l 439 519 l 445 660 l 505 660 m 791 429 l 678 660 l 906 660 l 884 502 l 877 370 l 818 370 l 791 429 m 871 249 l 862 270 l 872 270 l 871 249 z "},"₧":{"ha":1088,"x_min":100,"x_max":1109,"o":"m 131 0 l 355 0 l 398 323 q 526 320 431 320 q 821 399 707 320 q 973 629 936 478 l 1095 629 l 1109 728 l 989 728 q 991 770 991 750 q 903 979 991 914 q 647 1044 816 1044 q 549 1042 597 1044 q 492 1038 500 1039 q 381 1034 422 1034 l 272 1034 l 230 728 l 114 728 l 100 629 l 216 629 l 131 0 m 608 891 q 734 849 694 891 q 772 728 774 807 l 454 728 l 475 881 q 542 888 505 886 q 608 891 579 891 m 755 629 q 546 477 710 477 q 420 483 470 476 l 440 629 l 755 629 z "},"₱":{"ha":1036,"x_min":94,"x_max":1034,"o":"m 200 611 l 104 611 l 94 538 l 190 538 l 115 0 l 332 0 l 373 294 q 488 291 392 291 q 657 322 581 291 q 791 410 734 354 q 884 538 848 465 l 1003 538 l 1013 611 l 912 611 q 932 742 932 675 l 1024 742 l 1034 814 l 928 814 q 823 990 911 932 q 581 1048 734 1048 q 446 1042 536 1048 q 359 1038 389 1038 l 260 1038 l 229 814 l 125 814 l 115 742 l 218 742 l 200 611 m 542 897 q 653 876 613 897 q 709 814 694 856 l 445 814 l 456 888 q 499 894 474 892 q 542 897 524 897 m 435 742 l 718 742 l 718 739 q 694 611 715 669 l 416 611 l 435 742 m 656 538 q 585 476 626 498 q 492 454 544 454 q 437 456 465 454 q 396 463 408 458 l 406 538 l 656 538 z "},"₹":{"ha":992,"x_min":119,"x_max":971,"o":"m 568 406 q 713 506 655 441 q 793 662 770 572 l 911 662 l 929 776 l 808 776 l 808 781 q 760 918 808 859 l 954 918 l 971 1034 l 200 1034 l 183 918 l 496 918 q 572 801 572 892 l 571 776 l 177 776 l 159 662 l 550 662 q 319 518 498 518 q 143 524 190 518 l 119 395 q 203 392 139 394 q 303 390 267 390 l 332 390 q 380 314 359 365 q 431 175 401 263 q 480 43 460 87 q 524 0 500 0 l 789 0 q 725 89 753 36 q 661 228 697 142 q 612 338 632 297 q 568 406 591 379 z "},"₪":{"ha":1349,"x_min":13,"x_max":1341,"o":"m 641 893 q 729 880 696 893 q 777 839 762 867 q 791 766 791 811 q 788 718 791 747 l 705 249 l 902 249 l 987 747 q 990 803 990 778 q 937 968 990 905 q 759 1032 884 1032 l 173 1032 l 13 0 l 204 0 l 353 893 l 641 893 m 784 138 q 660 147 705 138 q 593 178 614 156 q 572 240 572 200 q 573 262 572 247 l 656 791 l 458 791 l 370 221 q 368 194 368 212 q 406 84 368 127 q 507 20 444 41 q 647 0 570 0 l 1194 0 l 1341 1032 l 1144 1032 l 1016 138 l 784 138 z "},"£":{"ha":967,"x_min":-42,"x_max":961,"o":"m 846 452 q 906 404 880 437 q 946 331 932 371 q 961 256 961 290 q 893 67 961 148 q 634 -14 825 -14 q 495 -2 559 -14 q 348 30 431 9 q 269 49 296 43 q 212 58 241 55 q 144 6 186 26 q 66 -14 102 -14 q 5 0 30 -14 q -31 34 -19 13 q -42 79 -42 56 q -14 150 -42 119 q 58 197 14 180 q 144 215 101 214 q 171 259 158 233 q 191 326 184 285 l 218 488 l 104 488 l 124 645 l 245 645 l 263 746 q 319 894 277 826 q 438 1005 361 962 q 625 1048 515 1048 q 803 1023 740 1048 q 905 967 867 998 l 789 793 q 764 830 785 807 q 710 872 743 854 q 637 890 677 890 q 540 854 575 890 q 490 729 505 817 l 477 645 l 684 645 l 663 488 l 450 488 l 431 370 q 401 261 420 307 q 360 195 381 216 q 463 171 395 183 q 577 159 530 159 q 708 186 662 159 q 753 258 753 213 q 745 292 753 275 q 724 321 736 309 q 705 338 713 333 l 846 452 z "},"₩":{"ha":1503,"x_min":45,"x_max":1484,"o":"m 246 530 l 58 530 l 45 414 l 261 414 l 315 -1 l 543 -1 l 698 414 l 751 414 l 795 -1 l 1044 -1 l 1207 414 l 1442 414 l 1454 530 l 1253 530 l 1301 656 l 1471 656 l 1484 772 l 1348 772 l 1452 1038 l 1243 1038 l 1145 772 l 899 772 l 875 1038 l 677 1038 l 701 826 l 679 772 l 412 772 l 387 1038 l 182 1038 l 216 772 l 86 772 l 74 656 l 231 656 l 246 530 m 583 530 l 435 530 l 423 656 l 633 656 l 583 530 m 1055 530 l 921 530 l 909 656 l 1102 656 l 1055 530 m 447 414 l 536 414 l 513 356 l 468 206 l 452 356 l 447 414 m 932 414 l 1013 414 l 991 356 l 951 206 l 937 356 l 932 414 z "},"¥":{"ha":996,"x_min":72,"x_max":1029,"o":"m 716 585 l 922 585 l 909 461 l 631 461 l 614 343 l 893 343 l 882 220 l 597 220 l 566 0 l 317 0 l 345 220 l 72 220 l 85 343 l 361 343 l 376 461 l 99 461 l 112 585 l 328 585 l 152 1038 l 393 1038 l 506 659 l 525 585 l 556 659 l 743 1038 l 1029 1038 l 716 585 z "},"Ω":{"ha":1125,"x_min":46,"x_max":1048,"o":"m 1048 656 q 1023 491 1048 577 q 948 321 998 405 q 827 171 899 238 l 1038 171 l 1019 0 l 635 0 l 588 128 q 706 239 653 162 q 789 413 759 316 q 819 602 819 510 q 787 751 819 692 q 705 835 755 809 q 598 861 654 861 q 410 785 481 861 q 339 538 339 710 q 360 376 339 463 q 414 221 380 290 q 484 128 447 153 l 422 0 l 46 0 l 68 171 l 275 171 q 161 360 203 255 q 119 569 119 466 q 248 928 119 808 q 623 1048 376 1048 q 843 1005 747 1048 q 993 874 939 962 q 1048 656 1048 787 z "},"≈":{"ha":721,"x_min":-4,"x_max":762,"o":"m -4 306 q 43 375 6 340 q 130 432 80 410 q 228 455 180 455 q 290 446 261 455 q 341 423 319 436 q 393 388 363 410 q 451 350 428 362 q 500 338 474 338 q 624 411 572 338 l 715 317 q 670 242 705 279 q 587 183 635 206 q 490 161 538 161 q 427 170 455 161 q 379 193 399 180 q 330 229 358 207 q 270 271 295 257 q 213 284 245 284 q 96 210 154 284 l -4 306 m 43 642 q 91 711 54 676 q 178 769 127 746 q 275 791 228 791 q 337 782 309 791 q 388 759 366 772 q 440 724 410 746 q 498 687 475 699 q 548 675 522 675 q 671 747 620 675 l 762 653 q 718 579 753 615 q 634 520 683 543 q 537 497 585 497 q 475 507 503 497 q 426 530 447 516 q 378 566 406 543 q 317 607 342 593 q 260 621 292 621 q 144 547 201 621 l 43 642 z "},"~":{"ha":771,"x_min":52,"x_max":770,"o":"m 52 601 q 99 670 62 635 q 186 727 136 705 q 283 750 236 750 q 346 741 317 750 q 396 718 374 731 q 448 683 418 705 q 507 645 484 657 q 556 633 530 633 q 680 706 628 633 l 770 612 q 726 537 761 574 q 642 478 691 501 q 545 456 593 456 q 483 465 511 456 q 434 488 455 475 q 386 524 414 502 q 326 566 351 552 q 269 579 300 579 q 152 505 210 579 l 52 601 z "},"∙":{"ha":465,"x_min":101,"x_max":351,"o":"m 242 667 q 325 639 298 667 q 351 566 351 611 q 333 489 351 522 q 283 437 315 455 q 207 418 250 418 q 130 447 158 418 q 101 522 101 475 q 118 593 101 560 q 168 647 136 627 q 242 667 200 667 z "},"÷":{"ha":947,"x_min":152,"x_max":827,"o":"m 410 819 q 427 890 410 857 q 476 944 444 924 q 551 964 509 964 q 633 936 607 964 q 660 863 660 908 q 642 786 660 819 q 591 734 624 752 q 515 715 559 715 q 438 744 467 715 q 410 819 410 772 m 827 621 l 804 443 l 152 443 l 176 623 l 827 621 m 334 200 q 351 272 334 239 q 400 326 368 305 q 475 346 433 346 q 557 318 531 346 q 584 245 584 290 q 566 167 584 201 q 515 115 548 134 q 439 97 483 97 q 362 125 391 97 q 334 200 334 154 z "},"∕":{"ha":579,"x_min":-96,"x_max":673,"o":"m 488 1083 l 673 1083 l 88 -245 l -96 -245 l 488 1083 z "},"=":{"ha":736,"x_min":72,"x_max":704,"o":"m 704 716 l 679 548 l 109 548 l 134 716 l 704 716 m 667 382 l 642 214 l 72 214 l 97 382 l 667 382 z "},">":{"ha":946,"x_min":173,"x_max":882,"o":"m 173 124 l 198 335 l 620 529 l 248 726 l 266 918 l 882 565 l 871 477 l 173 124 z "},"≥":{"ha":943,"x_min":111,"x_max":829,"o":"m 829 521 l 212 851 l 191 662 l 493 509 l 152 374 l 127 170 l 819 454 l 829 521 m 762 140 l 122 140 l 111 0 l 751 0 l 762 140 z "},"∆":{"ha":954,"x_min":-37,"x_max":889,"o":"m 503 1023 l 889 18 l 878 0 l -28 0 l -37 15 l 481 1023 l 503 1023 m 467 608 l 266 195 l 616 195 l 467 608 z "},"∞":{"ha":1425,"x_min":59,"x_max":1384,"o":"m 59 423 q 101 581 59 510 q 221 694 143 652 q 404 735 300 735 q 603 693 522 735 q 740 577 683 651 q 878 689 802 647 q 1043 732 954 732 q 1234 689 1157 732 q 1347 575 1310 647 q 1384 416 1384 504 q 1342 255 1384 328 q 1221 141 1300 183 q 1037 98 1142 98 q 837 139 916 98 q 703 252 758 180 q 414 102 575 104 q 218 144 298 100 q 98 261 138 187 q 59 423 59 335 m 1038 271 q 1108 290 1078 271 q 1156 343 1139 309 q 1173 424 1173 378 q 1155 495 1173 463 q 1100 545 1137 527 q 1010 564 1063 564 q 824 454 911 564 q 921 323 867 376 q 1038 271 975 271 m 618 378 q 519 508 576 456 q 401 559 463 559 q 333 542 363 559 q 286 492 302 524 q 269 416 269 460 q 287 343 269 377 q 340 290 304 310 q 429 270 376 270 q 618 378 528 270 z "},"∫":{"ha":737,"x_min":72,"x_max":696,"o":"m 284 -186 q 388 -141 358 -186 q 416 -17 417 -97 q 396 107 415 43 q 349 230 377 171 q 276 375 321 289 q 199 530 228 467 q 149 663 170 593 q 127 801 128 732 q 163 976 125 899 q 279 1097 200 1053 q 475 1142 357 1142 q 609 1117 546 1142 q 696 1049 671 1091 l 608 925 q 585 949 602 936 q 541 972 567 963 q 488 982 515 982 q 382 939 419 982 q 345 817 345 897 q 364 693 345 756 q 410 571 382 629 q 484 426 437 513 q 564 269 534 333 q 614 134 593 205 q 635 -8 635 62 q 599 -176 635 -98 q 487 -303 563 -254 q 298 -351 411 -351 q 210 -339 256 -351 q 126 -307 163 -328 q 72 -262 88 -287 l 142 -119 q 174 -148 151 -132 q 228 -175 198 -164 q 284 -186 257 -186 z "},"<":{"ha":946,"x_min":135,"x_max":844,"o":"m 844 916 l 819 705 l 397 511 l 768 314 l 751 122 l 135 475 l 146 563 l 844 916 z "},"≤":{"ha":943,"x_min":104,"x_max":833,"o":"m 833 833 l 807 637 l 459 497 l 777 354 l 756 170 l 140 477 l 144 530 l 833 833 m 755 140 l 745 0 l 104 0 l 115 140 l 755 140 z "},"¬":{"ha":929,"x_min":137,"x_max":806,"o":"m 806 578 l 764 218 l 589 218 l 614 425 l 137 425 l 155 578 l 806 578 z "},"µ":{"ha":925,"x_min":35,"x_max":922,"o":"m 35 -252 l 146 543 q 148 568 148 552 q 143 604 148 591 q 127 617 138 617 q 97 609 110 617 q 68 586 83 602 l 35 698 q 81 729 46 709 q 163 767 115 750 q 257 784 210 784 q 361 755 321 784 q 401 667 401 726 q 399 647 401 662 l 356 295 q 353 256 353 276 q 425 163 353 163 q 470 178 444 163 q 518 219 497 193 q 544 280 540 246 l 608 773 l 846 773 l 772 189 q 772 174 772 184 q 779 144 772 155 q 795 132 785 132 q 835 147 813 132 q 869 180 857 161 l 922 90 q 866 39 890 58 q 802 3 842 19 q 708 -12 762 -12 q 619 8 652 -12 q 575 83 586 29 q 510 12 547 35 q 425 -11 473 -11 q 357 1 393 -11 q 305 41 320 12 l 262 -252 l 35 -252 z "},"−":{"ha":859,"x_min":151,"x_max":746,"o":"m 746 608 l 721 439 l 151 439 l 176 608 l 746 608 z "},"×":{"ha":947,"x_min":113,"x_max":875,"o":"m 374 536 l 161 764 l 303 890 l 500 645 l 758 890 l 875 749 l 608 522 l 826 293 l 684 168 l 481 412 l 230 168 l 113 308 l 374 536 z "},"≠":{"ha":735,"x_min":72,"x_max":704,"o":"m 496 548 l 419 382 l 667 382 l 642 214 l 342 214 l 243 0 l 92 0 l 191 214 l 72 214 l 97 382 l 269 382 l 345 548 l 109 548 l 134 716 l 422 716 l 515 916 l 666 916 l 574 716 l 704 716 l 679 548 l 496 548 z "},"∂":{"ha":918,"x_min":82,"x_max":867,"o":"m 473 745 q 556 735 521 745 q 624 709 592 726 q 524 918 600 842 q 332 995 448 995 q 241 980 288 995 q 160 941 193 965 l 84 1076 q 214 1149 141 1123 q 362 1175 287 1175 q 643 1086 530 1175 q 812 853 757 998 q 867 541 867 709 q 761 126 867 263 q 437 -11 654 -11 q 260 41 342 -11 q 130 180 178 92 q 82 372 82 268 q 137 590 82 507 q 280 709 192 673 q 473 745 368 745 m 633 540 q 563 579 599 566 q 484 593 528 593 q 361 542 401 593 q 321 383 321 492 q 357 217 321 277 q 481 156 393 156 q 581 209 547 156 q 624 333 614 262 q 633 486 633 404 l 633 540 z "},"%":{"ha":1358,"x_min":69,"x_max":1343,"o":"m 69 702 q 112 865 69 787 q 231 991 155 943 q 397 1039 306 1039 q 564 978 511 1039 q 617 806 617 917 q 576 637 617 718 q 461 506 536 556 q 290 456 386 456 q 126 521 182 456 q 69 702 69 586 m 1025 1038 l 546 0 l 363 0 l 857 1038 l 1025 1038 m 451 787 q 429 870 451 840 q 368 900 407 900 q 292 870 324 900 q 244 797 260 840 q 229 713 229 753 q 253 629 229 661 q 319 597 277 597 q 391 628 361 597 q 436 704 421 659 q 451 787 451 748 m 1124 623 q 1290 562 1237 623 q 1343 389 1343 500 q 1303 220 1343 301 q 1187 90 1262 140 q 1016 40 1112 40 q 852 105 909 40 q 795 286 795 170 q 839 448 795 370 q 957 574 882 526 q 1124 623 1032 623 m 1045 180 q 1118 212 1088 180 q 1162 287 1147 243 q 1177 371 1177 332 q 1155 453 1177 423 q 1094 484 1133 484 q 1019 454 1050 484 q 971 380 987 424 q 955 297 955 336 q 979 213 955 245 q 1045 180 1003 180 z "},"‰":{"ha":1973,"x_min":69,"x_max":1959,"o":"m 69 702 q 112 865 69 787 q 231 991 155 943 q 397 1039 306 1039 q 564 978 511 1039 q 617 806 617 917 q 576 637 617 718 q 461 506 536 556 q 290 456 386 456 q 126 521 182 456 q 69 702 69 586 m 1025 1038 l 546 0 l 363 0 l 857 1038 l 1025 1038 m 451 787 q 429 870 451 840 q 368 900 407 900 q 292 870 324 900 q 244 797 260 840 q 229 713 229 753 q 253 629 229 661 q 319 597 277 597 q 391 628 361 597 q 436 704 421 659 q 451 787 451 748 m 1124 623 q 1290 562 1237 623 q 1343 389 1343 500 q 1303 220 1343 301 q 1187 90 1262 140 q 1016 40 1112 40 q 852 105 909 40 q 795 286 795 170 q 839 448 795 370 q 957 574 882 526 q 1124 623 1032 623 m 1740 623 q 1906 562 1853 623 q 1959 389 1959 500 q 1919 220 1959 301 q 1803 90 1878 140 q 1632 40 1728 40 q 1468 105 1525 40 q 1411 286 1411 170 q 1454 448 1411 370 q 1573 574 1497 526 q 1740 623 1648 623 m 1045 180 q 1118 212 1088 180 q 1162 287 1147 243 q 1177 371 1177 332 q 1155 453 1177 423 q 1094 484 1133 484 q 1019 454 1050 484 q 971 380 987 424 q 955 297 955 336 q 979 213 955 245 q 1045 180 1003 180 m 1661 180 q 1733 212 1704 180 q 1778 287 1763 243 q 1793 371 1793 332 q 1771 453 1793 423 q 1710 484 1749 484 q 1634 454 1666 484 q 1587 380 1603 424 q 1571 297 1571 336 q 1595 213 1571 245 q 1661 180 1619 180 z "},"+":{"ha":917,"x_min":123,"x_max":825,"o":"m 376 448 l 292 444 l 123 444 l 147 622 l 316 622 l 395 614 l 401 709 l 422 898 l 606 898 l 589 709 l 572 615 l 638 622 l 825 622 l 801 444 l 615 444 l 549 448 l 545 357 l 522 170 l 337 170 l 359 357 l 376 448 z "},"±":{"ha":920,"x_min":111,"x_max":825,"o":"m 376 448 l 292 444 l 123 444 l 147 622 l 316 622 l 395 614 l 401 709 l 422 898 l 606 898 l 589 709 l 572 615 l 638 622 l 825 622 l 801 444 l 615 444 l 549 448 l 545 357 l 522 170 l 337 170 l 359 357 l 376 448 m 736 140 l 725 0 l 111 0 l 122 140 l 736 140 z "},"∏":{"ha":1164,"x_min":114,"x_max":1183,"o":"m 114 845 l 114 1032 l 1183 1032 l 1183 845 l 1027 844 l 1027 -117 l 772 -117 l 772 844 l 522 844 l 522 -117 l 267 -117 l 267 844 l 114 845 z "},"√":{"ha":1117,"x_min":67,"x_max":1156,"o":"m 259 486 l 437 486 l 582 52 l 907 1268 l 1156 1268 l 692 -240 l 477 -240 l 266 256 l 153 199 l 67 390 l 259 486 z "},"∑":{"ha":1019,"x_min":111,"x_max":915,"o":"m 111 978 l 131 1032 l 876 1032 l 876 843 l 466 843 l 731 467 l 467 66 l 915 66 l 915 -115 l 128 -115 l 111 -67 l 481 463 l 111 978 z "},"◊":{"ha":932,"x_min":58,"x_max":895,"o":"m 58 530 l 475 1050 l 477 1050 l 895 530 l 895 521 l 477 -1 l 474 -1 l 58 521 l 58 530 m 662 524 l 662 526 l 477 757 l 475 757 l 290 526 l 290 523 l 475 281 l 477 281 l 662 524 z "},"|":{"ha":579,"x_min":217,"x_max":389,"o":"m 389 1207 l 389 -126 l 217 -126 l 217 1207 l 389 1207 z "},"¦":{"ha":579,"x_min":217,"x_max":389,"o":"m 389 1207 l 389 621 l 217 621 l 217 1207 l 389 1207 m 389 460 l 389 -126 l 217 -126 l 217 460 l 389 460 z "},"@":{"ha":1375,"x_min":69,"x_max":1334,"o":"m 831 1048 q 1098 995 984 1048 q 1273 844 1211 942 q 1334 616 1334 747 q 1269 294 1334 433 q 1103 81 1204 155 q 901 7 1002 7 q 840 36 861 7 q 819 112 819 65 q 822 178 819 136 q 827 252 824 221 q 715 72 779 138 q 578 5 650 5 q 481 37 530 5 q 401 135 433 70 q 369 292 369 199 q 414 512 369 406 q 547 687 459 619 q 755 754 634 754 q 834 745 790 754 q 905 718 879 735 l 1037 738 q 1006 552 1020 670 q 977 271 992 434 q 968 208 973 239 q 965 169 965 180 q 974 151 965 151 q 1066 215 1023 151 q 1135 380 1109 279 q 1161 583 1161 480 q 1062 840 1161 765 q 797 914 963 914 q 502 824 630 914 q 304 588 374 734 q 235 283 235 443 q 291 33 235 130 q 442 -107 348 -64 q 652 -150 536 -150 q 790 -137 736 -150 q 886 -104 844 -124 l 926 -220 q 801 -277 878 -256 q 637 -298 723 -298 q 343 -233 471 -298 q 142 -43 214 -168 q 69 254 69 82 q 170 673 69 493 q 445 951 271 854 q 831 1048 618 1048 m 628 201 q 699 267 658 201 q 772 423 739 334 q 812 570 805 513 q 775 592 799 585 q 728 599 751 599 q 642 556 678 599 q 588 450 606 513 q 570 328 570 387 q 582 234 570 267 q 628 201 595 201 z "}}}
